<svg width="73" height="73" viewBox="0 0 73 73" fill="none" xmlns="http://www.w3.org/2000/svg">
    <path fill="#fff" fill-opacity=".01" d="M73 73H0V0h73z"/>
    <path fill-rule="evenodd" clip-rule="evenodd" d="M6.083 36.5c0-16.798 13.618-30.416 30.417-30.416 16.798 0 30.416 13.618 30.416 30.416C66.916 53.3 53.3 66.917 36.5 66.917S6.083 53.299 6.083 36.5zm24.565 7.982c.154-.367.38-.7.663-.98l7.078-7.017-7.05-6.987a3.005 3.005 0 0 1 0-4.28 3.072 3.072 0 0 1 4.318 0l8.988 8.913a3.314 3.314 0 0 1 0 4.708l-9.018 8.943a3.072 3.072 0 0 1-4.316 0 3.006 3.006 0 0 1-.663-3.3z" fill="#fff" fill-opacity=".76"/>
</svg>
