<?xml version="1.0" encoding="utf-8"?>
<!-- Generator: Adobe Illustrator 24.2.3, SVG Export Plug-In . SVG Version: 6.00 Build 0)  -->
<!DOCTYPE svg PUBLIC "-//W3C//DTD SVG 1.1//EN" "http://www.w3.org/Graphics/SVG/1.1/DTD/svg11.dtd" [
	<!ENTITY ns_extend "http://ns.adobe.com/Extensibility/1.0/">
	<!ENTITY ns_ai "http://ns.adobe.com/AdobeIllustrator/10.0/">
	<!ENTITY ns_graphs "http://ns.adobe.com/Graphs/1.0/">
	<!ENTITY ns_vars "http://ns.adobe.com/Variables/1.0/">
	<!ENTITY ns_imrep "http://ns.adobe.com/ImageReplacement/1.0/">
	<!ENTITY ns_sfw "http://ns.adobe.com/SaveForWeb/1.0/">
	<!ENTITY ns_custom "http://ns.adobe.com/GenericCustomNamespace/1.0/">
	<!ENTITY ns_adobe_xpath "http://ns.adobe.com/XPath/1.0/">
]>
<svg version="1.1" id="Слой_1" xmlns:x="&ns_extend;" xmlns:i="&ns_ai;" xmlns:graph="&ns_graphs;"
	 xmlns="http://www.w3.org/2000/svg" xmlns:xlink="http://www.w3.org/1999/xlink" x="0px" y="0px" viewBox="0 0 256 256"
	 style="enable-background:new 0 0 256 256;" xml:space="preserve">
<style type="text/css">
	.st0{fill:#FFC6E5;}
	.st1{fill:#FFFFFF;}
	.st2{fill:#FFC6E5;stroke:#FFC6E5;stroke-miterlimit:10;}
	.st3{fill:#DD1F1F;}
	.st4{fill:#B61A1A;}
	.st5{fill:#550C0C;}
	.st6{fill:#FFD2B3;}
	.st7{fill:#E29764;}
	.st8{fill:#A5D6E5;}
	.st9{opacity:0.5;fill:#A5D6E5;enable-background:new    ;}
	.st10{fill:#CE893E;}
	.st11{fill:#BA732B;}
	.st12{fill:#EAA157;}
	.st13{fill:#4C0808;}
	.st14{fill:#6D1818;}
	.st15{opacity:0.5;fill:#EAA157;enable-background:new    ;}
	.st16{fill:none;stroke:#FFC6E5;stroke-width:2;stroke-miterlimit:10;}
</style>
<metadata>
	<sfw  xmlns="&ns_sfw;">
		<slices></slices>
		<sliceSourceBounds  bottomLeftOrigin="true" height="251.93387" width="232.15332" x="16.45898" y="1.28613"></sliceSourceBounds>
	</sfw>
</metadata>
<path d="M87.82154,158.10027c0.57035-1.06554-6.03785-14.62144-24.1275-14.38043"/>
<path d="M87.80074,158.38702c-0.64406-1.02267,4.99199-15.01076,23.05363-16.04567"/>
<path d="M95.81869,103.45309c-2.05796,7.93531,28.89963,18.99123,30.65573-7.99715"/>
<path d="M93.11765,102.75362c2.03589,7.941-28.95232,18.9108-30.63338-8.08235"/>
<path class="st0" d="M95.81869,103.45309c0,0,1.61137,6.55051,11.31047,6.83755c7.51526,0.22242,13.88763,1.26865,19.34526-14.83471
	c-0.30611,0.90324,2.52262,12.34126-5.98373,17.65371c0,0-4.25089,2.11456-9.23833,2.93895
	c-0.56612,0.09357-0.98973,1.14315-1.2326,1.66302c-1.58198,3.38623-6.33501,15.33384,0.46037,24.39436
	c0,0-18.66001,5.33144-22.65858,15.99429c-1.31641-3.18958-7.31304-11.36208-23.26951-14.48045
	c-0.4309-0.08421-1.00756,0.03372-1.09177,0.46461c-0.73941,3.78371-4.9616,11.35013-7.62732,30.01013
	c0,0-6.66429,31.98859,27.99002,61.31146s83.97005,22.65858,107.96149-2.66571c0,0,36.36037-27.45688,19.51305-83.70348
	c0,0-3.51875-5.59801,13.80841-17.59372c17.32715-11.99573,17.82849-22.09179,5.33144-41.3186
	c-12.2121-18.78839-26.47998-36.1608-17.32716-51.98146c0,0-27.30522,11.94321-30.65573,57.31289
	c-3.58006,48.47796-37.39545,9.16223-40.65216,7.33072c0,0-10.83875,38.34481,17.32715,42.65145
	c26.88838,4.11131,31.66621-7.02133,45.31717,10.66287c13.35791,17.30455-7.99715,71.97432-58.64575,53.31432
	c0,0-22.65858-5.33144-26.65716-41.3186v-10.66286c0,0-1.33286-2.66571,6.66429,0s11.99572-9.33,6.66428-14.66144
	c0,0,2.66573,9.33-6.66428,6.66429s-3.99857-21.32573-2.66572-26.65716c0,0,1.33286,6.66428,7.99715,5.33143
	c0,0-5.33143-1.33286-2.66571-10.66286c2.66571-9.33,17.32715-23.99144,6.66429-41.3186c0,0-6.66429-5.33143-3.99858-14.66143
	c0,0,6.66429-13.32858,3.99858-25.3243c-2.66573-11.99572-5.33144-14.66144-10.66286-17.32715
	c-5.33144-2.66572-10.66286,2.66572-13.32858,3.99857c-2.66571,1.33286-9.33-3.99857-18.66001,7.99715
	s-3.99857,19.99287-9.33,25.3243c0,0,3.99857,0,5.33143-1.33286c0,0,0,9.33001-11.99572,9.33001s-13.32858,0-17.32715,7.99715
	c0,0,5.33143-5.33143,7.99715-2.66571c2.66571,2.66571,10.66286,13.32858,19.99287,13.32858s18.66001-9.33,17.32715-22.65858
	c0,0-5.33143-18.66001-1.33286-27.99002s9.33001-5.33143,10.66286-2.66572c0,0,2.66572-6.66429,7.99715-1.33286
	c0,0,1.33286,2.66572,0,9.33001c0,0-2.66572,13.32858,5.33144,11.99572c0,0-4.55686,9.88829-6.66429,11.99572
	c-1.33286,1.33286-7.99715,2.66571-13.32858-2.66572c0,0,0,2.66572,5.33144,5.33143c0,0-3.14697,11.18167,3.99857,17.32716
	c7.12912,6.13136,5.36322,35.57411-22.07388,20.32246c-0.35558-0.19766-0.78377-0.22359-1.15537-0.058
	c-2.34365,1.04435-11.41963,4.3889-18.08935-2.93732c-6.7707-7.43713-3.44045-14.47363-1.92381-16.64532
	c0.19765-0.28301-0.07302-0.68063-0.39725-0.56219c-2.73778,1.00004-7.86823,9.21037-12.34038,9.21037
	c-1.33286,0,1.33286-2.66572-3.99858-7.99715c-5.09998-5.09998-19.9571,10.53397-25.90425,18.90118
	c-0.46735,0.65752-0.50245,1.5153-0.08926,2.20814c3.24782,5.44588,17.59538,29.29362,24.66065,37.53643
	c0,0,2.66571,2.66571,10.66286,0c0,0,6.66429,1.33286,11.99572,1.33286c5.33144,0-9.33-2.66571-9.33-2.66571
	s0-0.91508,1.51645-1.98701c0.61663-0.4359,1.4157-0.53702,2.11243-0.2458c1.65998,0.6938,5.07027,1.88182,7.03398,0.89995
	c0,0-6.66429-2.66571-7.99715-3.99857c-1.33286-1.33286,7.99715,1.33286,10.66286,0c0,0-7.99715-2.66571-11.99572-2.66571
	c0,0,3.41024-2.44884,4.665-1.9993c2.30581,0.82611,3.56506,2.19705,7.33072,0.66643c0,0-3.86967-2.57977-11.609-2.66362
	c-0.24299-0.00262-0.4843,0.0793-0.67256,0.23294c-1.44962,1.18295-8.01184,6.42926-10.37702,6.42926
	c0,0-1.99929,1.99928-7.33072-8.66357s-9.33001-17.32716-9.33001-19.99287c0-2.66571,12.4546-13.00204,13.32858-11.99572
	c0.7705,0.88718,4.89883,11.34533,6.66429,14.66144c0,0,3.99857,11.99572-7.99715,3.99857c0,0,3.99857,13.32858,15.99429,11.99572
	c0,0,0-11.99679,1.13817-15.50338c0.09077-0.27966,0.3793-0.43488,0.66338-0.35909c2.7936,0.7454,17.2496,4.02621,20.85704-6.79612"
	/>
<path class="st0" d="M94.48583,95.45594c1.33286-3.99857-5.33144-10.66286-5.33144-10.66286s5.33144,2.66571,6.66429,5.33143
	c0,0,3.99857-2.66572,6.66429-3.99857L94.48583,95.45594z"/>
<path class="st0" d="M88.48797,132.10954c0,0,0,2.66571-1.33286,2.66571c0,0-0.66643,1.99928,1.99928,1.99928"/>
<path class="st0" d="M88.48159,131.73868c0,0-0.00001,2.66573,1.33286,2.66573c0,0,0.67281,2.37013-1.9929,2.37013"/>
<path class="st0" d="M133.13872,70.13165c0,0,17.32715-2.66572,33.32144,9.33c0,0,7.33072,9.99644,8.66357-7.33072
	c0,0-0.66643-7.33072-3.33214-9.99643c-2.66573-2.66571-3.03383,0.01698-2.66573,3.99858
	c0.20271,2.19257-3.29524-8.09801-1.33286-9.33001c0,0,3.99858-3.99857,7.99715,0c0,0-1.33286-3.99857-3.99857-5.33143
	c0,0-3.99858,1.33286-6.66429,0c-2.66573-1.33286,0-1.33286,7.99715-1.33286c0,0,1.48535,0.20509,2.66571,1.33286
	c0.7242,0.69191,0-1.76009,0-3.19474c0-0.55788,0.06981-1.328-0.43163-1.57254c-2.22279-1.08404-3.95175-4.23656-3.56694-5.89558
	c0,0,2.66571,1.33286,5.33142,5.33143c2.66573,3.99857,2.66573,7.99715,3.99858,13.32858s-1.33286,13.32858-1.33286,18.66001
	c0,5.33143,0,35.98716-10.66287,37.32002c0,0-10.66286-1.33286-21.32571-9.33001c0,0,5.33142,0,6.66428-5.33143
	c1.33287-5.33144,0-7.99715-11.99571-15.99429c0,0,0,1.33286-2.66573-6.66429
	C137.13728,70.13165,133.13872,70.13165,133.13872,70.13165z"/>
<path class="st0" d="M151.79872,210.08173l6.60831-56.83144c0.02591-0.22278,0.26024-0.35379,0.45862-0.24918
	c1.06429,0.56117,4.08368,1.81717,7.18538,0.02225c0.16861-0.09756,0.37668,0.0246,0.35419,0.21809l-6.60934,56.84027H151.79872z"/>
<path class="st1" d="M165.79633,146.20337l2.87743-26.64292c-1.78497,0.11305-5.92133-1.26759-5.92133-1.26759l-3.29277,27.19482
	L165.79633,146.20337z"/>
<path class="st1" d="M169.12587,115.44881l3.79034-34.41514c-2.87396,2.90488-6.03333-1.05521-6.03333-1.05521l-3.72755,34.02876
	L169.12587,115.44881z"/>
<path class="st2" d="M165.1273,38.14305c0,0-3.78255-3.78255-2.76343-8.89501c0.05312-0.26645,0.27026-0.47256,0.5377-0.52044
	c2.1552-0.38584,11.77814-1.72858,18.82092,3.50773c0.36458,0.27106,0.88199,0.12618,1.02565-0.30481l0.91537-2.7461
	c0.08009-0.24028,0.02245-0.50092-0.15927-0.67736c-1.13376-1.10095-5.94536-4.74294-19.23161-3.73073
	c-0.25409,0.01936-0.47668-0.17849-0.46513-0.43307c0.048-1.05742,0.27225-3.52736,1.31979-3.52736
	c1.3118,0,12.95226,0,18.40244,3.81207c0.21211,0.14836,0.4868,0.16882,0.70522,0.02992
	c0.36995-0.23526,0.84106-0.82399,0.88231-2.29723c0.00392-0.14015-0.03378-0.28364-0.11342-0.39903
	c-0.65189-0.94465-4.34822-5.14429-18.54369-5.14429c0,0-1.33286-2.66572,1.33286-2.66572
	c2.57468,0,11.36621-1.24337,17.96825,3.47533c0.36485,0.26077,0.88271,0.1164,1.01848-0.31102
	c0.28465-0.89601,0.53128-2.30632-0.32671-3.16432c-1.30653-1.30653-2.61307-3.89378-17.72923-3.99548
	c-0.47058-0.00317-0.79453-0.4755-0.61725-0.91142c0.64328-1.58179,2.39809-4.7678,6.35075-5.75596
	c5.2773-1.31933,15.77832,3.891,17.28369,7.87495c0.03123,0.08268,0.04346,0.16774,0.04346,0.25613v4.05777
	c0,0.43519-0.42018,0.77753-0.83302,0.63991c-0.49983-0.16661-1.16626-0.16661-1.83269,0.49982l-1.33286,3.99857h2.09949
	c0.27856,0,0.47527,0.2729,0.38718,0.53717c0,0-0.26605,3.25183-1.15381,3.46141c-0.26654,0.06292-0.67346-0.39749-0.96758-0.79419
	c-0.27971-0.37729-0.85544-0.34456-1.09372,0.06018c-0.29471,0.50061-0.5731,1.41969-0.60196,3.1071
	c-0.00308,0.17997,0.0695,0.3646,0.19678,0.49188l0.94022,0.94021c0.12384,0.12383,0.19341,0.29179,0.19341,0.46692v1.32378
	c0,0.49087-0.51659,0.81013-0.95563,0.59061l-0.75447-0.37724c-0.43904-0.21952-0.95563,0.09974-0.95563,0.59061v2.68572
	c0,0.14786,0.04506,0.28704,0.13786,0.40216c0.49144,0.60964,1.95235,2.89167-1.47072,5.17371
	c-3.99857,2.66571-9.33,3.99857-10.66286-2.66571v-3.99857h-2.66571c0,0-2.66573,0,0,6.66429c0,0-2.66573-1.33286-2.66573-6.66429
	h-3.99857C163.79445,32.81162,163.79445,35.47734,165.1273,38.14305z"/>
<path class="st3" d="M118.62995,51.67798c0,0-0.55914-0.95961-2.07223-0.50195c-1.49908,0.45346-2.15257,0.54699-2.47,0.47696
	c-0.31741-0.07003-0.79128-0.47578-1.01334-0.35291c-0.22202,0.12287,0.29257,0.21256,0.47285,0.49377
	c0.18031,0.28116,0.52238,1.85379,1.84666,2.64284c1.32423,0.78905,2.25031,0.50198,2.72468,0.6581
	c0.4744,0.15614,1.47071,0.09941,2.11174-0.41388c0.79575-0.63722,0.73224-1.35939,0.85442-1.48499
	c0.12225-0.12562,0.33041-0.25095,0.42874-0.32191c0.09838-0.07106-0.30946,0.04886-0.52802-0.34179
	c-0.2185-0.39061-0.85627-1.10123-1.38245-1.06262C119.07552,51.50827,118.87139,51.91846,118.62995,51.67798z"/>
<path class="st4" d="M113.1757,51.3765c0,0,0.80817,0.62567,1.43507,0.64679c0.62691,0.02112,2.44943-0.01373,2.68369-0.03167
	c0.23421-0.01788,0.0743-0.25143,0.23421-0.01788c0.15993,0.23351,0.61194,0.51793,0.97208,0.50731
	c0.36015-0.01071,0.87681-0.09692,0.96369-0.1846c0.08698-0.08765-0.02486,0.14261,0.14211,0.17173
	c0.1669,0.02904,0.81167,0.11208,1.14497,0.4199c0.33322,0.30786,0.41475,0.08699,0.41475,0.08699s0.0367,0.11826-0.3386,0.29801
	c-0.37527,0.17981-2.02101,0.4952-2.24112,0.44215c-0.22-0.05302-0.28309-0.18455-0.33897-0.19277
	c-0.05591-0.00826-0.45434,0.21661-1.13583-0.06407c-0.68147-0.28065-1.55621-0.77092-1.8801-0.88618
	c-0.32384-0.11524-1.22097-0.3948-1.35834-0.51139c-0.13728-0.11658-0.24654-0.31186-0.27885-0.33221
	C113.56216,51.70829,113.1942,51.47549,113.1757,51.3765z"/>
<path class="st5" d="M113.85328,51.84713c0,0,0.67204,0.33752,1.17625,0.3226c0.50418-0.01497,2.43507-0.07499,2.56816,0.06576
	c0.13315,0.14067,0.60304,0.40466,0.99647,0.36753c0.39342-0.03714,0.55105-0.11934,0.55105-0.11934
	s0.80804,0.13299,1.09416,0.30042c0.28606,0.16738,0.48232,0.27501,0.48232,0.27501s-1.80704,0.41836-2.70375,0.21852
	c-0.89673-0.19976-2.26319-0.74647-2.56173-0.84257C115.15763,52.33894,113.7842,51.99671,113.85328,51.84713z"/>
<path class="st1" d="M116.33517,52.65444c0.16568,0.03617,0.18182-0.05649,0.18182-0.05649s0.08953,0.25249,0.21751,0.27297
	c0.12808,0.0204,0.65127,0.12816,0.88325,0.154c0.232,0.0257,0.20588-0.03029,0.20588-0.03029
	c0.01987,0.09163,0.61199,0.10668,0.84323,0.09561c0.23123-0.01113,0.27042-0.11267,0.27042-0.11267
	s0.01373,0.04464,0.11107,0.06163c0.09738,0.01698,0.71259-0.05941,0.75484-0.0961c0.02608-0.02263,0.0771-0.17387,0.11232-0.28629
	c-0.34316-0.10276-0.77032-0.17311-0.77032-0.17311s-0.15762,0.0822-0.55105,0.11934
	c-0.39342,0.03712-0.86332-0.22686-0.99647-0.36753c-0.09962-0.10535-1.20674-0.09822-1.9686-0.08171
	c0.01166,0.08868,0.03047,0.18852,0.06055,0.25766C115.75612,52.56437,116.16952,52.61816,116.33517,52.65444z"/>
<path class="st1" d="M117.75357,51.82626c-0.00575-0.02822-0.00829-0.05663-0.01028-0.08537
	c-0.00098-0.01473-0.02193-0.01844-0.02789-0.00482c-0.01251,0.02872-0.02401,0.05745-0.03223,0.08779
	c-0.01054,0.03876-0.00256,0.06136,0.02011,0.09173c0.01437,0.01926,0.04849,0.0146,0.05194-0.01214
	c0.00148-0.01118,0.00511-0.02122,0.00652-0.03238C117.76382,51.85501,117.75667,51.8416,117.75357,51.82626z"/>
<path class="st1" d="M118.25052,52.0956c-0.00687-0.01277-0.02631-0.01786-0.0389-0.01224
	c-0.02464,0.01097-0.04997,0.01789-0.07657,0.02173c-0.03336,0.00477-0.03646-0.01935-0.04269-0.04905
	c-0.00524-0.02536-0.03494-0.04862-0.05914-0.02764c-0.01068,0.00927-0.02308,0.01189-0.03619,0.0124
	c-0.00289-0.03749-0.01216-0.07196-0.02374-0.11288c-0.00806-0.02861-0.0553-0.01756-0.05,0.01195
	c0.00856,0.04788-0.01499,0.09865-0.02461,0.14496c-0.00928,0.0447,0.04211,0.07314,0.07679,0.04966
	c0.01112-0.00755,0.027-0.01405,0.04337-0.02006c0.00538,0.03228,0.02051,0.06028,0.05456,0.07584
	c0.04433,0.02022,0.08906-0.00443,0.12991-0.02674c0.00204,0.01444,0.00307,0.02986,0.00588,0.04176
	c0.00625,0.02621,0.039,0.01945,0.04979,0.00196C118.28168,52.17053,118.2693,52.13067,118.25052,52.0956z"/>
<path class="st1" d="M119.34677,52.08754c-0.00722-0.02178-0.03477-0.02427-0.04897-0.00853
	c-0.02155,0.02385-0.05967,0.0673-0.03497,0.1058c0.0102,0.01598,0.03233,0.02279,0.04968,0.01558
	C119.34912,52.18518,119.35813,52.12231,119.34677,52.08754z"/>
<path class="st1" d="M119.82887,52.07175c-0.03815-0.01272-0.07368-0.0031-0.10943,0.00859
	c-0.01248-0.02111-0.04033-0.03246-0.06341-0.02279c-0.0257,0.01076-0.05228,0.01235-0.07845,0.01598
	c-0.0071-0.00601-0.01665-0.0102-0.02788-0.01277c-0.0145-0.02167-0.05307-0.00406-0.0536,0.02411
	c-0.00013,0.00869,0.0017,0.01582,0.00385,0.0239c-0.02531,0.03765,0.01524,0.09955,0.05938,0.07653
	c0.0151-0.00787,0.03123-0.01237,0.04762-0.01577c0.00569,0.02898,0.03492,0.05517,0.06375,0.04889
	c0.03063-0.0067,0.05898-0.01608,0.08815-0.02771c0.0407-0.01619,0.0633,0.00183,0.10318,0.0057
	c0.01471,0.00138,0.03169-0.00729,0.03341-0.02414C119.90052,52.12185,119.87614,52.08759,119.82887,52.07175z"/>
<path class="st1" d="M117.07787,54.18401c-0.02328-0.06166-0.08063-0.07472-0.13791-0.07122
	c-0.00294-0.00487-0.00538-0.00993-0.00859-0.01468c-0.0196-0.02917-0.05167-0.03868-0.0824-0.03217
	c-0.0012-0.00845-0.00255-0.01688-0.00514-0.02514c-0.00191-0.00623-0.00511-0.01086-0.00872-0.01473
	c0.00082-0.00493,0.00165-0.00986,0.00246-0.01476c0.01802-0.10819-0.10644-0.15167-0.17559-0.08347
	c-0.01418,0.01396-0.02642,0.02986-0.03813,0.04626c0.00371-0.01055,0.00787-0.02099,0.0128-0.031
	c0.03458-0.07056-0.06831-0.14091-0.11439-0.07502c-0.06932,0.09912-0.09099,0.21227-0.12038,0.32787
	c-0.0106,0.04192,0.0168,0.08906,0.05344,0.1062c0.08002,0.03744,0.14014,0.01152,0.19144-0.03665
	c-0.01608,0.06884,0.06751,0.1124,0.12624,0.08029c0.0315-0.01722,0.05344-0.04478,0.07575-0.07178
	c0.01534,0.01047,0.03375,0.01593,0.05151,0.01237c0.04364-0.00869,0.09933,0.00591,0.13831-0.0151
	C117.07017,54.25431,117.09206,54.22159,117.07787,54.18401z"/>
<path class="st1" d="M117.46743,54.28171c0.01328-0.01942,0.00567-0.05132-0.01751-0.05525
	c-0.00533-0.0062-0.01182-0.01168-0.02118-0.01521c-0.04032-0.01526-0.07603-0.00029-0.09776,0.03783
	c-0.01126,0.01971-0.00694,0.0477,0.00527,0.0655c0.01741,0.02546,0.04636,0.03137,0.07438,0.02332
	c0.01133-0.00323,0.01984-0.00962,0.02697-0.0176c0.0088-0.00683,0.01454-0.01532,0.01839-0.02536
	C117.45998,54.29071,117.4641,54.28666,117.46743,54.28171z"/>
<path class="st1" d="M119.68866,54.36488c0.00249-0.0248-0.0135-0.04255-0.03347-0.04499
	c-0.00278-0.00466-0.00557-0.0093-0.00872-0.01407c-0.00967-0.0146-0.03455-0.02151-0.04857-0.00845
	c-0.04949,0.04602-0.11741,0.01023-0.17204,0.00498c-0.02175-0.00207-0.04285,0.00199-0.0633,0.00927
	c0-0.00541,0.00037-0.01073,0.00034-0.01616c0.00005-0.04571-0.07159-0.05819-0.08701-0.01519
	c-0.01608,0.04497-0.03127,0.08941-0.0451,0.13514c-0.01629,0.05413,0.06086,0.10371,0.1018,0.06585
	c0.02223-0.02052,0.04243-0.04362,0.06837-0.05891c0.02655-0.0155,0.03233-0.00991,0.06123-0.00514
	c0.03868,0.00628,0.06894-0.02634,0.10036-0.04483c-0.00072,0.00312-0.00143,0.00612-0.0022,0.00927
	c-0.01632,0.06828,0.08444,0.09772,0.11274,0.03617C119.6824,54.39758,119.68645,54.38679,119.68866,54.36488z"/>
<path class="st1" d="M120.00224,54.23669c0.0022,0.00161,0.00439,0.00323,0.00659,0.00477
	c-0.00654-0.00483-0.01321-0.00938-0.02019-0.01357c-0.01881-0.00623-0.02347-0.00769-0.01404-0.00435
	c-0.008-0.00312-0.01622-0.00583-0.02454-0.00821l-0.00002-0.00008c0.0116,0.00312-0.00251-0.00321-0.00146-0.00122
	c-0.00506-0.00442-0.01542-0.01402-0.01028-0.00829c-0.02291-0.02578-0.05678-0.03736-0.08754-0.01521
	c-0.03008,0.0217-0.03252,0.05936-0.01566,0.08973c0.01591,0.02861,0.03779,0.05209,0.06516,0.06931
	c0.0199,0.01254,0.04221,0.01303,0.06492,0.013c0.02323-0.00005,0.04379-0.02037,0.05709-0.03267
	C120.05518,54.29935,120.04793,54.2479,120.00224,54.23669z"/>
<path class="st1" d="M116.19039,53.84443c-0.012,0.0247-0.02336,0.05003-0.03706,0.07387
	c-0.01376,0.02393-0.0279,0.0447-0.03484,0.07188c-0.01598,0.0624,0.06783,0.09351,0.1054,0.05008
	c0.01778-0.02053,0.02528-0.04642,0.0341-0.07167c0.0092-0.02602,0.01995-0.05156,0.02997-0.07726
	C116.31368,53.82525,116.22182,53.77988,116.19039,53.84443z"/>
<path class="st1" d="M116.07718,53.86235c0.00018-0.00244,0.00063-0.00485,0.00039-0.00721
	c0-0.00016,0.00003-0.00037,0.00003-0.00058c-0.00003,0.00011-0.00008,0.00016-0.00013,0.00027
	c-0.00305-0.027-0.03476-0.04709-0.06322-0.02984c-0.00333,0.00199-0.00736,0.00535-0.01112,0.00829
	c-0.00199-0.03023-0.00456-0.05972-0.02011-0.08646c-0.04023-0.06915-0.1189-0.05867-0.17828-0.02178
	c-0.03235,0.02008-0.03039,0.0822,0.00756,0.09488c0.02219,0.00737,0.03982,0.00972,0.06207,0.00567
	c0.00262,0.03442-0.00101,0.07419,0.0216,0.10273c0.05551,0.06995,0.14319,0.04438,0.17204-0.02374
	c0.00093-0.00021,0.00178-0.00093,0.0014-0.00207l-0.00013-0.00153C116.07384,53.88918,116.07654,53.87628,116.07718,53.86235z"/>
<path class="st1" d="M115.67196,53.5899c-0.03017-0.01449-0.06721-0.00609-0.08897,0.02016
	c-0.01984,0.02398-0.02626,0.06812-0.00443,0.09321c0.00008,0.00006,0.00014,0.00014,0.00021,0.00019
	c-0.00029,0.00061-0.00043,0.00117-0.00069,0.00172c-0.01102,0.02303-0.00076,0.05164,0.02155,0.06232
	c0.02461,0.01182,0.04769-0.00093,0.06107-0.02263c0.00321-0.00517,0.0052-0.01075,0.00768-0.01616
	C115.72297,53.70048,115.73222,53.61881,115.67196,53.5899z"/>
<path class="st6" d="M116.73838,37.86369c-1.039-2.72777-4.54838-3.32475-7.03557-2.33094
	c-0.04089,0.01634-0.41349,0.1855-0.59715,0.28587c-0.01699,0.00928,2.11173-0.67748,4.44559,0.27943
	c0.66995,0.27468,1.25112,0.72265,1.73911,1.25848c0.36626,0.40217,0.75433,0.89053,1.35527,0.67051
	C116.70802,38.00422,116.76563,37.93522,116.73838,37.86369z"/>
<path class="st6" d="M108.36559,40.66758c0,0,0.00353,0.02725,0.01318,0.07634c0.06944,0.35303,0.45551,1.83525,2.12091,2.42776
	c1.89698,0.67489,2.88669,0.37238,3.3653,0.13147c0.47861-0.24091,1.16737-0.84982,1.16737-0.84982L108.36559,40.66758z"/>
<path class="st7" d="M115.51534,41.94902c0,0-0.69362-2.42933-2.06053-2.79286c-0.71755-0.19082-1.81171-0.43385-3.10105,0
	c-1.16678,0.39261-2.57185,1.458-2.57185,1.458L115.51534,41.94902z"/>
<path class="st8" d="M113.85191,40.73674c-1.31295-0.40987-2.43543-0.71555-4.56953-0.15905
	c-0.05733,0.01495,0.03313,0.44172,0.32296,0.91611c0.02667-0.01225,0.04218-0.03766,0.04588-0.06623
	c1.79468-0.81637,4.34193-0.65059,5.63751,0.92927c0.2068-0.1162,0.34635-0.20512,0.34635-0.20512
	S115.16486,41.14661,113.85191,40.73674z"/>
<path class="st1" d="M114.98252,42.31268c-1.19958-1.09424-3.60758-1.53487-4.83173-0.32239
	c0.00738,0.04784-0.02684,0.1014-0.08292,0.08699c0.29855,0.29168,0.68877,0.54129,1.18613,0.65071
	c1.58519,0.34877,2.58889,0.2576,3.16777,0.04326c0.23701-0.08776,0.48238-0.2072,0.69041-0.31792
	C115.06966,42.40195,115.02689,42.35315,114.98252,42.31268z"/>
<path class="st1" d="M109.65121,41.42756c-0.00369,0.02858-0.0192,0.05399-0.04588,0.06623
	c0.11909,0.19493,0.27237,0.39767,0.46254,0.58348c0.05608,0.0144,0.09029-0.03916,0.08292-0.08699
	c1.22414-1.21248,3.63214-0.77185,4.83173,0.32239c0.04437,0.04047,0.08714,0.08927,0.12968,0.14066
	c0.06254-0.03329,0.12207-0.0659,0.17653-0.0965C113.99315,40.77697,111.44589,40.61119,109.65121,41.42756z"/>
<path class="st9" d="M109.65121,41.42756c-0.00369,0.02858-0.0192,0.05399-0.04588,0.06623
	c0.11909,0.19493,0.27237,0.39767,0.46254,0.58348c0.05608,0.0144,0.09029-0.03916,0.08292-0.08699
	c1.22414-1.21248,3.63214-0.77185,4.83173,0.32239c0.04437,0.04047,0.08714,0.08927,0.12968,0.14066
	c0.06254-0.03329,0.12207-0.0659,0.17653-0.0965C113.99315,40.77697,111.44589,40.61119,109.65121,41.42756z"/>
<path class="st10" d="M112.71947,40.98825c-0.58531-0.03024-1.01024,0.22913-1.21876,0.6964
	c0.26668,0.40343,0.72379,0.66993,1.24358,0.66993c0.51498,0,0.96716-0.26217,1.23431-0.65948
	C113.78226,41.25814,113.19022,41.01257,112.71947,40.98825z"/>
<path class="st11" d="M113.5004,40.53016c-0.65768-0.32071-1.40232-0.30101-2.11938-0.26649
	c-0.08114,0.18386-0.12701,0.38675-0.12701,0.60062c0,0.30326,0.09112,0.585,0.2467,0.82036
	c0.20852-0.46727,0.63345-0.72664,1.21876-0.6964c0.47076,0.02432,1.0628,0.26989,1.25913,0.70686
	c0.14902-0.22162,0.2412-0.48477,0.25287-0.76917C113.97186,40.84034,113.7188,40.63667,113.5004,40.53016z"/>
<path class="st12" d="M113.04102,41.52882c0,0.27487-0.22927,0.4977-0.5121,0.4977s-0.5121-0.22283-0.5121-0.4977
	c0-0.27488,0.22927-0.4977,0.5121-0.4977S113.04102,41.25394,113.04102,41.52882z"/>
<path class="st11" d="M113.29955,41.26334c0,0,0.11492,0.13005,0.18828,0.30777c0.11154,0.27019-0.03301,0.49248-0.03301,0.49248
	s0.37048-0.25691,0.20369-0.60363C113.49169,41.11324,113.29955,41.26334,113.29955,41.26334z"/>
<path class="st11" d="M113.17446,41.26334c0,0,0.09316,0.33171,0.02476,0.55744c-0.0684,0.22572-0.34541,0.3933-0.34541,0.3933
	s0.52668-0.04104,0.56429-0.60108C113.44318,41.23973,113.17446,41.26334,113.17446,41.26334z"/>
<path class="st13" d="M113.48782,41.20415c0.09113-0.13195,0.14478-0.29175,0.14478-0.46423
	c0-0.02965-0.00176-0.05886-0.00484-0.0877c-0.00188-0.00158-0.0039-0.00227-0.00576-0.00391
	c-0.10757-0.09491-0.22472-0.18143-0.34866-0.25809c-0.24194-0.03443-0.48637-0.05509-0.7344-0.06335
	c-0.14307-0.00476-0.28056-0.01148-0.41499-0.02497c-0.08059,0.12673-0.12791,0.27671-0.12791,0.43803
	c0,0.13144,0.03175,0.2552,0.08683,0.36526C112.4565,40.94094,112.99666,40.91908,113.48782,41.20415z"/>
<path class="st14" d="M112.81434,41.55819c0.27943,0,0.52587-0.14028,0.67348-0.35404
	c-0.49117-0.28507-1.03133-0.26321-1.40495-0.09897C112.21716,41.37352,112.49385,41.55819,112.81434,41.55819z"/>
<circle class="st1" cx="113.45481" cy="41.32571" r="0.28728"/>
<path class="st1" d="M112.92633,40.93005c0,0.10139-0.08219,0.1836-0.18359,0.1836c-0.1014,0-0.1836-0.0822-0.1836-0.1836
	c0-0.1014,0.0822-0.1836,0.1836-0.1836C112.84414,40.74645,112.92633,40.82865,112.92633,40.93005z"/>
<path class="st15" d="M111.89961,40.94603c0,0.07083-0.05743,0.12824-0.12826,0.12824c-0.07082,0-0.12824-0.05741-0.12824-0.12824
	c0-0.07083,0.05742-0.12825,0.12824-0.12825C111.84219,40.81778,111.89961,40.87521,111.89961,40.94603z"/>
<path class="st13" d="M116.02647,42.48222c-0.41632-0.58432-0.84195-1.18601-1.41865-1.62459
	c-0.28838-0.21933-2.08326-1.46082-5.12212-0.71911c-0.71511,0.17454-1.73549,0.57159-3.00415,0.11279
	c0.25323,0.28076,0.73514,0.84184,2.11682,0.62296c0.36994,0.81649,1.01202,1.57367,1.83314,1.94257
	c1.88785,0.84816,3.26954,0.42408,3.99027-0.04558c-0.50382,0.04093-1.97124,0.4423-3.52515-0.41668
	c-1.13622-0.62809-1.2589-1.61705-1.25857-1.61712c0.48595-0.10012,1.32559-0.19715,1.81945-0.21888
	c0.85637-0.03767,1.83707,0.14799,2.40093,0.37433C114.48212,41.14326,115.21954,41.80451,116.02647,42.48222z"/>
<path class="st13" d="M113.03263,38.91855c-1.3214-0.31361-3.08665-0.07572-4.11926,0.87086
	c-0.02184,0.02003,0.00089,0.06233,0.02995,0.05145c0.59746-0.22369,1.15319-0.51569,1.77918-0.66508
	c0.70923-0.16926,1.45229-0.19346,2.16631-0.03744c1.24355,0.27171,2.30867,1.0855,2.94146,2.17648
	c0.00471,0.00812,0.01908,0.00274,0.01563-0.00659C115.39102,40.08079,114.29047,39.21708,113.03263,38.91855z"/>
<path class="st13" d="M116.96301,37.42588c-0.32074-1.20741-2.20053-2.19268-3.42155-2.35654
	c-1.59916-0.2146-3.36947-0.04813-4.72419,0.89377c1.67937-0.65664,3.1693-0.77091,3.88661-0.6384
	c2.36975,0.43776,3.14078,1.49049,3.47089,2.00641C116.76995,38.26137,117.08663,37.89129,116.96301,37.42588z"/>
<path d="M40.65332,181.16113h-1.26953c0.17871-1.70898,0.26855-3.00293,0.26855-3.88184c0-1.25293-0.3374-2.24219-1.01123-2.9668
	c-0.67432-0.72363-1.5874-1.08594-2.74023-1.08594c-1.78613,0-3.34521,0.64844-4.67627,1.94238
	c-1.33154,1.29492-1.99707,2.74902-1.99707,4.36133c0,0.86328,0.18213,1.64551,0.54785,2.3457
	c0.36523,0.7002,1.17236,1.67773,2.42236,2.93262c2.28809,2.24805,3.78955,4.00684,4.50342,5.27734
	c0.71436,1.26953,1.07129,2.50781,1.07129,3.71289c0,1.77539-0.5415,3.48633-1.62354,5.13086
	c-1.08252,1.64551-2.67773,3.00195-4.78516,4.06836c-2.10791,1.06738-4.3335,1.60059-6.67725,1.60059
	c-2.31152,0-4.26025-0.60254-5.84717-1.80664s-2.38037-2.47363-2.38037-3.80859c0-0.71582,0.20752-1.30957,0.62256-1.78223
	c0.41504-0.47168,0.89111-0.70801,1.42822-0.70801c0.55322,0,1.00879,0.21973,1.36719,0.65918
	c0.22754,0.26074,0.45557,0.84668,0.68359,1.75781c0.26025,1.10742,0.57764,1.9082,0.95215,2.4043
	c0.37402,0.49609,0.89111,0.90332,1.55029,1.22168c0.65918,0.31641,1.37939,0.47559,2.16064,0.47559
	c2.32715,0,4.36182-0.78613,6.10352-2.35742c1.74121-1.57227,2.6123-3.31055,2.6123-5.2168
	c0-0.65234-0.10986-1.29883-0.32959-1.94238s-0.62256-1.37207-1.2085-2.18652c-0.40723-0.55469-1.31055-1.53125-2.70996-2.93164
	c-1.38379-1.36914-2.25439-2.30566-2.6123-2.81055c-0.50488-0.73242-0.87891-1.46973-1.12305-2.21094
	s-0.36621-1.47852-0.36621-2.21094c0-1.48242,0.49609-2.97266,1.48926-4.47168c0.99268-1.49902,2.28271-2.69238,3.86963-3.5791
	c1.58691-0.88867,3.38916-1.33203,5.40771-1.33203c1.00879,0,2.25391,0.1543,3.73535,0.46387
	c0.84619,0.16309,1.57861,0.28516,2.19727,0.36621c-0.3584,1.05859-0.63477,2.05469-0.83008,2.99023
	C41.26367,176.51855,40.99512,178.37793,40.65332,181.16113z"/>
<path d="M67.45996,186.11719l-1.07422-0.83008c1.62549-1.79004,3.10889-3.06445,4.4502-3.82031
	c1.34131-0.75781,2.48291-1.13574,3.42578-1.13574c0.52051,0,0.91895,0.11426,1.19482,0.3418
	c0.27637,0.22754,0.41504,0.53711,0.41504,0.92773c0,0.47168-0.52783,2.47363-1.58301,6.00586
	c-1.72021,5.77832-2.58057,9.26074-2.58057,10.44922c0,0.22754,0.05664,0.41895,0.1709,0.57324
	c0.11377,0.15527,0.23584,0.23242,0.36621,0.23242c0.52051,0,1.85547-1.00879,4.00391-3.02734l0.95215,0.92773
	c-2.22998,2.09961-3.85742,3.44238-4.88281,4.02832s-1.86377,0.87891-2.51465,0.87891c-0.56982,0-1.02148-0.17871-1.35498-0.53711
	c-0.33398-0.3584-0.50049-0.85449-0.50049-1.48926c0-2.03418,1.2207-7.00684,3.66211-14.91699
	c0.11377-0.37402,0.1709-0.70801,0.1709-1.00098c0-0.3252-0.14648-0.48828-0.43945-0.48828
	c-0.32568,0-0.6958,0.13086-1.11084,0.39063C69.81592,183.8877,68.89209,184.71777,67.45996,186.11719z M77.05469,169.95508
	c0.50439,0,0.91943,0.16699,1.24512,0.5c0.3252,0.33398,0.48828,0.76172,0.48828,1.28223c0,0.71582-0.24854,1.34668-0.74463,1.8916
	c-0.49658,0.5459-1.0542,0.81836-1.67236,0.81836c-0.48828,0-0.89551-0.1709-1.2207-0.5127
	c-0.32568-0.3418-0.48828-0.78906-0.48828-1.34277c0-0.73242,0.23584-1.35547,0.70801-1.86719
	C75.8418,170.21094,76.40332,169.95508,77.05469,169.95508z"/>
<path d="M107.08398,200.98535h-3.6377l1.70898-6.56738c0.83008-3.22266,1.55371-6.28223,2.17285-9.17969
	c0.14648-0.71582,0.21973-1.16406,0.21973-1.34277c0-0.39063-0.17969-0.58594-0.53711-0.58594
	c-0.24414,0-0.61914,0.16699-1.12305,0.50098c-0.50488,0.33398-1.41602,1.15918-2.73438,2.47754l-0.75684-0.85449
	c1.56152-1.67578,3.12012-2.93359,4.67383-3.77148s2.74512-1.25781,3.5752-1.25781c0.29297,0,0.52441,0.06934,0.69531,0.20703
	c0.1709,0.13867,0.25586,0.31445,0.25586,0.52539c0,0.21289-0.10645,0.77734-0.32031,1.69336l-1.0625,4.3916
	c1.64746-2.59766,3.50586-4.81934,5.57715-6.66602c0.99512-0.88184,1.82715-1.32324,2.49512-1.32324
	c0.48926,0,0.89746,0.1582,1.22363,0.47656c0.32617,0.31641,0.48926,0.6875,0.48926,1.11035
	c0,0.43945-0.1582,0.81348-0.47559,1.12305s-1.11035,0.67578-2.37891,1.09863c-1.20313,0.40723-2.18359,0.89551-2.93945,1.46582
	c-0.75586,0.56934-1.58594,1.44043-2.48828,2.6123c-0.90234,1.17285-1.5332,2.19434-1.89258,3.06445
	c-0.3584,0.87109-0.90527,2.89258-1.63867,6.06641L107.08398,200.98535z"/>
<path d="M154.25195,194.85742l0.80566,1.07422c-3.98828,3.79297-7.40625,5.68848-10.25391,5.68848
	c-1.15625,0-2.03809-0.39063-2.64941-1.17188c-0.60938-0.78125-0.91504-2.03418-0.91504-3.75977
	c0-3.4834,1.05762-6.9502,3.17383-10.40039c2.37598-3.92285,5.21582-5.88379,8.52051-5.88379
	c1.15527,0,2.03906,0.28906,2.64844,0.86719c0.61133,0.57813,0.91602,1.37109,0.91602,2.37988
	c0,1.05762-0.36621,2.09961-1.09863,3.125s-2.04297,2.0918-3.93066,3.19824c-0.94434,0.53711-2.96289,1.50586-6.05469,2.90527
	c-0.14648,0.87891-0.21973,1.71777-0.21973,2.51465c0,1.15625,0.18262,1.96094,0.5498,2.41699
	c0.36523,0.45605,0.89844,0.68359,1.59863,0.68359c0.66699,0,1.39941-0.18652,2.19727-0.56152
	C150.61426,197.42969,152.18457,196.4043,154.25195,194.85742z M145.70703,191.31738
	c2.62012-1.17188,4.58984-2.43262,5.9082-3.78418c0.89453-0.94336,1.34277-1.87988,1.34277-2.80762
	c0-0.7002-0.18262-1.25684-0.5498-1.67285c-0.36523-0.41406-0.8418-0.62207-1.42773-0.62207
	c-0.60254,0-1.18848,0.22754-1.75781,0.68359c-0.76563,0.60254-1.4082,1.51367-1.92871,2.73438
	C146.54492,187.63867,146.01563,189.46191,145.70703,191.31738z"/>
<path d="M183.08496,186.19043l-0.83008-0.85449c2.08496-1.99609,3.74609-3.32031,4.98438-3.97461s2.29688-0.98145,3.17676-0.98145
	c0.3418,0,0.61035,0.07324,0.80566,0.21973s0.29395,0.31738,0.29395,0.5127c0,0.14648-0.04102,0.40723-0.12207,0.78125
	l-1.10059,4.91309c1.65723-1.84082,3.73633-3.55859,6.23926-5.15625c1.33203-0.83008,2.42871-1.24609,3.29004-1.24609
	c0.63379,0,1.12988,0.20313,1.4873,0.61035s0.53613,0.99316,0.53613,1.75781c0,0.50488-0.07324,1.07422-0.21875,1.70898
	c-0.25977,1.05762-0.94141,3.36133-2.04395,6.90918c-1.03809,3.32031-1.55664,5.52539-1.55664,6.61621
	c0,0.33398,0.04883,0.58398,0.14648,0.75098s0.23535,0.25,0.41504,0.25c0.47168,0,1.21191-0.45508,2.22168-1.36719
	c0.71582-0.65039,1.43164-1.25293,2.14844-1.80664l0.61035,0.87891c-1.49805,1.65234-3.05176,2.98047-4.66309,3.98438
	c-1.02539,0.64844-1.87207,0.97168-2.53906,0.97168c-0.61914,0-1.09863-0.22363-1.44043-0.6709s-0.5127-1.17578-0.5127-2.18555
	c0-1.44824,0.90332-5.05371,2.70996-10.81543c0.55273-2.05078,0.83008-3.24707,0.83008-3.58887
	c0-0.50391-0.30176-0.75684-0.90332-0.75684c-0.65137,0-1.48926,0.34277-2.51465,1.02637
	c-1.53027,1.01172-2.80762,2.20117-3.83301,3.57031c-0.65137,0.87988-1.19629,2.28125-1.63574,4.20508l-1.97754,8.53223h-3.6377
	c0.68359-2.44434,1.27734-4.78418,1.78223-7.0166l2.17285-9.29102c0.08105-0.37402,0.12207-0.64258,0.12207-0.80566
	c0-0.44043-0.16309-0.66016-0.48828-0.66016c-0.26074,0-0.63477,0.17285-1.12305,0.5166
	C184.90723,184.40234,183.96387,185.22266,183.08496,186.19043z"/>
<path d="M245.90234,180.03809l1.61133-0.3418l-1.83105,6.17676c-0.73242,2.45801-1.4248,5.29004-2.0752,8.49609
	c-0.3584,1.74219-0.53711,2.86523-0.53711,3.36914c0,0.50488,0.20313,0.75684,0.61035,0.75684
	c0.25977,0,0.6748-0.1709,1.24512-0.5127c1.00879-0.60156,1.97754-1.35059,2.90527-2.24609l0.78125,0.95215
	c-1.85547,1.69238-3.04395,2.71777-3.56445,3.07617c-1.04199,0.71582-2.03516,1.24512-2.97852,1.58691
	c-0.61914,0.22754-1.2207,0.3418-1.80664,0.3418c-0.42383,0-0.74121-0.09766-0.95215-0.29297
	c-0.21191-0.19531-0.31738-0.48047-0.31738-0.85449c0-0.24414,0.06445-0.57715,0.19531-1.00098l0.97656-3.32031
	c-1.40039,1.67676-3.06836,3.11719-5.00488,4.32129c-1.18848,0.74902-2.2793,1.12305-3.27148,1.12305
	c-0.94434,0-1.66895-0.33398-2.17285-1.00098c-0.68359-0.89453-1.02539-2.06641-1.02539-3.51563
	c0-1.72461,0.45996-3.64551,1.37988-5.76172c0.91895-2.11523,2.15137-4.03613,3.69824-5.76172
	c1.5459-1.72461,3.17383-2.99414,4.88281-3.80859c1.31836-0.61816,3.01074-0.92773,5.07813-0.92773
	c0.52051,0,1.0498,0.0332,1.58691,0.09766L245.90234,180.03809z M242.875,183.77344
	c-0.87891-0.17871-1.62012-0.26855-2.22168-0.26855c-1.46484,0-2.74316,0.40332-3.83301,1.20801
	c-1.09082,0.80664-2.10352,2.25488-3.03906,4.3457c-0.93652,2.0918-1.4043,4.17969-1.4043,6.2627
	c0,1.10645,0.18652,1.9043,0.56152,2.39258c0.37402,0.48828,0.8623,0.73242,1.46484,0.73242
	c1.12305,0,2.32715-0.60645,3.61328-1.81934c1.28516-1.21191,2.22949-2.95703,2.83203-5.23633L242.875,183.77344z"/>
<path class="st0" d="M93.15297,102.12023c-21.169,7.23331-25.34976-15.06201-19.94414-20.43463
	C73.20883,81.6856,97.20509,100.73565,93.15297,102.12023z"/>
<path class="st0" d="M120.93381,88.57057c1.62125,22.31186-21.00495,20.69461-24.82896,14.10197
	C96.10485,102.67255,120.62347,84.29969,120.93381,88.57057z"/>
<path class="st16" d="M70.67687,87.28699c6.72607-9.67754,5.70473-9.65968,1.32494-14.51264"/>
<rect x="93.81941" y="98.78809" transform="matrix(0.20961 -0.97778 0.97778 0.20961 -24.64447 173.75291)" class="st0" width="2.66571" height="6.66429"/>
</svg>
