<?xml version="1.0" encoding="utf-8"?>
<!-- Generator: Adobe Illustrator 24.2.3, SVG Export Plug-In . SVG Version: 6.00 Build 0)  -->
<!DOCTYPE svg PUBLIC "-//W3C//DTD SVG 1.1//EN" "http://www.w3.org/Graphics/SVG/1.1/DTD/svg11.dtd" [
	<!ENTITY ns_extend "http://ns.adobe.com/Extensibility/1.0/">
	<!ENTITY ns_ai "http://ns.adobe.com/AdobeIllustrator/10.0/">
	<!ENTITY ns_graphs "http://ns.adobe.com/Graphs/1.0/">
	<!ENTITY ns_vars "http://ns.adobe.com/Variables/1.0/">
	<!ENTITY ns_imrep "http://ns.adobe.com/ImageReplacement/1.0/">
	<!ENTITY ns_sfw "http://ns.adobe.com/SaveForWeb/1.0/">
	<!ENTITY ns_custom "http://ns.adobe.com/GenericCustomNamespace/1.0/">
	<!ENTITY ns_adobe_xpath "http://ns.adobe.com/XPath/1.0/">
]>
<svg version="1.1" id="Слой_1" xmlns:x="&ns_extend;" xmlns:i="&ns_ai;" xmlns:graph="&ns_graphs;"
	 xmlns="http://www.w3.org/2000/svg" xmlns:xlink="http://www.w3.org/1999/xlink" x="0px" y="0px" viewBox="0 0 256 256"
	 style="enable-background:new 0 0 256 256;" xml:space="preserve">
<style type="text/css">
	.st0{fill:#FFFFFF;}
	.st1{fill:#FFFFFF;stroke:#FFFFFF;stroke-miterlimit:10;}
	.st2{opacity:0.5;fill:#FFFFFF;enable-background:new    ;}
	.st3{fill:#05A5FF;}
	.st4{fill:#FFFFFF;stroke:#FFFFFF;stroke-width:2;stroke-miterlimit:10;}
</style>
<metadata>
	<sfw  xmlns="&ns_sfw;">
		<slices></slices>
		<sliceSourceBounds  bottomLeftOrigin="true" height="252" width="232.1" x="16.5" y="1.2"></sliceSourceBounds>
	</sfw>
</metadata>
<path class="st0" d="M87.8,158.1c0.6-1.1-6-14.6-24.1-14.4"/>
<path class="st0" d="M87.8,158.4c-0.6-1,5-15,23.1-16"/>
<path class="st0" d="M95.8,103.5c-2.1,7.9,28.9,19,30.7-8"/>
<path class="st0" d="M93.1,102.8c2,7.9-29,18.9-30.6-8.1"/>
<path class="st0" d="M95.8,103.5c0,0,1.6,6.6,11.3,6.8c7.5,0.2,13.9,1.3,19.3-14.8c-0.3,0.9,2.5,12.3-6,17.7c0,0-4.3,2.1-9.2,2.9
	c-0.6,0.1-1,1.1-1.2,1.7c-1.6,3.4-6.3,15.3,0.5,24.4c0,0-18.7,5.3-22.7,16c-1.3-3.2-7.3-11.4-23.3-14.5c-0.4-0.1-1,0-1.1,0.5
	c-0.7,3.8-5,11.4-7.6,30c0,0-6.7,32,28,61.3s84,22.7,108-2.7c0,0,36.4-27.5,19.5-83.7c0,0-3.5-5.6,13.8-17.6s17.8-22.1,5.3-41.3
	c-12.2-18.8-26.5-36.2-17.3-52c0,0-27.3,11.9-30.7,57.3c-3.6,48.5-37.4,9.2-40.7,7.3c0,0-10.8,38.3,17.3,42.7
	c26.9,4.1,31.7-7,45.3,10.7c13.4,17.3-8,72-58.6,53.3c0,0-22.7-5.3-26.7-41.3v-10.7c0,0-1.3-2.7,6.7,0s12-9.3,6.7-14.7
	c0,0,2.7,9.3-6.7,6.7s-4-21.3-2.7-26.7c0,0,1.3,6.7,8,5.3c0,0-5.3-1.3-2.7-10.7c2.7-9.3,17.3-24,6.7-41.3c0,0-6.7-5.3-4-14.7
	c0,0,6.7-13.3,4-25.3s-5.3-14.7-10.7-17.3c-5.3-2.7-10.7,2.7-13.3,4c-2.7,1.3-9.3-4-18.7,8s-4,20-9.3,25.3c0,0,4,0,5.3-1.3
	c0,0,0,9.3-12,9.3s-13.3,0-17.3,8c0,0,5.3-5.3,8-2.7c2.7,2.7,10.7,13.3,20,13.3s18.7-9.3,17.3-22.7c0,0-5.3-18.7-1.3-28
	s9.3-5.3,10.7-2.7c0,0,2.7-6.7,8-1.3c0,0,1.3,2.7,0,9.3c0,0-2.7,13.3,5.3,12c0,0-4.6,9.9-6.7,12c-1.3,1.3-8,2.7-13.3-2.7
	c0,0,0,2.7,5.3,5.3c0,0-3.1,11.2,4,17.3c7.1,6.1,5.4,35.6-22.1,20.3c-0.4-0.2-0.8-0.2-1.2-0.1c-2.3,1-11.4,4.4-18.1-2.9
	C68.1,91.1,71.5,84,73,81.9c0.2-0.3-0.1-0.7-0.4-0.6c-2.7,1-7.9,9.2-12.3,9.2c-1.3,0,1.3-2.7-4-8c-5.1-5.1-20,10.5-25.9,18.9
	c-0.5,0.7-0.5,1.5-0.1,2.2c3.2,5.4,17.6,29.3,24.7,37.5c0,0,2.7,2.7,10.7,0c0,0,6.7,1.3,12,1.3s-9.3-2.7-9.3-2.7s0-0.9,1.5-2
	c0.6-0.4,1.4-0.5,2.1-0.2c1.7,0.7,5.1,1.9,7,0.9c0,0-6.7-2.7-8-4s8,1.3,10.7,0c0,0-8-2.7-12-2.7c0,0,3.4-2.4,4.7-2
	c2.3,0.8,3.6,2.2,7.3,0.7c0,0-3.9-2.6-11.6-2.7c-0.2,0-0.5,0.1-0.7,0.2c-1.4,1.2-8,6.4-10.4,6.4c0,0-2,2-7.3-8.7s-9.3-17.3-9.3-20
	s12.5-13,13.3-12c0.8,0.9,4.9,11.3,6.7,14.7c0,0,4,12-8,4c0,0,4,13.3,16,12c0,0,0-12,1.1-15.5c0.1-0.3,0.4-0.4,0.7-0.4
	c2.8,0.7,17.2,4,20.9-6.8"/>
<path class="st0" d="M94.5,95.5c1.3-4-5.3-10.7-5.3-10.7s5.3,2.7,6.7,5.3c0,0,4-2.7,6.7-4L94.5,95.5z"/>
<path class="st0" d="M88.5,132.1c0,0,0,2.7-1.3,2.7c0,0-0.7,2,2,2"/>
<path class="st0" d="M88.5,131.7c0,0,0,2.7,1.3,2.7c0,0,0.7,2.4-2,2.4"/>
<path class="st0" d="M133.1,70.1c0,0,17.3-2.7,33.3,9.3c0,0,7.3,10,8.7-7.3c0,0-0.7-7.3-3.3-10c-2.7-2.7-3,0-2.7,4
	c0.2,2.2-3.3-8.1-1.3-9.3c0,0,4-4,8,0c0,0-1.3-4-4-5.3c0,0-4,1.3-6.7,0s0-1.3,8-1.3c0,0,1.5,0.2,2.7,1.3c0.7,0.7,0-1.8,0-3.2
	c0-0.6,0.1-1.3-0.4-1.6c-2.2-1.1-4-4.2-3.6-5.9c0,0,2.7,1.3,5.3,5.3c2.7,4,2.7,8,4,13.3s-1.3,13.3-1.3,18.7s0,36-10.7,37.3
	c0,0-10.7-1.3-21.3-9.3c0,0,5.3,0,6.7-5.3c1.3-5.3,0-8-12-16c0,0,0,1.3-2.7-6.7S133.1,70.1,133.1,70.1z"/>
<path class="st0" d="M151.8,210.1l6.6-56.8c0-0.2,0.3-0.4,0.5-0.2c1.1,0.6,4.1,1.8,7.2,0c0.2-0.1,0.4,0,0.4,0.2l-6.6,56.8H151.8z"/>
<path class="st0" d="M165.8,146.2l2.9-26.6c-1.8,0.1-5.9-1.3-5.9-1.3l-3.3,27.2L165.8,146.2z"/>
<path class="st0" d="M169.1,115.4l3.8-34.4c-2.9,2.9-6-1.1-6-1.1l-3.7,34L169.1,115.4z"/>
<path class="st1" d="M165.1,38.1c0,0-3.8-3.8-2.8-8.9c0.1-0.3,0.3-0.5,0.5-0.5c2.2-0.4,11.8-1.7,18.8,3.5c0.4,0.3,0.9,0.1,1-0.3
	l0.9-2.7c0.1-0.2,0-0.5-0.2-0.7c-1.1-1.1-5.9-4.7-19.2-3.7c-0.3,0-0.5-0.2-0.5-0.4c0-1.1,0.3-3.5,1.3-3.5c1.3,0,13,0,18.4,3.8
	c0.2,0.1,0.5,0.2,0.7,0c0.4-0.2,0.8-0.8,0.9-2.3c0-0.1,0-0.3-0.1-0.4c-0.7-0.9-4.3-5.1-18.5-5.1c0,0-1.3-2.7,1.3-2.7
	s11.4-1.2,18,3.5c0.4,0.3,0.9,0.1,1-0.3c0.3-0.9,0.5-2.3-0.3-3.2c-1.3-1.3-2.6-3.9-17.7-4c-0.5,0-0.8-0.5-0.6-0.9
	c0.6-1.6,2.4-4.8,6.4-5.8c5.3-1.3,15.8,3.9,17.3,7.9c0,0.1,0,0.2,0,0.3v4.1c0,0.4-0.4,0.8-0.8,0.6c-0.5-0.2-1.2-0.2-1.8,0.5l-1.3,4
	h2.1c0.3,0,0.5,0.3,0.4,0.5c0,0-0.3,3.3-1.2,3.5c-0.3,0.1-0.7-0.4-1-0.8s-0.9-0.3-1.1,0.1c-0.3,0.5-0.6,1.4-0.6,3.1
	c0,0.2,0.1,0.4,0.2,0.5l0.9,0.9c0.1,0.1,0.2,0.3,0.2,0.5v1.3c0,0.5-0.5,0.8-1,0.6l-0.8-0.4c-0.4-0.2-1,0.1-1,0.6V34
	c0,0.1,0,0.3,0.1,0.4c0.5,0.6,2,2.9-1.5,5.2c-4,2.7-9.3,4-10.7-2.7v-4h-2.7c0,0-2.7,0,0,6.7c0,0-2.7-1.3-2.7-6.7h-4
	C163.8,32.8,163.8,35.5,165.1,38.1z"/>
<path class="st0" d="M118.6,51.7c0,0-0.6-1-2.1-0.5s-2.2,0.5-2.5,0.5c-0.3-0.1-0.8-0.5-1-0.4s0.3,0.2,0.5,0.5s0.5,1.9,1.8,2.6
	c1.3,0.8,2.3,0.5,2.7,0.7c0.5,0.2,1.5,0.1,2.1-0.4c0.8-0.6,0.7-1.4,0.9-1.5c0.1-0.1,0.3-0.3,0.4-0.3c0.1-0.1-0.3,0-0.5-0.3
	c-0.2-0.4-0.9-1.1-1.4-1.1C119.1,51.5,118.9,51.9,118.6,51.7z"/>
<path class="st0" d="M113.2,51.4c0,0,0.8,0.6,1.4,0.6s2.4,0,2.7,0c0.2,0,0.1-0.3,0.2,0c0.2,0.2,0.6,0.5,1,0.5s0.9-0.1,1-0.2
	c0.1-0.1,0,0.1,0.1,0.2c0.2,0,0.8,0.1,1.1,0.4c0.3,0.3,0.4,0.1,0.4,0.1s0,0.1-0.3,0.3c-0.4,0.2-2,0.5-2.2,0.4s-0.3-0.2-0.3-0.2
	c-0.1,0-0.5,0.2-1.1-0.1c-0.7-0.3-1.6-0.8-1.9-0.9c-0.3-0.1-1.2-0.4-1.4-0.5c-0.1-0.1-0.2-0.3-0.3-0.3
	C113.6,51.7,113.2,51.5,113.2,51.4z"/>
<path class="st0" d="M113.9,51.8c0,0,0.7,0.3,1.2,0.3s2.4-0.1,2.6,0.1c0.1,0.1,0.6,0.4,1,0.4s0.6-0.1,0.6-0.1s0.8,0.1,1.1,0.3
	c0.3,0.2,0.5,0.3,0.5,0.3s-1.8,0.4-2.7,0.2c-0.9-0.2-2.3-0.7-2.6-0.8C115.2,52.3,113.8,52,113.9,51.8z"/>
<path class="st0" d="M116.3,52.7c0.2,0,0.2-0.1,0.2-0.1s0.1,0.3,0.2,0.3s0.7,0.1,0.9,0.2c0.2,0,0.2,0,0.2,0c0,0.1,0.6,0.1,0.8,0.1
	c0.2,0,0.3-0.1,0.3-0.1s0,0,0.1,0.1c0.1,0,0.7-0.1,0.8-0.1c0,0,0.1-0.2,0.1-0.3c-0.3-0.1-0.8-0.2-0.8-0.2s-0.2,0.1-0.6,0.1
	s-0.9-0.2-1-0.4c-0.1-0.1-1.2-0.1-2-0.1c0,0.1,0,0.2,0.1,0.3C115.8,52.6,116.2,52.6,116.3,52.7z"/>
<path class="st0" d="M117.8,51.8C117.7,51.8,117.7,51.8,117.8,51.8C117.7,51.7,117.7,51.7,117.8,51.8
	C117.7,51.8,117.7,51.8,117.8,51.8C117.7,51.9,117.7,51.9,117.8,51.8C117.7,51.9,117.8,51.9,117.8,51.8
	C117.8,51.9,117.8,51.9,117.8,51.8C117.8,51.9,117.8,51.8,117.8,51.8z"/>
<path class="st0" d="M118.3,52.1C118.2,52.1,118.2,52.1,118.3,52.1C118.2,52.1,118.2,52.1,118.3,52.1L118.3,52.1c-0.1,0-0.1,0-0.2,0
	l0,0V52H118v0.1c0,0,0,0.1,0.1,0l0,0C118.1,52.1,118.1,52.2,118.3,52.1C118.1,52.2,118.2,52.2,118.3,52.1
	C118.3,52.2,118.3,52.2,118.3,52.1L118.3,52.1C118.3,52.2,118.3,52.1,118.3,52.1z"/>
<path class="st0" d="M119.3,52.1L119.3,52.1C119.3,52.1,119.2,52.1,119.3,52.1C119.2,52.2,119.2,52.2,119.3,52.1
	C119.3,52.2,119.4,52.1,119.3,52.1z"/>
<path class="st0" d="M119.8,52.1L119.8,52.1c-0.1,0-0.1,0-0.2,0h-0.1l0,0h-0.1l0,0c0,0,0,0.1,0.1,0.1l0,0c0,0,0,0.1,0.1,0
	L119.8,52.1L119.8,52.1L119.8,52.1C119.9,52.1,119.9,52.1,119.8,52.1z"/>
<path class="st0" d="M117.1,54.2C117.1,54.1,117,54.1,117.1,54.2L117.1,54.2l-0.2-0.1l0,0l0,0l0,0c0-0.1-0.1-0.2-0.2-0.1l0,0l0,0
	c0-0.1-0.1-0.1-0.1-0.1c-0.1,0.1-0.1,0.2-0.1,0.3c0,0,0,0.1,0.1,0.1s0.1,0,0.2,0c0,0.1,0.1,0.1,0.1,0.1s0.1,0,0.1-0.1c0,0,0,0,0.1,0
	C116.9,54.3,117,54.3,117.1,54.2C117.1,54.3,117.1,54.2,117.1,54.2z"/>
<path class="st0" d="M117.5,54.3C117.5,54.3,117.5,54.2,117.5,54.3C117.4,54.2,117.4,54.2,117.5,54.3
	C117.4,54.2,117.4,54.2,117.5,54.3C117.4,54.3,117.4,54.3,117.5,54.3C117.4,54.3,117.4,54.3,117.5,54.3
	C117.4,54.3,117.4,54.3,117.5,54.3C117.4,54.3,117.5,54.3,117.5,54.3L117.5,54.3z"/>
<path class="st0" d="M119.7,54.4C119.7,54.3,119.7,54.3,119.7,54.4C119.7,54.3,119.6,54.3,119.7,54.4
	C119.6,54.3,119.6,54.3,119.7,54.4c-0.1,0-0.2-0.1-0.3-0.1c0,0,0,0-0.1,0l0,0c0,0-0.1-0.1-0.1,0v0.1c0,0.1,0.1,0.1,0.1,0.1
	s0,0,0.1-0.1c0,0,0,0,0.1,0h0.1l0,0C119.5,54.4,119.6,54.5,119.7,54.4L119.7,54.4z"/>
<path class="st0" d="M120,54.2L120,54.2L120,54.2L120,54.2L120,54.2L120,54.2C120,54.2,119.9,54.2,120,54.2
	C119.9,54.2,119.9,54.2,120,54.2c-0.1-0.1-0.1-0.1-0.2,0v0.1c0,0,0,0.1,0.1,0.1c0,0,0,0,0.1,0C120,54.4,120,54.3,120,54.2
	C120.1,54.3,120,54.2,120,54.2z"/>
<path class="st0" d="M116.2,53.8C116.2,53.9,116.2,53.9,116.2,53.8C116.1,53.9,116.1,53.9,116.2,53.8c-0.1,0.2,0,0.2,0,0.2
	S116.2,54,116.2,53.8C116.3,53.9,116.3,53.9,116.2,53.8C116.3,53.8,116.2,53.8,116.2,53.8z"/>
<path class="st0" d="M116.1,53.9L116.1,53.9L116.1,53.9L116.1,53.9C116.1,53.8,116,53.8,116.1,53.9C116,53.8,116,53.8,116.1,53.9
	C116,53.8,116,53.8,116.1,53.9c-0.1-0.2-0.2-0.2-0.3-0.1v0.1c0,0,0,0,0.1,0V54C116,54,116,54,116.1,53.9L116.1,53.9L116.1,53.9
	L116.1,53.9z"/>
<path class="st0" d="M115.7,53.6C115.6,53.6,115.6,53.6,115.7,53.6C115.6,53.6,115.6,53.7,115.7,53.6L115.7,53.6L115.7,53.6
	l-0.1,0.2c0,0,0,0,0.1,0l0,0C115.7,53.7,115.7,53.6,115.7,53.6z"/>
<path class="st0" d="M116.7,37.9c-1-2.7-4.5-3.3-7-2.3c0,0-0.4,0.2-0.6,0.3c0,0,2.1-0.7,4.4,0.3c0.7,0.3,1.3,0.7,1.7,1.3
	c0.4,0.4,0.8,0.9,1.4,0.7C116.7,38,116.8,37.9,116.7,37.9z"/>
<path class="st0" d="M108.4,40.7L108.4,40.7c0.1,0.4,0.5,1.9,2.1,2.5c1.9,0.7,2.9,0.4,3.4,0.1c0.5-0.2,1.2-0.8,1.2-0.8L108.4,40.7z"
	/>
<path class="st0" d="M115.5,41.9c0,0-0.7-2.4-2.1-2.8c-0.7-0.2-1.8-0.4-3.1,0c-1.2,0.4-2.6,1.5-2.6,1.5L115.5,41.9z"/>
<path class="st0" d="M113.9,40.7c-1.3-0.4-2.4-0.7-4.6-0.2c-0.1,0,0,0.4,0.3,0.9c0,0,0,0,0-0.1c1.8-0.8,4.3-0.7,5.6,0.9
	c0.2-0.1,0.3-0.2,0.3-0.2S115.2,41.1,113.9,40.7z"/>
<path class="st0" d="M115,42.3c-1.2-1.1-3.6-1.5-4.8-0.3c0,0,0,0.1-0.1,0.1c0.3,0.3,0.7,0.5,1.2,0.7c1.6,0.3,2.6,0.3,3.2,0
	c0.2-0.1,0.5-0.2,0.7-0.3C115.1,42.4,115,42.4,115,42.3z"/>
<path class="st0" d="M109.7,41.4C109.6,41.5,109.6,41.5,109.7,41.4c0.1,0.3,0.2,0.5,0.4,0.6c0.1,0,0.1,0,0.1-0.1
	c1.2-1.2,3.6-0.8,4.8,0.3l0.1,0.1c0.1,0,0.1-0.1,0.2-0.1C114,40.8,111.4,40.6,109.7,41.4z"/>
<path class="st2" d="M109.7,41.4C109.6,41.5,109.6,41.5,109.7,41.4c0.1,0.3,0.2,0.5,0.4,0.6c0.1,0,0.1,0,0.1-0.1
	c1.2-1.2,3.6-0.8,4.8,0.3l0.1,0.1c0.1,0,0.1-0.1,0.2-0.1C114,40.8,111.4,40.6,109.7,41.4z"/>
<path class="st0" d="M112.7,41c-0.6,0-1,0.2-1.2,0.7c0.3,0.4,0.7,0.7,1.2,0.7s1-0.3,1.2-0.7C113.8,41.3,113.2,41,112.7,41z"/>
<path class="st0" d="M113.5,40.5c-0.7-0.3-1.4-0.3-2.1-0.3c-0.1,0.2-0.1,0.4-0.1,0.6c0,0.3,0.1,0.6,0.2,0.8c0.2-0.5,0.6-0.7,1.2-0.7
	c0.5,0,1.1,0.3,1.3,0.7c0.1-0.2,0.2-0.5,0.3-0.8C114,40.8,113.7,40.6,113.5,40.5z"/>
<path class="st0" d="M113,41.5c0,0.3-0.2,0.5-0.5,0.5s-0.5-0.2-0.5-0.5s0.2-0.5,0.5-0.5S113,41.3,113,41.5z"/>
<path class="st0" d="M113.3,41.3c0,0,0.1,0.1,0.2,0.3c0.1,0.3,0,0.5,0,0.5s0.4-0.3,0.2-0.6C113.5,41.1,113.3,41.3,113.3,41.3z"/>
<path class="st0" d="M113.2,41.3c0,0,0.1,0.3,0,0.6c-0.1,0.2-0.3,0.4-0.3,0.4s0.5,0,0.6-0.6C113.4,41.2,113.2,41.3,113.2,41.3z"/>
<path class="st0" d="M113.5,41.2c0.1-0.1,0.1-0.3,0.1-0.5v-0.1l0,0c-0.1-0.1-0.2-0.2-0.3-0.3c-0.2,0-0.5-0.1-0.7-0.1
	c-0.1,0-0.3,0-0.4,0c-0.1,0.1-0.1,0.3-0.1,0.4c0,0.1,0,0.3,0.1,0.4C112.5,40.9,113,40.9,113.5,41.2z"/>
<path class="st0" d="M112.8,41.6c0.3,0,0.5-0.1,0.7-0.4c-0.5-0.3-1-0.3-1.4-0.1C112.2,41.4,112.5,41.6,112.8,41.6z"/>
<circle class="st0" cx="113.5" cy="41.3" r="0.3"/>
<path class="st0" d="M112.9,40.9c0,0.1-0.1,0.2-0.2,0.2s-0.2-0.1-0.2-0.2c0-0.1,0.1-0.2,0.2-0.2S112.9,40.8,112.9,40.9z"/>
<path class="st2" d="M111.9,40.9C111.9,41,111.8,41,111.9,40.9c-0.2,0.1-0.2,0-0.2,0C111.7,40.8,111.8,40.8,111.9,40.9
	C111.8,40.8,111.9,40.9,111.9,40.9z"/>
<path class="st0" d="M116,42.5c-0.4-0.6-0.8-1.2-1.4-1.6c-0.3-0.2-2.1-1.5-5.1-0.7c-0.7,0.2-1.7,0.6-3,0.1c0.3,0.3,0.7,0.8,2.1,0.6
	c0.4,0.8,1,1.6,1.8,1.9c1.9,0.8,3.3,0.4,4,0c-0.5,0-2,0.4-3.5-0.4c-1.1-0.6-1.3-1.6-1.3-1.6c0.5-0.1,1.3-0.2,1.8-0.2
	c0.9,0,1.8,0.1,2.4,0.4C114.5,41.1,115.2,41.8,116,42.5z"/>
<path class="st0" d="M113,38.9c-1.3-0.3-3.1-0.1-4.1,0.9v0.1c0.6-0.2,1.2-0.5,1.8-0.7c0.7-0.2,1.5-0.2,2.2,0
	c1.2,0.3,2.3,1.1,2.9,2.2l0,0C115.4,40.1,114.3,39.2,113,38.9z"/>
<path class="st0" d="M117,37.4c-0.3-1.2-2.2-2.2-3.4-2.4c-1.6-0.2-3.4,0-4.7,0.9c1.7-0.7,3.2-0.8,3.9-0.6c2.4,0.4,3.1,1.5,3.5,2
	C116.8,38.3,117.1,37.9,117,37.4z"/>
<path class="st3" d="M40.7,181.2h-1.3c0.2-1.7,0.3-3,0.3-3.9c0-1.3-0.3-2.2-1-3c-0.7-0.7-1.6-1.1-2.7-1.1c-1.8,0-3.3,0.6-4.7,1.9
	c-1.3,1.3-2,2.7-2,4.4c0,0.9,0.2,1.6,0.5,2.3c0.4,0.7,1.2,1.7,2.4,2.9c2.3,2.2,3.8,4,4.5,5.3s1.1,2.5,1.1,3.7c0,1.8-0.5,3.5-1.6,5.1
	s-2.7,3-4.8,4.1s-4.3,1.6-6.7,1.6c-2.3,0-4.3-0.6-5.8-1.8s-2.4-2.5-2.4-3.8c0-0.7,0.2-1.3,0.6-1.8s0.9-0.7,1.4-0.7
	c0.6,0,1,0.2,1.4,0.7c0.2,0.3,0.5,0.8,0.7,1.8c0.3,1.1,0.6,1.9,1,2.4s0.9,0.9,1.6,1.2s1.4,0.5,2.2,0.5c2.3,0,4.4-0.8,6.1-2.4
	c1.7-1.6,2.6-3.3,2.6-5.2c0-0.7-0.1-1.3-0.3-1.9s-0.6-1.4-1.2-2.2c-0.4-0.6-1.3-1.5-2.7-2.9c-1.4-1.4-2.3-2.3-2.6-2.8
	c-0.5-0.7-0.9-1.5-1.1-2.2s-0.4-1.5-0.4-2.2c0-1.5,0.5-3,1.5-4.5s2.3-2.7,3.9-3.6c1.6-0.9,3.4-1.3,5.4-1.3c1,0,2.3,0.2,3.7,0.5
	c0.8,0.2,1.6,0.3,2.2,0.4c-0.4,1.1-0.6,2.1-0.8,3C41.3,176.5,41,178.4,40.7,181.2z"/>
<path class="st3" d="M67.5,186.1l-1.1-0.8c1.6-1.8,3.1-3.1,4.5-3.8c1.3-0.8,2.5-1.1,3.4-1.1c0.5,0,0.9,0.1,1.2,0.3
	c0.3,0.2,0.4,0.5,0.4,0.9c0,0.5-0.5,2.5-1.6,6c-1.7,5.8-2.6,9.3-2.6,10.4c0,0.2,0.1,0.4,0.2,0.6c0.1,0.2,0.2,0.2,0.4,0.2
	c0.5,0,1.9-1,4-3l1,0.9c-2.2,2.1-3.9,3.4-4.9,4s-1.9,0.9-2.5,0.9s-1-0.2-1.4-0.5c-0.3-0.4-0.5-0.9-0.5-1.5c0-2,1.2-7,3.7-14.9
	c0.1-0.4,0.2-0.7,0.2-1s-0.1-0.5-0.4-0.5s-0.7,0.1-1.1,0.4C69.8,183.9,68.9,184.7,67.5,186.1z M77.1,170c0.5,0,0.9,0.2,1.2,0.5
	c0.3,0.3,0.5,0.8,0.5,1.3c0,0.7-0.2,1.3-0.7,1.9c-0.5,0.5-1.1,0.8-1.7,0.8c-0.5,0-0.9-0.2-1.2-0.5c-0.3-0.3-0.5-0.8-0.5-1.3
	c0-0.7,0.2-1.4,0.7-1.9C75.8,170.2,76.4,170,77.1,170z"/>
<path class="st3" d="M107.1,201h-3.6l1.7-6.6c0.8-3.2,1.6-6.3,2.2-9.2c0.1-0.7,0.2-1.2,0.2-1.3c0-0.4-0.2-0.6-0.5-0.6
	c-0.2,0-0.6,0.2-1.1,0.5s-1.4,1.2-2.7,2.5l-0.8-0.9c1.6-1.7,3.1-2.9,4.7-3.8s2.7-1.3,3.6-1.3c0.3,0,0.5,0.1,0.7,0.2
	c0.2,0.1,0.3,0.3,0.3,0.5s-0.1,0.8-0.3,1.7l-1.1,4.4c1.6-2.6,3.5-4.8,5.6-6.7c1-0.9,1.8-1.3,2.5-1.3c0.5,0,0.9,0.2,1.2,0.5
	c0.3,0.3,0.5,0.7,0.5,1.1c0,0.4-0.2,0.8-0.5,1.1s-1.1,0.7-2.4,1.1c-1.2,0.4-2.2,0.9-2.9,1.5c-0.8,0.6-1.6,1.4-2.5,2.6
	c-0.9,1.2-1.5,2.2-1.9,3.1c-0.4,0.9-0.9,2.9-1.6,6.1L107.1,201z"/>
<path class="st3" d="M154.3,194.9l0.8,1.1c-4,3.8-7.4,5.7-10.3,5.7c-1.2,0-2-0.4-2.6-1.2s-0.9-2-0.9-3.8c0-3.5,1.1-7,3.2-10.4
	c2.4-3.9,5.2-5.9,8.5-5.9c1.2,0,2,0.3,2.6,0.9c0.6,0.6,0.9,1.4,0.9,2.4c0,1.1-0.4,2.1-1.1,3.1s-2,2.1-3.9,3.2
	c-0.9,0.5-3,1.5-6.1,2.9c-0.1,0.9-0.2,1.7-0.2,2.5c0,1.2,0.2,2,0.5,2.4c0.4,0.5,0.9,0.7,1.6,0.7c0.7,0,1.4-0.2,2.2-0.6
	C150.6,197.4,152.2,196.4,154.3,194.9z M145.7,191.3c2.6-1.2,4.6-2.4,5.9-3.8c0.9-0.9,1.3-1.9,1.3-2.8c0-0.7-0.2-1.3-0.5-1.7
	c-0.4-0.4-0.8-0.6-1.4-0.6c-0.6,0-1.2,0.2-1.8,0.7c-0.8,0.6-1.4,1.5-1.9,2.7C146.5,187.6,146,189.5,145.7,191.3z"/>
<path class="st3" d="M183.1,186.2l-0.8-0.9c2.1-2,3.7-3.3,5-4s2.3-1,3.2-1c0.3,0,0.6,0.1,0.8,0.2s0.3,0.3,0.3,0.5
	c0,0.1,0,0.4-0.1,0.8l-1.1,4.9c1.7-1.8,3.7-3.6,6.2-5.2c1.3-0.8,2.4-1.2,3.3-1.2c0.6,0,1.1,0.2,1.5,0.6s0.5,1,0.5,1.8
	c0,0.5-0.1,1.1-0.2,1.7c-0.3,1.1-0.9,3.4-2,6.9c-1,3.3-1.6,5.5-1.6,6.6c0,0.3,0,0.6,0.1,0.8s0.2,0.3,0.4,0.3c0.5,0,1.2-0.5,2.2-1.4
	c0.7-0.7,1.4-1.3,2.1-1.8l0.6,0.9c-1.5,1.7-3.1,3-4.7,4c-1,0.6-1.9,1-2.5,1s-1.1-0.2-1.4-0.7s-0.5-1.2-0.5-2.2
	c0-1.4,0.9-5.1,2.7-10.8c0.6-2.1,0.8-3.2,0.8-3.6c0-0.5-0.3-0.8-0.9-0.8c-0.7,0-1.5,0.3-2.5,1c-1.5,1-2.8,2.2-3.8,3.6
	c-0.7,0.9-1.2,2.3-1.6,4.2l-2,8.5h-3.6c0.7-2.4,1.3-4.8,1.8-7l2.2-9.3c0.1-0.4,0.1-0.6,0.1-0.8c0-0.4-0.2-0.7-0.5-0.7
	s-0.6,0.2-1.1,0.5C184.9,184.4,184,185.2,183.1,186.2z"/>
<path class="st3" d="M245.9,180l1.6-0.3l-1.8,6.2c-0.7,2.5-1.4,5.3-2.1,8.5c-0.4,1.7-0.5,2.9-0.5,3.4s0.2,0.8,0.6,0.8
	c0.3,0,0.7-0.2,1.2-0.5c1-0.6,2-1.4,2.9-2.2l0.8,1c-1.9,1.7-3,2.7-3.6,3.1c-1,0.7-2,1.2-3,1.6c-0.6,0.2-1.2,0.3-1.8,0.3
	c-0.4,0-0.7-0.1-1-0.3c-0.2-0.2-0.3-0.5-0.3-0.9c0-0.2,0.1-0.6,0.2-1l1-3.3c-1.4,1.7-3.1,3.1-5,4.3c-1.2,0.7-2.3,1.1-3.3,1.1
	c-0.9,0-1.7-0.3-2.2-1c-0.7-0.9-1-2.1-1-3.5c0-1.7,0.5-3.6,1.4-5.8c0.9-2.1,2.2-4,3.7-5.8c1.5-1.7,3.2-3,4.9-3.8
	c1.3-0.6,3-0.9,5.1-0.9c0.5,0,1,0,1.6,0.1L245.9,180z M242.9,183.8c-0.9-0.2-1.6-0.3-2.2-0.3c-1.5,0-2.7,0.4-3.8,1.2s-2.1,2.3-3,4.3
	c-0.9,2.1-1.4,4.2-1.4,6.3c0,1.1,0.2,1.9,0.6,2.4c0.4,0.5,0.9,0.7,1.5,0.7c1.1,0,2.3-0.6,3.6-1.8s2.2-3,2.8-5.2L242.9,183.8z"/>
<path class="st0" d="M93.2,102.1c-21.2,7.3-25.4-15-20-20.4C73.2,81.7,97.2,100.7,93.2,102.1z"/>
<path class="st0" d="M120.9,88.6c1.6,22.3-21,20.7-24.8,14.1C96.1,102.7,120.6,84.3,120.9,88.6z"/>
<path class="st4" d="M70.7,87.3c6.7-9.7,5.7-9.7,1.3-14.5"/>
<rect x="93.8" y="98.8" transform="matrix(0.2096 -0.9778 0.9778 0.2096 -24.6445 173.8325)" class="st0" width="2.7" height="6.7"/>
</svg>
