<?xml version="1.0" encoding="utf-8"?>
<!-- Generator: Adobe Illustrator 24.2.3, SVG Export Plug-In . SVG Version: 6.00 Build 0)  -->
<!DOCTYPE svg PUBLIC "-//W3C//DTD SVG 1.1//EN" "http://www.w3.org/Graphics/SVG/1.1/DTD/svg11.dtd" [
	<!ENTITY ns_extend "http://ns.adobe.com/Extensibility/1.0/">
	<!ENTITY ns_ai "http://ns.adobe.com/AdobeIllustrator/10.0/">
	<!ENTITY ns_graphs "http://ns.adobe.com/Graphs/1.0/">
	<!ENTITY ns_vars "http://ns.adobe.com/Variables/1.0/">
	<!ENTITY ns_imrep "http://ns.adobe.com/ImageReplacement/1.0/">
	<!ENTITY ns_sfw "http://ns.adobe.com/SaveForWeb/1.0/">
	<!ENTITY ns_custom "http://ns.adobe.com/GenericCustomNamespace/1.0/">
	<!ENTITY ns_adobe_xpath "http://ns.adobe.com/XPath/1.0/">
]>
<svg version="1.1" id="Слой_1" xmlns:x="&ns_extend;" xmlns:i="&ns_ai;" xmlns:graph="&ns_graphs;"
	 xmlns="http://www.w3.org/2000/svg" xmlns:xlink="http://www.w3.org/1999/xlink" x="0px" y="0px" viewBox="0 0 1600 1600"
	 style="enable-background:new 0 0 1600 1600;" xml:space="preserve">
<style type="text/css">
	.st0{fill:#FFFFFF;}
	.st1{opacity:0.4;fill:#FFFFFF;enable-background:new    ;}
	.st2{opacity:0.1;}
	.st3{opacity:0.1;enable-background:new    ;}
</style>
<metadata>
	<sfw  xmlns="&ns_sfw;">
		<slices></slices>
		<sliceSourceBounds  bottomLeftOrigin="true" height="1351.8537598" width="1600" x="0" y="-1475.9268799"></sliceSourceBounds>
	</sfw>
</metadata>
<g>
	<rect x="59.3669777" y="124.0731201" class="st0" width="324.7648621" height="799.1135864"/>
	<path d="M174.5545197,467.2360229c1.599823,5.5993958,1.599823,10.3988647,2.3997345,15.9982605
		c0.7999115,13.5985413,10.3988647,27.9969788,14.3984375,39.995697c3.9995575,11.1987915,6.399292,21.5975952,2.3997345,33.5963135
		c-2.3997345,7.1992188-5.599411,14.3984375-7.1992188,21.5976563c-3.9995728,3.9995728-7.1992188,7.1992188-9.5989685,11.9986572
		c-6.3993073,11.1988525-10.39888,23.9974365-15.1983643,35.9961548
		c-5.5993958,13.5985107-12.7986145,26.3971558-19.1979065,39.1957397c-5.599411,11.9987183-6.3993073,25.597229-10.39888,38.395874
		c-3.9995575,12.798584-7.9991302,25.597229-11.1987839,39.1958008c-0.7999115,3.199646-1.599823,6.399292-2.3997421,9.598938
		c-0.7999115,3.9995728-1.599823,2.3997192-3.199646,5.5993652c-1.5998306,3.9995728-1.5998306,7.9991455-2.3997421,12.798584
		v-0.7999268c0,4.7994995-2.3997421,9.598938-3.9995651,13.5985107c-1.5998306,4.7994995,2.3997345,8.7990723,5.5993881,11.9987183
		s8.7990494,4.7994995,7.9991379,9.598938c-0.7999191,5.5993652-0.7999191,10.3989258-0.7999191,15.998291
		c-0.7999191,4.7994385-0.7999191,9.598938-2.3997421,14.3984375c-2.3997421,3.9995728-4.7994843,7.1992188-5.5993958,11.9987183
		c-0.7999115,7.1992188-7.9991302,15.1983643-13.598526,20.7977295
		c-3.9995651,3.9995728-21.5976563,11.9987183-8.7990494,16.7981567c8.7990494,3.199707,17.5980988,4.7994995,27.197052,3.9995728
		c3.9995728,0,7.9991379-3.199646,11.1987839-5.5993652c3.9995728-3.199646,3.9995728-7.1992188,3.9995728-11.9987183
		c0-8.7990112,1.5998383-16.7981567,1.5998383-25.597168c0-10.3989258,3.199646-19.9978638,7.1992188-28.796875
		c1.599823-3.9995728,3.199646-8.7990723,4.7994843-13.5985107c3.9995575,0,9.5989532-0.7999268,10.3988647-5.5993652
		c1.599823-4.7994995,1.599823-10.3989258,1.599823-15.998291c1.5998383-5.5993652,3.1996613-10.3988647,5.599411-15.99823
		c3.9995575-11.1988525,7.1992188-21.5976563,9.5989685-32.7964478c2.3997345-11.9987183,4.7994843-23.9974365,7.1992188-35.9961548
		c0.7999115-5.5993652,5.5993958-9.598938,8.7990417-14.3984375c3.1996613-4.7994995,6.3993073-9.598938,9.5989685-15.1983643
		c5.599411-9.598938,12.7986298-16.7981567,19.9978333-23.9974365c3.9995728-4.7994385,12.7986298-14.3984375,19.1979218-14.3984375
		c0,23.9973755-7.1992188,46.3950195-7.9991302,70.392395c0,10.3989258,0.7999115,20.7977295,0.7999115,31.1966553
		c0,10.3988647-3.199646,19.9978027-3.199646,30.3967285c-0.7999115,11.1987915,0.7999115,22.397583,0.7999115,34.3963013
		c0,7.1992188-5.5993958,24.7973022-1.599823,30.3967285c1.599823,2.3997803,3.9995575,3.9995728,5.5993958,5.5993652
		c0,2.3997803,0,4.7994995,0,7.1992798c0,6.399292,0.7999115,11.9986572,0,18.3980103
		c0,6.399353-1.5998383,10.3988647-3.199646,15.998291c-0.7999268,2.3997192,0.7999115,7.9990845,0,8.7990112
		c-1.5998383,1.5997925-1.5998383,11.1987915-2.3997345,13.5985107c-1.5998383,3.9995728-3.9995728,7.9991455-4.7994843,11.9987183
		c-3.1996613,13.5985107,8.7990417,11.9986572,17.5980988,11.9986572c5.5993958,0,23.997406,0,19.1979065-11.1987915
		c-3.9995422-7.9991455-6.399292-15.1983643-7.1992035-24.7973022c-1.5998383-11.1987915-3.199646-19.9978027,0-31.1966553
		c1.5998383-4.7994385,3.1996613-9.598938,3.999588-15.1983643c0.7998962-4.7994385,4.799469-3.9995728,8.7990417-4.7994385
		c2.3997192-0.7999268,9.5989685-1.5997925,10.3988647-3.9995728c1.599823-3.199646,2.3997192-7.1992188,3.199646-10.3989258
		c0.7999268-7.1992188,0.7999268-15.1983643,0-22.397583c0-0.7998657-2.3997192-3.199646-2.3997192-3.199646
		c0.7998962-3.199707,0.7998962-6.399353,0.7998962-9.598938c0.7998962-6.399353,0.7998962-13.5985107,0.7998962-20.7977295
		c0.7998962-13.5985107,0.7998962-27.9970093,1.5998535-41.59552c1.599823-26.3971558,11.1987915-50.3945313,15.9982605-75.1918335
		c3.1996765-14.3984985,4.799469-28.796875,4.799469-43.1953735c-1.599823-12.798584-5.5993958-25.597168-9.5989685-37.5958862
		c-0.7998962-3.199707,0-5.5993652-1.599823-8.7990723c-0.7999268-2.3997192-1.5998535-5.5993652-2.3997498-7.9990845
		c0-4.7994995-2.3997192-9.598938-3.9995728-14.3984985c-3.199646-8.7990112-7.999115-15.1983643-12.798584-23.1975098
		c-3.9995728-7.1992188-11.198822-22.3975525-5.5994263-30.396698c6.3993225-9.5989685,3.9995728-20.7977295,0-31.1966248
		c-3.9995422-10.3988647-8.7990112-19.9978333-7.999115-31.1966553c1.599823-7.999115,3.9995728-5.5993958,11.1987915-4.799469
		c6.399292,0.7999268,11.9987183,0.7999268,18.3980103,0c6.399292-0.7998962,12.7986145-1.599823,18.3980103-3.9995422
		c4.799469-2.3997498,7.1992188-8.7990417,9.5989685-12.7986145c5.5993958-10.3988647,9.5989685-22.397583,13.5985107-33.5963745
		c3.9995728-12.7986145,7.9991455-25.597229,13.5985413-37.5959473c1.5998535-3.199646,2.3997498-3.199646,5.5993958-3.9995728
		c1.5998535-1.599823,3.9995728-3.9995422,4.799469-6.399292c2.3997498-3.9995728,3.9995728-10.3988647,8.7990417-9.5989685
		c-4.7994995,7.1992188,6.3993225,6.399292,6.3993225,3.199646c0-4.799469,5.5993958-3.1996765,8.7990112-4.799469
		c3.1996765-1.599823-2.3997192-7.1992493-3.9995728-9.5989685c-2.3997192-5.5993958-6.399292-1.599823-8.7990112-4.799469
		c2.3997192-3.9995728,15.9982605-16.7981873,11.9986877-21.5976868
		c-11.1987915,12.7986145-23.997406,23.1975098-33.5963745,37.5959473
		c-8.7990417,12.7986145-18.3980103,24.7973022-26.3971252,37.5959473
		c-8.7990417,13.5985413-15.9982605,28.796875-20.7977295,44.7951355c-1.5998535,4.799469-3.9995728,2.3997498-8.7990417,2.3997498
		c-3.1996765,0-6.3993225-0.7999268-9.5989685-1.5998535c-5.5993958-1.599823-10.3988647-5.5993958-16.7981873-6.399292
		c0-0.7998962,3.1996765-3.1996765,2.3997498-3.9995728c-2.3997498-1.599823-5.5993958-3.9995728-5.5993958-7.1992188
		c3.199646,6.399292,7.1992188,5.5993958,12.798584,1.599823c-7.999115,0-9.5989685-9.5989685-7.999115-15.9982605
		c0.7998962,3.199646,1.599823,7.1992188,4.799469,8.7990417c0-7.1992493-3.9995728-13.5985413-4.799469-20.79776
		c0-7.999115,2.3997192-16.7981567,0.7998962-23.997406c-1.5998535-6.399292-5.5993958-11.1987915-11.1987915-14.3984375
		c-2.3997345-1.599823-4.7994843-3.9995422-7.1992188-6.399292c-3.199646,0-6.3993073-0.7998962-9.5989685-0.7998962
		c-7.1992188-6.399292-10.3988647-6.399292-18.397995-1.599823c-5.599411,3.199646-13.5985413,11.9986877-19.1979218,12.798584
		c-4.7994843,0-2.3997345,2.3997498-3.9995728,7.1992493c-0.7999115,2.3997192-3.199646,3.9995422-4.7994843,4.799469
		c-3.9995728,1.599823-8.799057,1.599823-13.5985413,2.3997192c4.7994843,0,9.5989685,0.7998962,14.3984375-0.7998962
		c-3.199646,3.9995728-11.1987762,7.9991455-15.198349,3.9995728c2.3997345,2.3997192-0.7999115,3.9995728,3.199646,5.5993958
		c1.5998383,0.7998962,3.1996613,0.7998962,5.599411,0c-0.7999268,2.3997192-4.7994843,2.3997192-6.3993073,1.599823
		c0.7999115,0,1.5998383,0,2.3997345,0c0,0-5.5993958-0.7998962-4.7994843-0.7998962s1.5998383,0,1.5998383,0.7998962
		c-3.1996613,0-6.3993073-3.9995728-5.599411,2.3997498c2.3997345,2.3997192,6.3993073,2.3997192,9.5989685,2.3997192
		c-3.199646,0.7998962-6.399292,1.5998535-9.5989685,0c0.7999268,2.3997498,1.5998383,4.799469,3.9995728,6.3993225
		c-2.3997345,0,2.3997345,2.3997192,1.5998383,3.199646c-1.5998383,0-2.3997345,0-3.9995728,0
		c0.7999115,0,1.5998383,0.7998962,1.5998383,1.5998535c-2.3997345,0.7998962-3.9995728,0-6.3993073,0.7998962
		c3.9995728,3.9995728,9.5989685-2.3997498,12.7986145,0.7998962c-1.599823,3.9995728-7.9991302,7.1992188-11.998703,9.5989685
		c2.3997345,0,4.7994843-1.599823,6.3993073-0.7998962c-0.7999115,3.199646-3.199646,0.7998962-5.5993958,2.3997192
		c0,1.5998535,4.7994843,6.3993225,4.7994843,6.3993225c1.599823,0.7998962,10.3988647-0.7999268,10.3988647-0.7999268
		c-2.3997345,1.5998535-7.1992188,4.799469-9.5989685,1.5998535c0,0.7998962,0,1.599823,0,2.3997192
		c-5.5993958-3.199646-11.998703-3.9995728-16.7981873-7.999115c-3.9995575-3.1996765-7.9991302-7.1992493-11.998703-11.198822
		c-6.399292-6.399292-11.998703-12.798584-15.9982605-21.5976563c-8.799057-19.197937-28.7968903-27.9969788-43.1953278-42.3954163
		c-6.3993073-6.399292-15.9982681-11.1987915-19.9978409-19.9978333
		c-2.3997383-6.399292-10.3988724-14.3984375-17.5980911-12.7986145c-2.3997421,0.7998962-7.9991341-3.9995575-10.3988762-5.5993958
		c-3.9995689-2.3997345-7.999136-3.9995575-11.998703-5.5993958c-6.3993073-3.199646-21.5976639-11.998703-24.7973175-7.9991302
		c-2.3997405,6.399292,20.7977505,14.3984375,27.1970596,19.1979218
		c-3.1996555,1.5998535-10.3988762,2.3997498-11.1987896,6.3993225c-0.7999058,6.399292-2.3997326,8.7990112-0.7999058,11.9986877
		c0.7999134,1.599823,2.3997402,3.1996765,3.1996555,4.799469c-1.5998287,0.7998962-2.3997402,1.599823-2.3997402,3.1996765
		c0.7999115,2.3997192,2.3997402,3.9995728,3.999567,4.799469c4.7994823,3.9995728,7.9991341-1.5998535,12.7986164,0.7998962
		c4.7994804,2.3997192,9.5989647,5.5993958,15.1983566,7.1992188c5.5993919,1.5998535,10.3988762-0.7998962,15.1983528,2.3997498
		c14.3984451,19.9978333,27.197052,42.3954163,47.9948044,55.993927
		c8.799057,10.3988953,15.9982758,21.5976868,24.7973251,31.9965515
		c7.9991302,9.5989685,18.3980103,15.1983643,23.1974792,27.1970825c3.1996613,7.1992188,4.7994843,13.5985107,9.5989685,20.7977295
		 M184.1534882,329.6508789c0-0.7998962,0.7999115-1.599823,0.7999115-2.3997192
		C185.7532959,328.0510559,184.9533997,329.6508789,184.1534882,329.6508789L184.1534882,329.6508789z M180.9538269,357.6478577
		c-1.599823,3.1996765-4.7994843,4.799469-7.9991302,2.3997498
		C175.3544312,359.2476807,178.5540771,357.6478577,180.9538269,357.6478577L180.9538269,357.6478577z M184.1534882,326.4512329
		C184.1534882,326.4512329,183.3535614,326.4512329,184.1534882,326.4512329z M184.9533997,325.6513062
		c-0.7999115-0.7998962,0.7999115-0.7998962,0.7999115-1.599823
		C186.5532227,324.8513794,184.9533997,325.6513062,184.9533997,325.6513062L184.9533997,325.6513062z M274.5437012,821.5976563
		c0,2.3997192,2.3997498,8.7990112,0,9.598938C275.3436279,827.9969482,274.5437012,824.7973022,274.5437012,821.5976563
		L274.5437012,821.5976563z M275.3436279,817.5980835C276.1435242,815.998291,275.3436279,819.197937,275.3436279,817.5980835z
		 M275.3436279,800c3.9995422,3.199646,1.599823,9.598938,0.7998962,15.1983643
		C276.1435242,809.598938,273.7437744,806.399353,275.3436279,800L275.3436279,800z M288.1422119,557.6262207
		c1.5998535,0.7998657,1.5998535,3.199646,0.7998962,5.5993652
		C288.1422119,560.8258667,288.1422119,559.2260742,288.1422119,557.6262207L288.1422119,557.6262207z M287.3423157,556.8262939
		C287.3423157,557.6262207,287.3423157,556.8262939,287.3423157,556.8262939z M286.5424194,551.2269287
		C285.7424927,548.8271484,287.3423157,553.6266479,286.5424194,551.2269287z M256.1456909,379.2455139
		c0.7998962,0,0.7998962,0.7999268,2.3997192,0.7999268C257.7455139,380.8453369,255.3457794,380.0454407,256.1456909,379.2455139
		L256.1456909,379.2455139z M257.7455139,318.4520874C257.7455139,318.4520874,258.5454407,319.2520142,257.7455139,318.4520874z
		 M248.1465607,371.2463989C248.9464722,369.6465759,248.9464722,372.0462952,248.1465607,371.2463989z M248.1465607,378.4455872
		C248.9464722,379.2455139,247.3466492,376.0458679,248.1465607,378.4455872z M248.9464722,368.0467224
		C249.7463837,366.4468994,249.7463837,369.6465759,248.9464722,368.0467224z M248.9464722,369.6465759
		C248.9464722,368.0467224,248.9464722,371.2463989,248.9464722,369.6465759z M248.1465607,371.2463989
		c0.7999115,1.599823,0,3.9995728,0,5.5993958C246.5467224,376.0458679,248.1465607,373.6461182,248.1465607,371.2463989
		L248.1465607,371.2463989z M114.5610046,770.4031982L114.5610046,770.4031982z M111.361351,786.4014893
		c-0.7999115-4.7994385,2.3997421-7.9991455,2.3997421-11.9987183
		C114.5610046,777.602417,112.1612701,783.2018433,111.361351,786.4014893L111.361351,786.4014893z M115.3609238,769.6032715
		c0-3.199646,1.599823-6.399353,2.3997421-8.7990723C118.5605698,763.2039795,116.9607468,767.2035522,115.3609238,769.6032715
		L115.3609238,769.6032715z M228.1487274,294.4546814C225.7489777,294.4546814,229.7485352,295.2546082,228.1487274,294.4546814z
		 M188.1530457,388.8444519C188.1530457,387.2446594,188.1530457,390.4443054,188.1530457,388.8444519z M184.1534882,386.4447327
		c2.3997345,0,4.7994843-1.599823,7.1992188-0.7998962C190.5527802,390.4443054,186.5532227,386.4447327,184.1534882,386.4447327
		L184.1534882,386.4447327z M184.1534882,378.4455872C184.9533997,377.6456909,182.5536499,380.0454407,184.1534882,378.4455872z
		 M180.9538269,380.8453369c0-1.5998535,1.5998383-0.7998962,2.3997345-1.5998535
		C183.3535614,379.2455139,181.7537384,380.8453369,180.9538269,380.8453369L180.9538269,380.8453369z"/>
	<rect x="59.3669777" y="923.1867065" class="st1" width="324.7648621" height="552.7401733"/>
	<rect x="447.3250122" y="124.0731201" class="st0" width="324.7648621" height="799.1135864"/>
	<rect x="447.3250122" y="923.1867065" class="st1" width="324.7648621" height="552.7401733"/>
	<path d="M744.0928955,200.8648224c-0.7999268-3.9995728-4.7994385-1.5998383-5.5993652-4.7994843
		c-3.199646,0-4.7994995-5.599411-8.7990112-3.9995728c-2.3997803-1.5998383-5.5994263,0-7.1992798,0.7999115
		c-0.7998657-1.599823-2.3997192-2.3997345-3.9995728-2.3997345c-2.3997192,0.7999268-0.7998657,3.9995728-1.5997925,5.599411
		c-0.7998657,7.1992188-1.5997925,15.9982605,0.7999268,23.1974792c-1.5997925,9.5989685-3.9995728,19.9978333-7.1992188,28.7968903
		c-9.598938,19.1979065-12.798645,40.7955933-24.7973633,58.3937073c-2.3997192,14.398407-12.798584,25.597229-19.197876,37.5959167
		c-0.7999268,1.5998535-1.5998535,3.1996765-2.3997803,5.5993958v-0.7998962
		c-0.7999268,1.5998535-2.3997803,3.1996765-3.9995728,3.1996765c-1.5997925-1.599823-3.9995728-2.3997498-4.7994995-3.9995728
		l1.5998535-0.7998962h-0.7999268c-0.7999268-0.7998962,0-0.7998962,0-1.599823h-2.3997803
		c-1.5997925-2.3997498-1.5997925-4.799469-2.3997803-7.9991455c-1.5997925-4.799469-6.399292-5.5993958-10.3988647-5.5993958
		c-6.399353-1.5998535-2.3997803-8.7990417-5.5993652-12.7986145c-3.9995728-2.3997192-3.199707-7.9991455-6.399353-11.9986877
		c-2.3997803-2.3997498-6.399353-2.3997498-8.7990112-1.5998535c-2.3997803-0.7998962-0.7999268-4.799469-3.199707-6.399292
		c-2.3997192-0.7998962-4.7994385,0-6.399292,0.7998962c-3.9995728,2.3997498-4.7994995-4.799469-7.9991455-4.799469
		c-3.9995728-0.7998962-7.1992188,2.3997498-9.598938,3.9995728c0,0-0.7999268,0-0.7999268-0.7998962
		c-0.7998657-1.599823-0.7998657-2.3997498-0.7998657-3.9995728h-0.7999268
		c-0.7998657-0.7998962-0.7998657-1.599823-1.5997925-0.7998962c0,1.599823,0,3.1996765-1.5997925,4.799469
		c-1.5997925,1.599823-3.199646,1.599823-4.7994995,0.7998962c-4.7994385-1.599823-10.3988647,0-13.5985107,3.9995728
		c-3.9995117,0.7998962-6.399292,3.9995728-9.598938,5.5993958c-3.9995117,1.599823-3.9995117,6.399292-5.5993652,10.3988647
		c-0.7998657,0-0.7998657,0-1.5997925,0c-7.9991455-14.3984375-14.3984375-29.5968018-19.197937-45.5950623
		c-3.199646-10.3988647,7.9991455-15.998291,9.598938-25.5972443c1.5997925-3.9995728-1.5997925-6.3993073-3.199646-9.5989685
		c-1.5997925-3.9995728,0-8.799057-3.199646-11.998703c-3.199707,0.7999115-3.199707-3.199646-6.399353-3.199646
		c-1.5997925,0.7999115-1.5997925,2.3997345-1.5997925,3.199646c-2.3997803,0.7999115-3.9995728,3.9995728-6.399353,5.5993958
		l0.7999268,0.7999268c0,3.9995575-2.3997803,7.1992188-1.5997925,11.1987762
		c-7.1992798,11.1987915,0.7998657,23.9974213,0.7998657,35.996109c0,23.1975098,5.5993652,43.195343,9.598938,63.9930725
		c3.199646,8.7990417,11.1987915,15.1983643,15.1983643,23.997406c7.1992188,15.1983643,14.3984985,30.396698,24.7973022,43.195343
		c0.7999268,2.3997498,5.5993652,3.1996765,3.199707,5.5993958c-3.9995728,7.1992493-8.7990723,13.5985413-12.798645,20.7977295
		c-7.9991455,13.5985413-1.5997925,31.1966553,1.5997925,44.795166c0.7999268,8.7990417,0,17.5980835-1.5997925,25.597229
		c-2.3997803,0.7998962,0,3.1996765-1.5997925,4.799469c-0.7999268,8.7990112-8.7990112,13.5985107-12.798584,20.7977295
		c-0.7999268,2.3997803,1.5997925,2.3997803,1.5997925,3.9995728c-0.7999268,2.3997803-3.199646,3.9995728-1.5997925,6.399353
		c-0.7999268,6.399292-6.399353,11.1987915-5.5993652,19.197937c-0.7999268,2.3997192-2.3997803,4.7994385-2.3997803,7.1992188
		c-4.7994995,7.9991455-6.399353,17.5980835-7.9991455,27.1970825c-0.7998657,22.397583-3.199646,44.795105-2.3997803,66.3928223
		c-1.5997925,13.5985107-2.3997192,30.3967285,0,43.9952393c3.9995728,12.798584,5.5993652,27.1970825,11.1988525,39.9956665
		c-0.7999268,20.7977295,0.7998657,40.7955933,0.7998657,62.3933105c0.7999268,7.1992188,3.199646,13.5984497,6.399353,19.9978027
		c-2.3997803,7.9991455-6.399353,14.3984985-7.1992188,22.397583c-3.199707,8.7990723,4.7994385,14.3984985,5.5993652,21.5976563
		c-0.7999268,1.5997925-2.3997803,1.5997925-3.199707,2.3997803c-1.5997925,1.5997925-0.7998657,3.9995728,0.7999268,4.7994385
		c4.7994385,3.199707,9.598938,0.7999268,15.1983643,2.3997803c0,7.9991455,1.5997925,15.1983643,3.9995728,21.5976563
		c5.5993652,1.5997925-2.3997803,2.3997803-1.5997925,5.5993652c-0.7999268,2.3997803,0,4.7994385,2.3997192,6.399353
		c5.5993652,2.3997192,13.5985107,1.5997925,19.9978638,0.7998657c9.598938-3.199646,20.7977295-2.3997803,28.796875-7.9991455
		c-0.7999268-2.3997192,0.7999268-3.9995728,0.7999268-5.5993652c0-4.7994385,4.7994385-2.3997192,6.399292-4.7994385
		c1.5997925,0,3.199646-2.3997803,4.7994995-1.5997925c0.7998657,2.3997192-0.7999268,3.9995728-0.7999268,5.5993652
		c0,0.7998657,0.7999268,0.7998657,1.5997925,0.7998657c2.3997803,0,4.7994995,0.7999268,6.399353-1.5997925l-1.5997925-3.199646
		c-1.5997925-6.399353,5.5993652-7.1992188,7.9991455-10.3989258c0-0.7998657,0-1.5997925,0-2.3997803
		c-7.9991455-11.9986572-4.7994995-27.9969482-7.9991455-41.595459
		c-1.5997925-14.3984375-7.9991455-26.3971558-10.3989258-39.9956665
		c-0.7998657-11.9987183-2.3997803-23.1975098-8.7990112-31.996521l-3.1997681-8.7992554
		c-1.5997925-7.9990845,0-16.7981567-3.9995117-23.1975098c-5.5994263-5.5993652-5.5994263-13.5984497-9.598938-19.9978027
		c1.5997925-3.9995728,3.9995117-7.9991455,4.7994385-12.798584c3.9995728-6.399353,7.1992188-13.5985107,10.3989258-19.9978638
		c11.9986572-19.197937,22.397583-39.9956665,31.1965942-61.5933228c0.7999268-3.9995728,3.9995728-7.9991455,2.3997803-11.9986572
		c3.199646-7.1992798,0.7999268-15.1984253,1.5997925-23.9974365c1.5997925-17.5980835-7.9991455-31.996521-8.7990112-49.5946045
		c-1.5997925-11.1987915,5.5993652-19.9978638,8.7990112-29.5968018
		c4.7994995-15.9982605,9.598938-31.1966248,14.3984985-47.1948853c0.7998657-2.3997192,0.7998657-4.799469,1.5997925-7.1992188l0,0
		h0.7998657c1.5998535,3.199646-1.5997925,6.399292-0.7998657,10.3988647h0.7998657
		c7.1992798-1.5998535,5.5994263-11.198822,6.399353-16.7981873c0.7999268-0.7998962,1.5997925-3.199646,3.199646-4.799469
		c0.7999268,0.7998962,1.5998535,1.5998535,3.199707,0.7998962c0-0.7998962,0-0.7998962,0-0.7998962
		c-0.7999268-3.9995728-4.7994995-7.1992188-2.3997803-11.9986877c0.7999268,0.7998962-0.7999268,1.599823,0.7999268,2.3997192
		c2.3997192-0.7998962,0.7998657-3.9995728,2.3997192-4.799469l3.199707,3.1996765
		c2.3997192,1.599823,5.5993652,2.3997192,7.9990845,1.599823c-0.7998657,0-1.5997925,0-3.199646,0
		c-3.199646-0.7998962-6.399292-3.9995728-7.1992188-7.1992188c3.199646,2.3997192,7.1992188,7.1992188,11.1987915,4.799469
		c-1.5997925,0-3.199646,0-4.7994385-0.7998962c-3.9995728-2.3997498-7.9991455-7.1992493-7.9991455-12.7986145
		c1.5997925,0,3.199646,0,4.7994385-0.7998962c0-0.7998962-0.7998657-1.599823-0.7998657-2.3997498
		c0.7998657-0.7998962,0-2.3997192,0.7998657-3.199646c6.399353,0.7998962,3.199707,7.999115,4.7994995,12.798584
		c0,1.5998535-2.3997803,2.3997498-0.7999268,3.1996765c1.5997925,0,0.7999268-1.599823,1.5997925-2.3997192
		c0.7999268,0,1.5997925,0.7998962,1.5997925,0l-1.5997925-0.7999268c1.5997925-4.799469-1.5997925-7.999115-0.7998657-12.798584
		c-0.7999268-3.1996765-3.199707-2.3997498-5.5993652-3.9995728c-1.5997925,0-3.199707-2.3997498-3.199707-4.799469
		c2.3997803-5.5993958,4.7994995-11.1987915,3.9995728-17.598114c0,0,0-0.7998962-0.7998657-0.7998962
		c3.9995728-8.7990417,7.9990845-17.5980835,11.1987915-27.197052
		c7.1992188-13.5985413,10.3988647-29.5968323,17.5980835-42.3954163
		c6.399292-14.3984375,11.9986572-28.796875,16.7981567-43.9952393c3.199646-17.598114,11.1987915-32.796463,15.998291-50.3945465
		C745.692749,216.8630829,745.692749,208.0640411,744.0928955,200.8648224L744.0928955,200.8648224z M682.4995728,414.4417114
		L682.4995728,414.4417114l-2.3997803-1.5998535C680.8997192,412.8418579,681.699707,412.8418579,682.4995728,414.4417114
		L682.4995728,414.4417114z M662.50177,353.6482849c0,0.7998962-0.7999268,0.7998962-0.7999268,1.5998535c0,0,0,0,0-0.7999268
		C661.7018433,354.4481812,661.7018433,353.6482849,662.50177,353.6482849L662.50177,353.6482849z M648.9031982,337.6500244
		L648.9031982,337.6500244c0.7998657,0,0.7998657,0.7998962,0.7998657,1.599823L648.9031982,337.6500244L648.9031982,337.6500244
		C648.1032715,337.6500244,648.1032715,336.8500977,648.9031982,337.6500244L648.9031982,337.6500244L648.9031982,337.6500244z
		 M643.303833,336.0502014c0.7998657,0,1.5997925,0,2.3997192,1.599823
		C644.1036987,337.6500244,643.303833,336.8500977,643.303833,336.0502014L643.303833,336.0502014L643.303833,336.0502014z
		 M624.105896,308.0532227c2.3997192,0,3.9995728,0.7998962,4.7994385,3.199646v2.3997498l-3.9995728-2.3997498l0,0
		c-1.5997925,0-1.5997925-2.3997192-2.3997803-2.3997192C622.5060425,308.0532227,623.3059692,308.8531189,624.105896,308.0532227
		L624.105896,308.0532227z M616.9066162,303.2537537c0,0.7998962,0.7999268,1.599823,0,2.3997192
		c-0.7998657-1.599823-2.3997192-2.3997192-3.9995117-3.199646
		C613.7070313,302.4538269,616.1067505,301.6539307,616.9066162,303.2537537L616.9066162,303.2537537z M612.1071777,305.6534729
		h0.7999268H612.1071777L612.1071777,305.6534729z M604.1080322,300.8539734
		c-1.5997925-0.7998962-3.9995728-2.3997192-6.399353-2.3997192
		C600.1084595,296.8544312,604.1080322,298.4542542,604.1080322,300.8539734L604.1080322,300.8539734z M596.9088135,300.8539734
		c1.5997925,0,3.199646,0,3.9995728,0.7999268c-1.5997925,0.7998962-3.9995728,1.599823-6.399353,1.599823
		C594.5090942,302.4538269,596.1088867,301.6539307,596.9088135,300.8539734L596.9088135,300.8539734z M588.1097412,304.8535461
		C588.1097412,304.8535461,587.3098755,304.8535461,588.1097412,304.8535461c-0.7998657,0-0.7998657,0-0.7998657,0
		S587.3098755,304.8535461,588.1097412,304.8535461L588.1097412,304.8535461z M579.31073,302.4538269
		c-0.7999268,1.599823-2.3997803,0-3.9995728,0C576.9109497,301.6539307,578.5108032,301.6539307,579.31073,302.4538269
		L579.31073,302.4538269z M568.1119385,310.4529419L568.1119385,310.4529419
		C568.1119385,311.2528687,568.1119385,311.2528687,568.1119385,310.4529419
		C568.1119385,311.2528687,568.1119385,311.2528687,568.1119385,310.4529419L568.1119385,310.4529419z M558.5130005,312.8526917
		c-0.7999268,2.3997192,0,5.5993958-3.199646,5.5993958C554.5134277,316.0523376,556.1132202,312.8526917,558.5130005,312.8526917
		L558.5130005,312.8526917z M661.7018433,465.6361694l0.7999268-3.9995728c0.7998657,0,0.7998657,0.7999268,1.5997925,0.7999268
		C664.1015625,463.2364502,663.3016357,464.8362427,661.7018433,465.6361694L661.7018433,465.6361694z M671.3007813,417.6413574
		c0-0.7998962,0-2.3997192,0-3.199646c1.5997925,0,1.5997925,2.3997192,3.199646,3.199646
		C672.9005737,418.4412842,672.9005737,418.4412842,671.3007813,417.6413574L671.3007813,417.6413574z M676.9001465,397.6435242
		l-0.7998657,0.7998962l1.5997925-7.1992188L676.9001465,397.6435242L676.9001465,397.6435242z M671.3007813,404.0428467
		C671.3007813,404.0428467,671.3007813,404.8427429,671.3007813,404.0428467
		c0.7999268-3.1996765,2.3997803-6.3993225,3.199646-8.7990417
		C673.7005615,398.4434204,672.9005737,401.6430969,671.3007813,404.0428467L671.3007813,404.0428467z"/>
	<rect x="836.8828735" y="124.0731201" class="st0" width="324.764801" height="799.1135864"/>
	<rect x="836.8828735" y="923.1867065" class="st1" width="324.764801" height="551.9402466"/>
	<path d="M932.0725708,521.6300659c1.5997925,0.7999268,9.598938,1.5998535,11.1987915,2.3997803
		c-0.7999268,11.9987183-0.7999268,21.5976563,0,32.7964478c2.3997803,35.196228-2.3997803,65.5928955-10.3989258,100.7890625
		c1.5998535,0.7999268,3.199707,0.7999268,4.7994995,2.3997803c-0.7999268,15.998291-3.199646,31.1966553-3.9995728,47.1948853
		c-0.7999268,11.1988525,0.7999268,23.9974365-2.3997803,34.3963013
		c-12.798584,44.795166,0.7999268,88.7904053-7.9991455,131.9857788
		c-2.3997192,11.1987915-12.798584,19.9978027-19.9978027,26.3971558
		c-3.9995728,3.9995728-16.7981567,10.3988647-14.3984985,18.3980103
		c3.9995728,12.798584,30.3967896,0.7999268,35.9961548-5.5993652c3.199646-3.9995728,6.399292-7.9991455,10.3988647-11.1987915
		c3.199646-2.3997803,7.1992188-0.7999268,9.598938-3.199646c7.1992188-14.3984985,3.199646-19.197937,1.5997925-23.9974365
		c-2.3997192-24.7973022,6.399353-51.194458,11.9987183-74.3919678c2.3997803-11.1987915-2.3997803-20.7977295,0.7999268-31.996521
		c3.199646-11.1987915,11.1987915-29.5968018,14.3984375-47.994812c3.199646-19.9978638,7.1992188-39.1958008,11.1987915-58.3937378
		c6.399353-0.7998657,12.798645-0.7998657,19.197937-1.5997925c1.5997925,10.3989258-3.199646,54.394165,0.7999268,60.793396
		c25.59729,41.59552,56.7938232,73.592041,70.392334,123.1867065c0.7999268,3.199646,0,7.9991455,0.7999268,11.1987915
		c0.8000488,3.199707,4.7995605,7.9991455,4.7995605,11.1987915c-0.7999268,6.399353,0,13.5985107,3.199585,20.7977295
		c2.3997803,7.1992798,0,27.9970093,11.1987305,27.9970093c3.9996338,0,15.998291-5.5993652,18.3980713-8.7990723
		c7.9991455-12.798584,0-28.796875-4.7995605-41.595459c-3.199585-8.7990112-10.3989258-15.1983643-12.798584-23.9973755
		c-7.9991455-30.3967285-8.7991943-60.793457-21.5976563-90.3902588
		c-6.3994141-15.998291-26.3972168-23.9974365-27.1970215-38.395874c0-9.598938,4.7995605-43.1953125,5.5993652-56.7938232
		c3.199585-0.7999268,5.5993652-1.5998535,8.7990723-2.3997803c-1.5998535-46.3950195,5.5993652-85.5906982-25.597168-121.586853
		c6.399292,0,3.9995117-6.399292,9.598877-7.1992188c-7.1990967-11.1987915-27.1970215-31.996521-22.397583-45.5950623
		c2.3997803,3.9995728,6.399292,8.7990417,9.598999,11.1987915c3.199585,2.3997498,4.7994385,2.3997498,7.1990967,3.1996765
		c5.5993652,6.399292,2.3997803,4.799469,11.1987305,8.7990417c2.3997803-0.7999268,5.5993652,3.199646,11.1987305,2.3997192
		c16.7982178,2.3997498,43.9952393,3.9995728,60.793457,6.399292c-3.199585-4.799469-0.7999268-7.1992188-1.5997314-10.3988647
		c11.1987305,0,23.1973877-9.5989685,26.3972168-6.399292c3.199585,3.1996765,7.1990967,2.3997192,12.798584,4.799469
		c1.5998535,0.7998962,4.7995605-0.7998962,2.3997803-3.1996765c-0.7999268-0.7998962-12.7987061-3.9995422-6.399292-6.399292
		c3.9995117-1.599823,10.3989258,2.3997498,11.9986572,3.9995728c0.7999268,0.7998962,0,5.5993958,0.7999268,7.1992188
		c0.8000488,3.1996765,3.9996338,0.7998962,3.199707,0.7998962c1.5997314,2.3997498,2.3996582,3.1996765,3.199585,0
		c0-1.599823,0-6.399292,0.7999268-5.5993958c7.1992188,3.9995728,10.3989258,1.5998535,1.5998535-5.5993958
		c-0.8000488-0.7998962-2.3997803-3.199646-3.199707-3.9995728c-5.5993652-5.5993958-11.9986572-6.399292-16.7982178-9.5989685
		c-1.5997314-0.7998962-11.1987305,4.799469-15.1982422,6.3993225c-4.7995605,2.3997192-20.7978516,5.5993958-19.197876,1.599823
		c-19.197876-1.599823-38.395874-3.9995728-56.7939453-8.7990417c-9.598877-5.5993958-11.9986572-4.799469-13.5985107-11.9986877
		c-2.3997803-15.1983643-15.1982422-15.1983643-22.397583-33.5963745c-2.3997803-6.399292-0.7999268-17.598114-3.199585-24.7973022
		c-3.199585-10.3988647-13.5985107-11.198822-22.397644-11.9987183
		c-7.1992188-0.7998962-23.9973755-8.7990417-21.5975952-16.7981567
		c13.5985107-0.7998962,8.7990112-7.9991455,10.3988647-11.1987915c2.3997803-3.1996765,9.598938-11.9987183,7.9991455-18.3980103
		c-3.199646-8.7990417-0.7999268-5.5993958,2.3997803-15.1983643c2.3997803-0.7999268,2.3997803,1.599823,4.7994385,4.799469
		c-0.7998657-15.1983948-2.3997192-15.998291-11.9986572-17.598114c2.3997192-2.3997498,8.7990112-1.599823,10.3988647,0
		c-15.1983643-26.3971252-43.9952393-29.5968018-54.394104-13.5985413
		c-3.9995728,6.399292-13.5985107,1.5998535-16.7982178,10.3988647c-2.3997192,5.5993958-12.798584,13.5985413-9.598938,18.3980103
		c-0.7998657,2.3997498,0.7999268,3.9995728,0.7999268,6.399292c-1.5997925,3.9995728-3.9995728,7.9991455-3.199646,12.7986145
		c2.3997192,15.1983643,19.197937,16.7981873,21.5975952,15.9982605c0,3.9995728-15.99823,13.5985413-19.197937,14.3984375
		c-11.1987915,3.9995728-15.99823-5.5993958-29.5967407,6.3993225c-1.5997925,0-4.7994995-0.7999268-6.399353-3.9995728
		c0-1.5998535,3.199646-1.5998535,3.199646-3.1996765c1.5998535-2.3997192-0.7998657,0,0-3.1996765
		c7.1992798-15.1983643,14.3984985-36.79599,23.9974365-51.194458c1.5997925-3.1996765,2.3997803-1.599823,4.7994385-3.9995728
		c1.5998535-1.599823,1.5998535-3.9995728,1.5998535-5.5993958c-0.7999268-4.799469,0-10.3988647,0.7998657-12.7986145
		c0-0.7998962-1.5997925-1.599823-1.5997925-1.599823c-0.7999268,0.7998962-2.3997803,4.799469-3.199646,5.5993958
		c0-1.599823,0-3.9995728,0.7998657-5.5993958c0.7999268-1.599823,2.3997803-1.599823,3.199707-2.3997192
		c0.7998657,0,4.7994385,3.199646,5.5993652,3.199646c0.7998657,0,0-2.3997192,0-3.199646
		c1.5997925,1.599823,2.3997192,3.9995422,3.9995728,5.5993958c2.3997192,3.199646,3.9995117,2.3997192,2.3997192-1.5998535
		c-0.7998657-1.599823-1.5997925-3.199646-2.3997192-4.799469c1.5997925,0,8.7990112,2.3997498,8.7990112,0
		c0-2.3997192-10.3989258-5.5993958-13.5985107-7.1992188c0-0.7998962,0-1.599823,0.7999268-2.3997498
		c1.5997925-1.599823,3.9995728-2.3997192,4.7994385-3.9995422c0-0.7999268,0-1.5998535-0.7998657-1.5998535
		c-5.5994263,1.5998535-9.598938,3.9995728-13.5985107,7.9991455c-2.3997803,0.7998962-2.3997803,2.3997192-4.7994995,3.1996765
		c-1.5997925,0.7998962-3.199646,1.599823-4.7994385,2.3997192c-0.7999268,0.7998962-2.3997803,1.599823-2.3997803,3.1996765
		c0,6.399292,3.199646,11.1987915,0.7999268,18.3979797c-6.399353,11.9987183-26.3972168,34.3963013-35.196228,48.7947388
		h-3.9995728c-4.7994995,11.9986877-9.598938,23.1974792-11.1987915,35.9960938
		c-0.7999268,4.799469,6.399292,7.1992188,9.598938,10.3988647c4.7994385,4.799469,5.5993652,11.1987915,11.9987183,15.1983643
		c6.399292,3.9995728,13.5984497,4.799469,19.9978027,7.9991455
		C929.6728516,470.4356384,940.0717163,486.4339294,932.0725708,521.6300659L932.0725708,521.6300659z"/>
	<rect x="1228.0406494" y="124.0731201" class="st0" width="324.7649231" height="799.1135864"/>
	<rect x="1228.0406494" y="923.9865723" class="st1" width="324.7649231" height="551.9403076"/>
	<path d="M1587.2016602,480.8345032c0.8000488-1.599823,14.3985596-19.197937,4.7995605-15.1983643
		c-6.399292,2.3997498-11.1987305,9.5989685-18.3980713,10.3988647c3.9996338-3.9995422,9.598999-6.399292,11.1987305-11.9986877
		c-4.7994385,0-7.9990234,3.1996765-11.1987305,6.399292c-5.5993652,4.799469-7.1990967,2.3997498-12.798584,0
		c-7.9991455-2.3997192-12.7987061-11.1987915-20.7978516-13.5985413c-2.3997803-0.7998962-4.7995605-0.7998962-7.9991455-0.7998962
		c-2.3997803-1.599823-4.7994385-3.199646-7.1990967-5.5993958c-4.7995605-3.9995728-8.7991943-8.7990417-12.7987061-12.7986145
		c-7.9991455-7.999115-15.998291-15.1983643-23.1973877-23.9973755c0-0.7999268,0-1.5998535-0.8000488-2.3997498
		c0-0.7998962,0-1.599823-0.7999268-2.3997192c0.7999268-1.5998535,2.3997803-3.1996765,2.3997803-4.799469
		c-7.9991455,0.7998962-0.7999268-6.3993225-3.199585-9.5989685h2.3997803
		c1.5997314-0.7999268,2.3996582-2.3997498,2.3996582-4.799469c-1.5997314-1.5998535-1.5997314,1.599823-2.3996582,1.599823
		c-1.5998535,0.7998962-3.199707,0-3.9996338,0c-2.3997803,0-1.5998535-3.9995728-2.3997803-5.5993958
		c0.7999268,0.7998962,3.199585,2.3997192,4.7995605,3.199646c1.5998535-0.7998962,3.199585-2.3997192,3.9995117-3.9995422
		c0-1.5998535,0.8000488-4.799469-0.7999268-5.5994263v4.799469c-0.7999268,1.5998535-1.5997314,2.3997498-3.9995117,2.3997498
		c-3.199707-1.599823-1.5998535-6.399292-3.9996338-9.5989685c-1.5997314-2.3997498-3.9995117-3.1996765-6.399292-3.1996765
		c-3.9996338,0-2.3997803-4.799469-4.7995605-7.1992188c-2.3997803-1.599823-6.399292-3.9995728-9.598877-1.599823
		c0-1.5998535-1.5998535-1.5998535-2.3997803-2.3997498c-0.8000488-2.3997192,1.5997314-0.7998962,2.3997803-1.599823
		c0-4.799469,3.9995117-6.3993225,6.399292-10.3988647c1.5998535-3.1996765-1.5998535-7.9991455,3.199585-10.3988953
		c0.7999268-3.199646-1.5997314-4.799469-0.7999268-7.999115c0-2.3997498,0-4.799469,1.5997314-6.3993225
		c0-1.599823-1.5997314-0.7998962-0.7999268-2.3997192c0.7999268-1.599823,0.7999268-3.9995728,0.7999268-6.399292
		c0-2.3997498-2.3996582-2.3997498-3.199585-3.9995728c1.5998535-1.5998535,3.199585-3.1996765,3.199585-6.399292
		c-1.5997314-3.9995728-6.399292-5.5994263-10.3988037-5.5994263c0-3.9995422-3.9996338-4.799469-6.3994141-5.5993958
		c-1.5997314-2.3997192-3.199585-4.799469-5.5993652-5.5993958c0.8000488-1.599823,2.3997803-3.9995728,0-4.799469
		c-0.7999268,0-0.7999268,0.7998962-0.7999268,1.599823c-3.199585,2.3997498-5.5993652-1.599823-7.9991455-3.199646
		c-3.199585,0-7.9991455,0-11.1987305,0.7998962c-4.7995605,3.9995728-8.7990723-3.9995728-13.5985107,0
		c-2.3997803,0-3.199585,2.3997192-3.9995117,4.799469c-1.5998535,1.599823-3.9996338,0-5.5993652,0.7998962
		c-1.5998535,0-1.5998535,1.599823-1.5998535,2.3997498c2.3997803,3.9995422-3.199585,4.799469-3.9995117,7.999115
		c-0.8000488,3.1996765-3.9996338,3.9995728-4.7995605,5.5993958c-6.3994141,1.5998535-0.8000488,9.5989685-6.3994141,11.198822
		c-2.3996582,4.799469,3.9996338,3.199646,5.5993652,5.5993958c0,0.7998962,0.8000488,2.3997192,0,3.199646
		c0.8000488,1.5998535-0.7999268,3.1996765-0.7999268,5.5994263c0.7999268,1.599823,0,3.199646,1.5998535,3.9995422
		c-0.8000488,2.3997498-2.3997803,4.799469-4.7995605,5.5994263c-3.199585,4.799469,3.199585,8.7990112,4.7995605,11.9986877
		c0.7999268,2.3997498,0,3.9995728-1.5998535,5.5993958l0,0l2.3997803-2.3997192c0.7999268-1.5998535,0-3.1996765,0-4.799469
		c2.3997803,1.599823,3.9996338,4.799469,6.399292,7.1992188c2.3997803,1.5998535,5.5993652,3.9995728,7.1992188,7.1992493
		c0.7999268,4.799469,0,8.7990112-3.199585,13.5985107c-3.9996338,5.5994263-12.7987061,7.9991455-19.197876,7.9991455
		c-10.3989258-0.7998962-15.998291,3.1996765-23.1975098,11.1987915c-3.199585,3.1996765-5.5993652,7.1992493-7.1990967,11.198822
		c-2.3997803,6.399292-4.7995605,7.999115-9.598999,11.9986877c-4.7994385,3.1996765-8.7990723,7.1992493-13.5985107,10.3988647
		c-3.9995117,3.1996765-9.598877,1.5998535-15.1982422,2.3997498c-9.598999,0.7998962-19.197876,2.3997192-27.9969482,5.5993958
		c-8.7991943,2.3997192-17.5981445,5.5993958-25.59729,8.7990417c-10.3988037,3.199646-18.3979492,1.599823-28.796875,0.7998962
		c-3.199585,0-5.5993652,0-7.9991455-1.599823c-1.5998535-0.7999268-2.3997803-1.5998535-3.9996338,0
		c-3.199585-3.1996765-5.5993652-7.1992493-9.598877-7.9991455c-1.5998535,0-5.5993652-5.5993958-4.7995605,0
		c0.8000488,3.1996765,3.199585,4.799469,3.9996338,7.9991455c-2.3997803-0.7999268-5.5993652-2.3997498-8.7991943-1.5998535
		c1.5998535,4.799469,7.1992188,5.5993958,10.3989258,7.1992493c3.9996338,1.599823,7.9991455,4.799469,11.9987793,5.5993958
		c4.7994385,1.599823,9.598877,3.9995728,14.3984375,4.799469c6.399292,1.599823,9.598877-0.7998962,15.998291-1.599823
		c11.9986572-2.3997498,25.597168,0.7998962,36.7960205,1.599823c11.1987305,0.7998962,22.397583,1.599823,33.5963135-0.7998962
		c5.5993652-0.7998962,10.3989258-3.1996765,15.1983643-6.3993225c3.9995117-4.799469,5.5993652-7.1992188,11.1987305-10.3988647
		c2.3997803-0.7998962,4.7995605-2.3997192,7.9991455-3.9995728c3.199585-1.599823,4.7995605-0.7998962,7.9991455-1.599823
		c3.9995117-0.7998962,9.598877-5.5993958,12.798584-3.9995728c8.7991943,5.5993958,12.7987061,23.1975098,17.5981445,31.9965515
		c5.5993652,10.3988647,12.798584,19.197937,11.9986572,31.1966248c-5.5993652,9.5989685-7.1990967,22.3976135-15.998291,29.5967712
		c-3.9995117,7.1992188-9.598877,14.3984985-13.5985107,21.5976563c-5.5993652,9.598938-7.1990967,20.7977295-5.5993652,31.996521
		c1.5998535,6.399353,3.9996338,11.9987183,7.1992188,17.5980835s5.5993652,7.9991455,9.598877,11.9987183
		c3.9996338,0,4.7995605-0.7999268,7.1992188,3.199646c1.5998535,3.199646,3.199585,6.399353,4.7995605,8.7990112
		c3.199585,5.5994263,7.1990967,11.9987183,10.3989258,17.5980835c7.1990967,11.1987915,14.3984375,21.5976563,21.5975342,31.996582
		c7.1992188,10.3988647,14.3985596,20.7977295,19.9979248,32.7963867c1.5997314,4.7994995,7.1990967,12.798645,0.7999268,15.1984253
		c-4.7995605,2.3997192-7.9991455,8.7990112-11.1987305,12.798584c-15.1983643,22.397583-21.5976563,47.994812-28.7969971,73.59198
		c-3.199585,11.9987183-6.399292,25.597229-14.3984375,35.196228c-3.199585,3.9995728-7.1990967,5.5993652-10.3989258,9.598938
		c-3.9995117,4.7994995-3.9995117,8.7990112-6.399292,14.3984375c-3.199585,9.598938,7.1992188,23.1975098,10.3989258,31.996582
		c3.9995117,8.7990112,8.7990723,21.5976563,19.197876,20.7977295c6.399292-0.7999268,12.7987061-3.199646,19.197876-3.199646
		c5.5993652,0,4.7995605-7.1992798,2.3997803-11.9987183c-0.8000488-1.5997925-3.199585-3.199646-4.7995605-3.9995728
		c-1.5998535-3.199646-2.3997803-5.5993652-3.9995117-8.7990112c-2.3997803-5.5994263-4.7995605-11.9987183-6.3994141-18.3980713
		c11.1987305,1.5997925,19.197876,8.7990723,28.7969971,14.3984985c8.7990723,5.5993652,19.9978027,8.7990112,27.1970215-1.5998535
		c3.199585-3.9995117,4.7994385-7.9990845,4.7994385-13.5984497c-0.7999268-7.1992798-7.1990967-6.399353-11.9986572-6.399353
		s-9.598877-2.3997803-11.1987305-7.1992188c-0.7999268-3.9995728-4.7995605-5.5993652-6.399292-8.7990723
		c-0.8000488-4.7994385,0-8.7990112-3.9996338-6.399292c-2.3997803,1.5997925,1.5998535-11.1988525,1.5998535-11.9987183
		c13.5985107-23.1975098,32.7965088-42.3954468,50.3945313-62.3933105
		c8.7990723-10.3988647,17.5980225-20.7977295,27.1970215-30.3967285
		c8.7990723-8.7990112,14.3984375-17.5980225,13.5985107-31.1965942
		c-0.7999268-11.9987183-11.9986572-23.1975098-15.998291-35.196228
		c-3.9995117-11.9987183-8.7990723-23.9973755-14.3984375-35.9960938s-11.9987793-23.9974365-19.197876-35.196228
		c-3.199585-4.7994385-6.399292-10.3988647-9.598999-15.1983643c-1.5997314-2.3997803-3.199585-4.7994385-5.5993652-7.1992188
		c-3.199585-3.9995728-0.7999268-1.5997925-0.7999268-4.7994995c-6.399292-7.9990845-3.199585-22.397583-3.199585-31.996521
		c0-3.199646,0.7999268-10.3988647-2.3997803-11.1987915c-2.3997803,0-0.7999268-16.7981567-0.7999268-19.197937
		c0-4.799469,0.7999268-9.5989685,0.7999268-14.3984375c0-0.7998962,2.3997803,0,1.5998535-1.599823
		c0-7.1992493,0-13.5985413,0-20.79776c0-13.5985107,0.7999268-27.9969482,1.5997314-41.5954895
		c0.7999268,1.599823,2.3997803-1.5998535,4.7995605,0c1.5997314,0.7998962,3.199585,2.3997192,4.7995605,3.199646
		c0,0.7999268-0.8000488,1.5998535-0.8000488,2.3997498c0.8000488,0,1.5998535-0.7998962,1.5998535-1.599823
		c0.7999268,0.7998962,2.3997803,1.599823,3.199585,2.3997192c5.5993652,3.9995728,10.3989258,8.7990417,15.998291,12.7986145
		c7.1992188,4.799469,11.9986572,9.5989685,17.5980225,15.9982605c4.7995605,4.799469,11.1987305,4.799469,17.5981445,4.799469
		c3.9995117,0,7.9991455,0,11.9986572,0c3.199585,0,4.7995605,2.3997498,7.9991455,2.3997498
		c2.3997803,4.799469,7.9991455,5.5993958,11.9986572,6.399292c5.5993652,0.7998962,10.3989258,1.599823,14.3985596-2.3997498
		c3.199585-3.199646,9.598877-3.199646,11.9986572-7.999115
		C1595.2008057,476.8349609,1591.2012939,480.0346069,1587.2016602,480.8345032L1587.2016602,480.8345032z
		 M1468.0146484,315.2524414c0.7999268,0,1.5998535,1.5998535,1.5998535,2.3997498v2.3997192
		C1468.0146484,319.2520142,1468.0146484,317.6521912,1468.0146484,315.2524414L1468.0146484,315.2524414z
		 M1460.0155029,302.4538269c3.199585-0.7998962,5.5993652,0,7.9991455,2.3997192
		c0.7999268,0.7998962,1.5998535,2.3997498,0.7999268,3.9995728l-2.3997803,2.3997192L1460.0155029,302.4538269
		L1460.0155029,302.4538269L1460.0155029,302.4538269z M1388.8231201,319.2520142
		c-0.7999268-2.3997192,2.3997803-2.3997192,3.199585-3.9995728v-0.7998962v0.7998962c0,1.5998535,0,3.9995728,1.5998535,4.799469
		C1392.0228271,320.0519104,1389.6230469,320.0519104,1388.8231201,319.2520142L1388.8231201,319.2520142z
		 M1392.0228271,312.8526917c0-1.5998535,0-3.9995728,1.5998535-4.799469
		C1393.6226807,309.6530457,1393.6226807,311.2528687,1392.0228271,312.8526917L1392.0228271,312.8526917z
		 M1394.4224854,351.2485657c-1.5997314-0.7998962-3.199585-2.3997498-3.9995117-3.9995728
		c-0.8000488-1.599823-1.5998535-2.3997498,0-3.9995728l1.5997314-0.7998962
		C1391.2229004,345.6491699,1395.2224121,347.2489929,1394.4224854,351.2485657L1394.4224854,351.2485657z
		 M1486.4125977,738.4066772C1485.6126709,738.4066772,1486.4125977,738.4066772,1486.4125977,738.4066772z
		 M1510.4099121,711.2095947c4.7995605,7.9991455-6.399292,9.598938-10.3988037,13.5985107
		c-3.9996338,3.9995728-7.9991455,8.7990723-12.7987061,12.798645c3.199585-2.3997803,3.9995117-19.197937,3.199585-23.1975098
		c-0.7999268-7.9991455-3.9995117-13.5985107-7.1992188-20.7977295c-3.199585-6.399353-3.9995117-14.3984985-5.5993652-21.5976563
		C1488.8123779,683.2126465,1501.6109619,697.6110229,1510.4099121,711.2095947L1510.4099121,711.2095947z
		 M1478.4134521,376.0458679c0.7999268,0.7998962,1.5997314,2.3997192,1.5997314,3.199646h-0.7999268
		c0-0.7998962-1.5998535-3.199646-3.199585-3.199646C1476.8135986,375.2459717,1477.6135254,375.2459717,1478.4134521,376.0458679
		L1478.4134521,376.0458679z M1476.0137939,377.6456909c-0.7999268,0-2.3997803,0.7998962-2.3997803,2.3997498
		c-0.7999268,0-0.7999268-0.7999268-0.7999268-1.5998535
		C1473.6140137,377.6456909,1475.2138672,377.6456909,1476.0137939,377.6456909L1476.0137939,377.6456909z
		 M1429.6187744,285.6556396c3.199585-0.7998962,6.399292-1.599823,8.7990723-0.7998962
		c0.7999268,0.7998962,1.5998535,1.599823,2.3997803,2.3997498c-1.5998535,1.599823-4.7995605,0-6.399292-0.7999268
		C1432.8183594,286.4555359,1431.2186279,285.6556396,1429.6187744,285.6556396h-0.7999268
		C1428.8188477,285.6556396,1428.8188477,285.6556396,1429.6187744,285.6556396L1429.6187744,285.6556396z
		 M1446.4168701,810.3989258c-3.199585,5.5993652-7.1992188,10.3988647-10.3989258,15.99823
		c-3.199585,4.7994995-7.9991455,7.9991455-11.1987305,13.5985107c9.598999-25.597229,27.1970215-44.795105,40.7956543-67.192749
		C1460.8153076,786.4014893,1454.4160156,798.4002075,1446.4168701,810.3989258L1446.4168701,810.3989258z
		 M1465.6148682,772.0030518C1465.6148682,772.0030518,1465.6148682,772.8029175,1465.6148682,772.0030518z
		 M1580.0025635,480.0346069C1580.0025635,479.2347107,1580.0025635,480.0346069,1580.0025635,480.0346069z
		 M1580.8023682,479.2347107L1580.8023682,479.2347107z M1581.6022949,479.2347107
		C1581.6022949,478.4347839,1581.6022949,479.2347107,1581.6022949,479.2347107z M1582.4022217,478.4347839
		c-0.8000488,0,0-1.599823,0.7999268-0.7998962C1584.0020752,478.4347839,1582.4022217,477.6348877,1582.4022217,478.4347839
		L1582.4022217,478.4347839z"/>
	<g class="st2">
		<path d="M168.9551239,1307.1451416c-4.7994843,4.7994385-6.399292,10.3988037-9.5989685,15.9981689
			c-4.799469,9.598999-15.198349,14.3985596-23.1974792,21.5976563
			c-8.7990494,7.9991455-15.9982681,16.7982178-24.7973251,24.7973633
			c-20.7977524,10.3989258-33.5963593,27.9969482-47.9948044,43.9952393c-5.5993919,2.3997803-9.5989609,0-15.1983566,1.5998535
			c-5.5993919,1.5997314-10.3988724,3.9995117-15.1983566,5.5993652c-4.7994804,1.5997314-7.9991341-2.3997803-12.7986145,0.7999268
			c-1.5998268,0.7999268-3.1996555,2.3997803-3.999567,3.9996338c0,1.5997314,0.7999115,2.3997803,2.3997402,3.199585
			c-0.7999134,1.5997314-1.5998287,2.3997803-3.1996546,3.199585c-1.5998268,2.3997803,0,4.7995605,0.7999144,7.1992188
			c0.7999115,3.199585,7.1992207,3.9995117,11.1987896,4.7994385c-6.3993073,3.9996338-29.5967999,10.3989258-27.1970596,15.1983643
			c3.1996539,3.199585,18.3980103-3.199585,24.7973175-6.399292c3.999567-1.5998535,7.9991341-3.199707,11.998703-4.7995605
			c2.3997421-0.7999268,7.9991341-4.7995605,10.3988762-3.9996338c7.1992226,1.5998535,15.1983566-4.7994385,17.5980911-9.598877
			c3.1996536-6.399292,13.5985336-10.3989258,19.9978409-15.1983643
			c14.3984451-11.1987305,34.3962784-17.5980225,43.1953354-32.7965088
			c3.9995575-7.1990967,9.5989685-11.1987305,15.9982605-16.7982178c3.9995728-3.199585,7.9991455-5.5993652,11.998703-8.7990723
			c4.7994843-3.199585,11.1987915-3.9995117,16.7981873-6.399292c0,0.7999268,0,1.5997314,0,2.3997803
			c2.3997345-2.3997803,7.1992188,0,9.5989685,1.5997314c0,0-8.799057-0.7999268-10.3988647-0.7999268
			c-0.7999268,0-5.599411,3.9995117-4.7994843,5.5993652c1.599823,1.5998535,4.7994843-0.7999268,5.5993958,2.3997803
			c-2.3997345,0.7999268-4.7994843-0.7999268-6.3993073-0.7999268c3.9995728,1.5997314,10.39888,3.9995117,11.998703,7.1990967
			c-3.199646,2.3997803-8.7990417-2.3997803-12.7986145,0.7999268c2.3997345,0.8000488,3.9995728,0,6.3993073,0.8000488
			c0,0.7999268-0.7999268,0.7999268-1.5998383,1.5997314c1.5998383,0,2.3997345,0,3.9995728,0
			c0.7999115,0.8000488-3.9995728,2.3997803-1.5998383,2.3997803c-2.3997345,0.7999268-2.3997345,3.199585-3.9995728,4.7995605
			c3.1996613-0.7999268,7.1992188-0.7999268,9.5989685,0c-3.199646,0-7.1992188,0.7999268-9.5989685,2.3997803
			c-0.7999115,5.5993652,2.3997345,2.3997803,5.599411,2.3997803c-0.7999268,0-0.7999268,0.7999268-1.5998383,0.7999268
			s4.7994843,0,4.7994843,0c-0.7999115,0-1.5998383-0.7999268-2.3997345,0
			c1.5998383-0.7999268,5.5993958-0.7999268,6.3993073,1.5998535c-1.5998383-0.8000488-3.1996613-0.8000488-5.599411,0
			c-3.9995575,1.5997314-0.7999115,2.3996582-3.199646,3.9995117c3.9995728-3.199585,11.998703,0,15.198349,3.199585
			c-4.7994843-0.7999268-9.5989685-0.7999268-14.3984375-0.7999268c3.9995728,0.7999268,8.799057,0.7999268,13.5985413,2.3997803
			c2.3997345,0.7999268,3.9995728,1.5997314,4.7994843,3.9995117c1.5998383,3.199585-0.7999115,4.7995605,3.9995728,5.5993652
			c5.5993958,0,13.598526,7.1992188,19.1979218,9.598999c7.9991302,3.9995117,11.1987762,3.199585,18.397995-1.5998535
			c3.199646,0,6.3993073,0,9.5989685-0.7999268c2.3997345-1.5998535,4.7994843-3.9996338,7.1992188-4.7995605
			c5.599411-2.3997803,9.5989532-6.399292,11.1988068-11.1987305c1.599823-6.399292-0.7998962-12.7987061-0.7998962-19.197876
			c0.7998962-5.5993652,4.799469-10.3989258,4.799469-15.998291c-3.1996765,1.5998535-3.9995728,4.7995605-4.799469,7.1992188
			c-1.5998535-5.5993652,0-12.7987061,7.999115-12.7987061c-5.5993958-3.199585-9.5989685-3.9995117-12.798584,1.5998535
			c0-2.3997803,3.199646-4.7995605,5.5993958-5.5993652c0.7998962-0.8000488-2.3997498-2.3997803-2.3997498-3.199585
			c5.5993958-0.8000488,11.198822-3.199707,16.7981873-4.7995605c3.199646-0.7999268,6.399292-1.5998535,9.5989685-1.5998535
			c4.799469,0,7.1992188-2.3997803,8.7990417,1.5998535c4.799469,12.798584,11.9986877,23.9974365,20.7977295,35.196167
			c7.999115,10.3988037,17.5980835,19.9978027,26.3971252,29.5966797
			c9.5989685,11.1987305,22.397583,19.197876,33.5963745,29.5968018c4.799469-3.9995117-8.7990417-14.3984375-11.9986877-16.7982178
			c3.199646-2.3997803,6.399292,0,8.7990112-3.9995117c1.5998535-2.3997803,7.1992493-6.3994141,3.9995728-7.9991455
			c-3.199646-1.5998535-8.7990112,0-8.7990112-3.9996338c0-2.3997803-11.198822-3.199585-6.3993225,1.5998535
			c-4.799469,0.7999268-6.399292-4.7995605-8.7990417-7.1992188c-1.599823-1.5997314-3.199646-3.199585-4.799469-4.7995605
			c-3.199646,0-3.9995422,0-5.5993958-3.199585c-5.5993958-9.598877-9.5989685-19.9978027-13.5985413-29.5966797
			c-3.9995422-8.7991943-7.999115-18.3980713-13.5985107-26.3972168c-2.3997498-3.199585-4.799469-8.7990723-9.5989685-10.3989258
			c-5.5993958-2.3997803-11.9987183-3.199585-18.3980103-3.199585c-6.399292-0.7999268-11.9987183-0.7999268-18.3980103,0
			c-7.1992188,0.7999268-9.5989685,2.3997803-11.1987915-3.9995117c0-8.7991943,4.799469-16.7983398,7.999115-24.7974854
			c3.9995728-7.9990234,6.3993225-16.7982178,0-23.9973145c-5.5993958-6.3994141,1.5998535-17.5981445,5.5994263-23.9974365
			c3.9995422-6.399292,9.5989685-11.1987305,12.798584-18.3980713c1.5998535-3.199585,3.1996765-7.1990967,3.9995728-11.1987305
			c0-2.3997803,0.7998962-4.7994385,2.3997498-6.399292c0.7998962-2.3997803,0-4.7995605,1.599823-7.1992188
			c3.9995728-9.598877,7.9991455-19.197876,9.5989685-29.5966797c0-11.1988525-1.599823-23.1975098-4.799469-34.3963623
			c-5.5993958-19.9978027-14.3984375-38.395874-15.9982605-59.1936035
			c-0.7999268-11.1987305-0.7999268-21.5975342-1.5998535-32.7963867c0-5.5993652-0.7998962-10.3989258-0.7998962-15.998291
			c0-2.3997803-0.7998962-4.7995605-0.7998962-7.9991455c0,0,1.599823-1.5998535,2.3997192-2.3997803
			c1.5998535-5.5993652,1.5998535-11.9987183,0-17.5980835c-0.7998962-2.3997803-1.599823-5.5993652-3.199646-7.9991455
			c-1.5998535-1.5997925-7.9991455-2.3997803-10.3988647-3.199646c-3.9995728-0.7999268-7.1992493,0-8.7990417-3.9995728
			c-1.5998383-3.9995728-3.1996613-7.9991455-3.9995728-11.9987183c-3.199646-8.7990112-1.5998383-15.99823,0-24.7973022
			c1.5998383-7.1992188,3.1996765-12.798584,7.1992188-19.197937c5.5994263-8.7990112-13.598526-7.9991455-19.1979065-8.7990112
			c-8.799057,0-20.79776-0.7999268-17.5980988,9.598938c0.7999115,3.199646,3.9995575,6.399292,4.7994843,9.598938
			c0.7999115,1.5997925,0.7999115,9.598938,2.3997345,10.3988647c0.7999115,0.7999268-0.7999268,4.7994995,0,6.399353
			c1.599823,4.7994995,3.199646,7.9991455,3.199646,12.798584c0,4.7994995,0,9.598938,0,14.3984985
			c0,1.5997925,0,3.9995728,0,5.5993652c-2.3997345,1.5997925-3.9995728,2.3997803-5.5993958,4.7994385
			c-3.9995728,4.7994995,1.599823,18.3980713,1.599823,23.9974365c0,8.7990723-0.7999115,17.5980225-0.7999115,27.1970215
			c0.7999115,7.9991455,3.199646,15.998291,3.199646,23.9974365c0,7.9990234-1.599823,16.7982178-0.7999115,24.7973633
			c0.7999115,18.3979492,7.9991302,36.7960205,7.9991302,55.1939697c-6.399292,0-15.198349-7.1992188-19.1979218-11.1987305
			c-7.1992035-6.3994141-14.3984222-11.9987793-19.9978333-19.197876c-3.199646-3.9996338-5.5993958-7.9991455-9.5989685-11.9987793
			c-3.199646-3.9995117-7.9991302-7.1990967-8.7990417-11.1987305c-2.3997345-9.598877-4.7994843-19.197876-7.1992188-27.9969482
			s-5.599411-17.5980225-9.5989685-25.597168c-1.5998383-3.9996338-3.9995728-7.9991455-5.599411-12.7987061
			c0-3.9995117,0-8.7990723-1.599823-12.798584c-1.5998383-3.199707-6.3993073-3.9995728-10.3988647-3.9995728
			c-1.5998383-3.199707-3.1996613-7.1992188-4.7994843-10.3989258c-3.9995728-7.1992188-7.1992188-14.3984375-7.1992188-22.397583
			c0-6.399353-0.7999268-13.5985107-1.5998383-19.9978638c0-3.9995728,0.7999115-7.1992188-3.9995728-9.598938
			c-3.199646-1.5997925-7.1992111-3.9995728-11.1987839-3.9995728c-8.7990494-0.7998657-18.3980103,0.7999268-27.197052,3.199707
			c-13.598526,3.9995728,4.7994843,10.3988647,8.7990494,13.5985107c5.5993958,3.9995728,11.998703,10.3988647,13.598526,15.99823
			c0.7999191,3.199707,3.1996536,6.399353,5.5993958,8.7990723c1.599823,3.9995728,1.599823,7.9991455,2.3997421,11.1987915
			c0.7999191,3.9995728,0.7999191,8.7990112,0.7999191,12.798584s-4.7994843,4.7994995-7.9991379,7.1992188
			c-3.1996536,2.3997803-7.1992188,5.5993652-5.5993881,9.598999c1.599823,3.9995117,3.9995651,7.1990967,3.9995651,11.1987305
			c0,0,0,0,0-0.7999268c0.7999115,3.199585,0,7.1990967,2.3997421,9.598877
			c1.599823,2.3997803,2.3997421,0.7999268,3.199646,4.7995605c0.7999191,2.3997803,1.5998306,4.7994385,2.3997421,7.9991455
			c3.1996536,10.3988037,7.9991379,19.9978027,11.1987839,30.3967285
			c3.9995728,10.3989258,4.7994843,20.7977295,10.39888,30.3967285c6.399292,10.3989258,13.598526,19.9978027,19.1979065,31.1965332
			c4.7994843,9.598999,8.799057,19.197876,15.1983643,27.9969482c3.199646,3.9996338,6.399292,6.3994141,9.5989685,9.598999
			c2.3997345,5.5993652,4.7994843,11.1987305,7.1992188,16.7982178c3.9995575,9.598877,1.599823,17.5980225-2.3997345,26.3972168
			c-4.7994843,9.598877-13.5985413,20.7977295-14.3984375,31.99646c-0.7999268,3.9996338-0.7999268,7.9991455-2.3997345,12.7987061
			 M185.7532959,1391.1359863c0-0.7999268-0.7999115-0.7999268-0.7999115-1.5997314
			C184.9533997,1388.7363281,186.5532227,1390.3361816,185.7532959,1391.1359863L185.7532959,1391.1359863z
			 M172.9546967,1365.5388184c3.199646-1.5998535,7.1992188,0,7.9991302,2.3997803
			C178.5540771,1367.1385498,175.3544312,1366.3387451,172.9546967,1365.5388184L172.9546967,1365.5388184z
			 M184.1534882,1391.9359131L184.1534882,1391.9359131z M185.7532959,1393.5357666
			c0-0.7999268-1.599823-0.7999268-0.7999115-0.7999268
			C184.9533997,1392.7359619,186.5532227,1392.7359619,185.7532959,1393.5357666L185.7532959,1393.5357666z
			 M274.5437012,995.9788208c2.3997498,0.7998657,0,5.5993652,0,7.1992188
			C274.5437012,1000.7782593,275.3436279,998.37854,274.5437012,995.9788208L274.5437012,995.9788208z M275.3436279,1007.1776123
			C275.3436279,1004.777832,276.1435242,1007.977478,275.3436279,1007.1776123z M276.1435242,1008.7774048
			c0.7998962,3.9995728,2.3997192,9.598938-0.7998962,11.9987183
			C273.7437744,1015.9766235,276.1435242,1012.7769775,276.1435242,1008.7774048L276.1435242,1008.7774048z
			 M288.9421387,1206.3560791c0,1.5997314,0,3.199585-0.7998962,3.9995117
			C288.1422119,1208.7558594,288.1422119,1207.9558105,288.9421387,1206.3560791L288.9421387,1206.3560791z
			 M287.3423157,1211.1555176C287.3423157,1211.1555176,288.1422119,1211.1555176,287.3423157,1211.1555176z
			 M286.5424194,1215.1550293C287.3423157,1213.5552979,285.7424927,1217.5548096,286.5424194,1215.1550293z
			 M257.7455139,1350.3404541c-0.7998962,0-0.7998962,0.8000488-2.3997345,0.8000488
			C256.1456909,1349.5405273,257.7455139,1349.5405273,257.7455139,1350.3404541L257.7455139,1350.3404541z
			 M258.5454407,1397.5352783C258.5454407,1397.5352783,257.7455139,1398.3353271,258.5454407,1397.5352783z
			 M248.1465607,1356.7398682C248.9464722,1355.9398193,248.9464722,1358.3395996,248.1465607,1356.7398682z
			 M248.1465607,1351.1403809C247.3466492,1352.7402344,248.9464722,1350.3404541,248.1465607,1351.1403809z
			 M248.9464722,1359.1394043C249.7463837,1358.3395996,249.7463837,1360.7393799,248.9464722,1359.1394043z
			 M248.9464722,1358.3395996C248.9464722,1356.7398682,248.9464722,1359.1394043,248.9464722,1358.3395996z
			 M248.1465607,1351.9403076c0,0.7999268,0.7999115,3.199585,0,3.9995117
			C248.1465607,1355.1398926,246.5467224,1352.7402344,248.1465607,1351.9403076L248.1465607,1351.9403076z
			 M114.5610046,1043.9736328C114.5610046,1043.9736328,114.5610046,1043.1737061,114.5610046,1043.9736328z
			 M113.7610931,1040.7740479c0-3.199707-3.199646-6.3994141-2.3997421-9.598999
			C112.9611816,1033.574707,114.5610046,1038.3742676,113.7610931,1040.7740479L113.7610931,1040.7740479z
			 M117.7606659,1051.9727783c-0.7999191-2.3997803-3.1996536-4.7995605-2.3997421-7.1992188
			C116.9607468,1046.3734131,118.5605698,1048.7731934,117.7606659,1051.9727783L117.7606659,1051.9727783z
			 M228.9486389,1416.7332764C229.7485352,1416.7332764,225.7489777,1417.5332031,228.9486389,1416.7332764z
			 M188.1530457,1343.1412354C188.1530457,1341.5413818,188.1530457,1343.9411621,188.1530457,1343.1412354z
			 M191.3527069,1344.7410889c-2.3997345,0.8000488-4.7994843,0-7.1992188,0
			C187.3531342,1344.7410889,190.5527802,1341.5413818,191.3527069,1344.7410889L191.3527069,1344.7410889z
			 M184.1534882,1351.1403809C182.5536499,1349.5405273,184.9533997,1351.9403076,184.1534882,1351.1403809z
			 M182.5536499,1350.3404541c-0.7999115-0.7999268-2.3997345,0-2.3997345-0.7999268
			C181.7537384,1348.7407227,183.3535614,1350.3404541,182.5536499,1350.3404541L182.5536499,1350.3404541z"/>
	</g>
	<path class="st3" d="M740.0933228,1435.9311523c-4.7994385-12.798584-12.798584-23.9973145-15.998291-36.7960205
		c-3.9995117-11.1987305-10.3988647-21.5976563-16.7981567-31.996582
		c-7.9991455-9.598877-10.3988647-21.5975342-17.5980835-31.1965332
		c-3.199646-7.1992188-7.1992188-13.5985107-11.1987915-19.9978027c0,0,0-0.8000488,0.7999268-0.8000488
		c0.7998657-4.7994385-1.5997925-8.7990723-3.9995728-12.798584c0-1.5998535,0.7999268-3.199585,3.199646-3.199585
		c1.5997925-0.8000488,4.7994995-0.8000488,5.5993652-2.3997803c-0.7998657-3.199585,2.3997803-5.5993652,0.7999268-9.598999
		l1.5997925-0.7999268c-0.7999268-0.7999268-1.5997925,0-1.5997925,0c-0.7999268-0.7999268,0-1.5998535-1.5997925-1.5998535
		c-2.3997803,0.8000488,0.7998657,1.5998535,0.7998657,2.3997803c-1.5997925,3.199585,1.5997925,8.7990723-4.7994385,9.598999
		c-0.7999268-0.8000488,0-1.5998535-0.7999268-2.3997803c0-0.7999268,0.7999268-0.7999268,0.7999268-1.5998535
		c-1.5997925-0.7999268-3.199646-0.7999268-4.7994995-0.7999268c0-3.9995117,3.9995728-7.1992188,7.9991455-8.7990723
		c1.5997925,0,3.199646-0.7999268,4.7994995-0.7999268c-4.7994995-1.5998535-7.9991455,1.5997314-11.1987915,3.199585
		c0.7998657-2.3997803,3.9995117-4.7995605,7.1992188-5.5993652c0.7998657,0,2.3997192,0,3.199646,0
		c-2.3997803-0.8000488-5.5993652,0-7.9991455,0.7999268l-3.199646,2.3997803c-1.5997925-0.7999268,0-3.199585-2.3997803-3.9996338
		c-0.7998657,0.8000488,0.7999268,0.8000488-0.7998657,1.5998535c-1.5998535-3.199585,1.5997925-5.5993652,2.3997192-8.7990723
		c0,0,0,0,0-0.8000488c-0.7998657,0-2.3997192,0-3.199646,0.8000488c-0.7999268-0.8000488-1.5997925-2.3997803-3.199646-3.199585
		c-0.7999268-3.9996338,1.5997925-11.1987305-6.399353-12.7987061h-0.7999268c0,2.3997803,2.3997803,4.7995605,0.7999268,7.1992188
		h-0.7999268l0,0c-0.7998657-1.5998535-0.7998657-3.199707-1.5997925-4.7995605
		c-3.9995728-11.9987793-9.598938-23.1975098-14.3984375-34.3963623
		c-3.9995728-7.1990967-10.3989258-12.798584-8.7990723-21.5976563c0.7999268-12.798584,10.3989258-23.1973877,8.7990723-35.9960938
		c-0.7999268-5.5993652,1.5997925-11.9986572-1.5997925-17.5980225c1.5997925-3.199585-2.3997803-5.5993652-2.3997803-8.7990723
		c-8.7990723-15.1983643-19.197937-30.3967285-31.1966553-44.7952881
		c-3.199646-4.7994385-5.5993652-10.3988037-10.3988647-14.3984375c0-3.199585-2.3997803-6.399292-4.7994995-9.598877
		c3.9995728-4.7995605,3.199646-11.1987305,9.598938-15.1983643c3.9995728-4.7995605,2.3997803-11.1987305,3.9995728-16.7982178
		l2.3997803-9.598877c6.399292-6.3994141,7.9991455-15.1984253,8.7990112-23.1975708
		c2.3997803-9.598938,8.7990723-19.197937,10.3989258-28.796875c3.199646-10.3988647,0-21.5975952,7.9991455-30.3967285
		c0.7998657-0.7998657,0-0.7998657,0-1.5997925c-3.199707-2.3997803-9.598938-3.199646-7.9991455-7.9991455l1.5997925-2.3997803
		c-1.5997925-1.5997925-3.9995728-1.5997925-6.399353-1.5997925c0,0-0.7998657,0-1.5997925,0.7999268
		c0,1.5997925,1.5997925,2.3997803,0.7999268,3.9995728c-1.5998535,0.7998657-3.199707-1.5997925-4.7994995-1.5997925
		c-2.3997803-1.5998535-7.1992188,0-6.399292-3.199707c0-1.5997925-1.5998535-3.199646-0.7999268-3.9995728
		c-8.7990112-3.9995728-19.9978638-3.199646-28.796875-5.5993652c-6.399353-0.7998657-14.3984985-1.5997925-19.9978638,0.7999268
		c-1.5997925,1.5997925-3.199646,3.199646-2.3997192,4.7994385c-0.7999268,2.3997803,7.1992188,3.199707,1.5997925,3.9995728
		c-2.3997803,4.7994995-3.9995728,10.3989258-3.9995728,15.998291c-5.5993652,0.7998657-10.3989258-0.7999268-15.1983643,1.5997925
		c-1.5997925,0.7999268-1.5997925,2.3997803-0.7999268,3.9995728c0.7999268,0.7999268,2.3997803,0.7999268,3.199707,2.3997803
		c-0.7999268,5.5993652-7.9991455,9.598938-5.5993652,15.99823c0.7998657,6.399353,4.7994385,11.1988525,7.1992188,15.998291
		c-2.3997803,4.7994385-5.5993652,9.598938-6.399353,14.3984375c0.7999268,15.998291-1.5997925,30.3967285-0.7998657,45.5950928
		c-5.5994263,8.7990723-7.1992798,19.9978027-11.1988525,29.5968018c-2.3997192,10.3988037-1.5997925,22.397583,0,31.99646
		c-0.7998657,15.998291,1.5998535,32.7965088,2.3997803,48.7947998c1.5997925,7.1992188,3.199646,13.5985107,7.9991455,19.9978027
		c0,1.5998535,1.5997925,3.199585,2.3997803,5.5993652c-0.7999268,5.5993652,4.7994385,8.7991943,5.5993652,13.5985107
		c-1.5997925,1.5998535,0.7998657,3.199585,1.5997925,4.7995605c0,1.5998535-3.199646,1.5998535-1.5997925,3.199585
		c3.9995728,5.5993652,11.9986572,9.598999,12.798584,15.1983643c1.5997925,0.7999268,0,2.3997803,1.5997925,3.199585
		c1.5997925,5.5993652,1.5997925,11.9986572,1.5997925,18.3980713c-3.199646,10.3988037-9.598938,23.1973877-1.5997925,32.7965088
		c3.9995728,4.7994385,8.7990723,9.598877,12.798645,15.1982422c1.5997925,2.3997803-2.3997803,2.3997803-3.199707,3.9995117
		c-10.3988647,9.598999-17.5980835,20.7978516-24.7973022,31.996582
		c-3.9995728,6.399292-11.9987183,10.3989258-15.1983643,17.5981445c-3.9995728,15.1982422-9.598938,30.3967285-9.598938,46.3948975
		c0,8.7991943-8.7990112,18.3980713-0.7998657,26.3972168c-0.7999268,3.199585,1.5997925,5.5993652,1.5997925,7.9991455
		l-0.7999268,0.7999268c1.5997925,1.5998535,3.9995728,3.199585,6.399353,3.9996338
		c0.7998657,0.7999268,0.7998657,2.3997803,1.5997925,2.3997803c2.3997803,0,3.199646-3.199707,6.399353-2.3997803
		c3.199646-1.5998535,1.5997925-5.5993652,3.199646-8.7991943c1.5997925-2.3996582,4.7994385-3.9995117,3.199646-7.1990967
		c-1.5997925-7.1992188-12.798584-10.3989258-9.598938-18.3980713c4.7994995-11.9986572,10.3989258-22.397583,19.197937-33.5963135
		c0,0,0.7999268,0,1.5997925,0c0.7999268,2.3997803,0.7999268,6.399292,5.5993652,7.1992188
		c3.199707,0.7999268,5.5994263,3.199585,9.598938,3.9995117c3.199707,3.199585,8.7990723,3.9995117,13.5985107,3.199585
		c1.5998535-0.7999268,3.199707-0.7999268,4.7994995,0c0.7998657,0.7999268,1.5997925,2.3997803,1.5997925,3.199585
		c0.7999268,0.8000488,1.5997925,0,1.5997925-0.7999268c0,0,0.7999268,0.7999268,0.7999268,0s0-2.3997803,0.7998657-3.199585
		h0.7999268c2.3997803,1.5997314,5.5993652,3.9995117,9.598938,3.199585
		c3.199646-0.7999268,3.9995728-5.5993652,7.9991455-3.9995117c1.5997925,0.7999268,3.9995728,0.7999268,6.399292,0
		c2.3997803-0.8000488,0.7999268-3.9996338,3.199707-4.7995605c2.3997192,0.7999268,6.399292,0.7999268,8.7990112-0.7999268
		c2.3997803-3.199707,2.3997803-6.3994141,6.399353-8.7991943c3.199646-3.199585,0-7.9991455,5.5993652-9.598877
		c3.9995728,0,8.7990112-0.7999268,10.3988647-3.9996338c0.7999268-1.5997314,0.7999268-3.9995117,2.3997803-5.5993652h2.3997803
		c0,0-0.7999268-0.7999268,0-0.7999268h0.7999268l-1.5998535-0.7999268c0.7999268-1.5998535,3.199707-1.5998535,4.7994995-3.199585
		c1.5997925,0,3.199646,1.5997314,3.9995728,2.3997803c0,0,0,0,0-0.8000488
		c0.7998657,1.5998535,1.5997925,2.3997803,2.3997803,3.9996338c6.399292,8.7990723,16.7981567,17.5980225,19.197876,27.9969482
		c11.9987183,12.7987061,15.1984253,28.796875,24.7973633,43.1953125c3.199646,6.399292,5.5993652,13.5985107,7.1992188,20.7977295
		c-2.3997803,5.5993652-0.7999268,11.9987793-0.7999268,16.7982178c0.7999268,1.5998535-0.7998657,3.9996338,1.5997925,3.9996338
		c1.5998535,0,2.3997803-0.8000488,3.9995728-1.5998535c2.3997803,0.7999268,5.5993652,1.5998535,7.1992798,0.7999268
		c3.9995117,1.5998535,5.5993652-2.3996582,8.7990112-2.3996582c0-3.199707,4.7994385-0.8000488,5.5993652-3.9996338
		C746.4926758,1446.3300781,745.692749,1439.9307861,740.0933228,1435.9311523L740.0933228,1435.9311523z M680.0997925,1296.7463379
		l2.3997803-0.8000488l0,0C681.699707,1296.7463379,680.8997192,1296.7463379,680.0997925,1296.7463379L680.0997925,1296.7463379z
		 M660.9018555,1339.1416016L660.9018555,1339.1416016c0.7999268,0,0.7999268,0.8000488,1.5998535,0.8000488
		C661.7018433,1339.9416504,661.7018433,1339.1416016,660.9018555,1339.1416016L660.9018555,1339.1416016z
		 M648.1032715,1351.9403076L648.1032715,1351.9403076L648.1032715,1351.9403076l1.5997925-1.5998535
		C649.703125,1351.1403809,648.9031982,1351.1403809,648.1032715,1351.9403076L648.1032715,1351.9403076L648.1032715,1351.9403076
		L648.1032715,1351.9403076z M643.303833,1352.7402344c0.7998657,0,1.5997925-0.7999268,2.3997192-0.7999268
		C644.9036255,1352.7402344,644.1036987,1353.5400391,643.303833,1352.7402344L643.303833,1352.7402344z M622.5060425,1372.7380371
		c1.5998535,0,1.5998535-1.5997314,2.3997803-1.5997314l0,0l3.9995728-1.5998535v1.5998535
		c-0.7998657,1.5997314-3.199646,2.3997803-4.7994385,2.3997803
		C623.3059692,1372.7380371,622.5060425,1373.5379639,622.5060425,1372.7380371L622.5060425,1372.7380371z
		 M612.9071045,1377.5374756c1.5997925-0.7999268,2.3997192-1.5997314,3.9995117-2.3997803
		c0.7999268,0.8000488,0,0.8000488,0,1.5998535C616.1067505,1377.5374756,613.7070313,1377.5374756,612.9071045,1377.5374756
		L612.9071045,1377.5374756z M612.1071777,1374.3378906h0.7999268H612.1071777L612.1071777,1374.3378906L612.1071777,1374.3378906z
		 M598.508667,1379.9372559c2.3997803,0,3.9995728-0.7999268,6.399353-1.5998535
		C604.1080322,1379.9372559,600.1084595,1381.5371094,598.508667,1379.9372559L598.508667,1379.9372559z M595.309021,1376.7376709
		c1.5997925,0,3.9995728,0.7999268,6.399292,0.7999268c-0.7998657,0.7999268-3.199646,0.7999268-3.9995728,0.7999268
		C596.1088867,1378.3374023,594.5090942,1377.5374756,595.309021,1376.7376709L595.309021,1376.7376709z M586.5099487,1375.1376953
		C587.3098755,1375.1376953,587.3098755,1375.1376953,586.5099487,1375.1376953c0.7999268,0,0.7999268,0,0.7999268,0
		C587.3098755,1375.9377441,587.3098755,1375.9377441,586.5099487,1375.1376953L586.5099487,1375.1376953z M576.111084,1377.5374756
		c0.7998657,0,2.3997192-1.5997314,3.9995728,0C578.5108032,1378.3374023,576.9109497,1378.3374023,576.111084,1377.5374756
		L576.111084,1377.5374756z M567.3120117,1370.3383789C568.1119385,1371.1381836,568.1119385,1371.1381836,567.3120117,1370.3383789
		L567.3120117,1370.3383789C568.1119385,1371.1381836,567.3120117,1371.1381836,567.3120117,1370.3383789L567.3120117,1370.3383789z
		 M555.3133545,1366.3387451c3.199646,0,2.3997192,2.3997803,3.199646,3.9996338
		C556.1132202,1369.5383301,554.5134277,1367.1385498,555.3133545,1366.3387451L555.3133545,1366.3387451z
		 M664.9014282,1260.7502441c-0.7998657,0-0.7998657,0-1.5997925,0l-0.7998657-3.199585
		C663.3016357,1258.3504639,664.1015625,1259.9501953,664.9014282,1260.7502441L664.9014282,1260.7502441z
		 M674.5004272,1292.7467041c-0.7998657,0.8000488-0.7998657,2.3997803-3.199646,2.3997803
		c0-0.7999268-0.7999268-1.5997314,0-2.3997803C672.9005737,1292.7467041,672.9005737,1292.7467041,674.5004272,1292.7467041
		L674.5004272,1292.7467041z M677.7001343,1311.9445801l-1.5997925-4.7994385l0.7998657,0.7999268L677.7001343,1311.9445801
		L677.7001343,1311.9445801z M674.5004272,1309.5447998c-1.5997925-2.3996582-2.3997192-4.7994385-3.9995728-6.399292l0,0
		C672.9005737,1304.7454834,673.7005615,1307.1451416,674.5004272,1309.5447998L674.5004272,1309.5447998z"/>
	<path class="st3" d="M932.0725708,1259.9501953c7.9991455,30.3967285-3.199707,43.1953125-26.3971558,69.5925293
		c-6.399353,2.3997803-13.5985107,3.199585-19.9978638,6.399292c-5.5993652,3.199585-6.399353,8.7990723-11.9987183,12.7987061
		c-3.199646,3.199585-10.3988647,4.7994385-9.598938,8.7990723c1.5997925,11.1987305,6.399353,19.9978027,11.1987915,30.3967285
		h3.9995728c9.598938,11.9986572,28.796875,31.1965332,35.196228,40.7956543
		c2.3997803,5.5993652-0.7999268,9.598877-0.7999268,15.1982422c0,0.8000488,1.5998535,1.5998535,2.3997803,2.3997803
		c1.5997925,0.8000488,3.199707,1.5998535,4.7994995,1.5998535c2.3997192,0.7999268,2.3997192,1.5997314,4.7994385,2.3997803
		c3.9995728,3.199585,7.9991455,5.5993652,13.5985107,6.399292c0.7999268,0,0.7999268-0.7999268,0.7999268-1.5998535
		c-0.7999268-1.5997314-3.9995728-2.3996582-4.7994995-3.199585c-0.7998657-0.7999268-0.7998657-1.5997314-0.7998657-2.3997803
		c3.199646-1.5997314,12.798584-3.199585,13.5984497-5.5993652c0-1.5997314-7.1992188,0.8000488-8.7990112,0
		c0.7999268-1.5997314,1.5997925-2.3997803,2.3997803-3.9995117c0.7998657-3.199585,0-3.9996338-2.3997803-0.7999268
		c-1.5997925,1.5997314-2.3997803,3.199585-3.9995728,4.7994385c0-0.7999268,0.7999268-2.3997803,0-2.3997803
		c-0.7998657,0-4.7994385,2.3997803-5.5993652,2.3997803c-0.7999268-0.7999268-2.3997803-1.5997314-3.199646-2.3997803
		c-0.7999268-1.5997314,0-3.199585-0.7999268-3.9995117c0.7999268,0.7999268,1.5997925,4.7995605,3.199646,4.7995605
		c0.7999268,0,1.5998535-0.8000488,1.5998535-0.8000488c0-2.3996582-1.5998535-7.1990967-0.7999268-11.1987305
		c0-1.5997314,0-3.199585-1.5997925-4.7994385c-2.3997803-2.3997803-3.199646-0.8000488-4.7994995-3.199707
		c-8.7990112-11.9986572-16.7981567-30.3967285-23.9973755-43.1951904c-1.5997925-2.3997803,1.5997925,0,0-2.3997803
		c0-1.5998535-3.199646-1.5998535-3.199646-3.199585c1.5997925-2.3997803,4.7994385-3.199585,6.399292-3.199585
		c13.5985107,9.598877,18.3980713,1.5997314,29.5968018,4.7994385c3.199646,0.8000488,19.197937,8.7991943,19.197937,11.9987793
		c-3.199707,0-19.197937,0.7999268-21.5976563,13.5985107c-0.7999268,3.9995117,1.5997925,7.1990967,3.199646,10.3988037
		c0.7999268,1.5998535-0.7998657,3.199707-0.7998657,4.7995605c-3.9995728,3.9996338,7.1992188,10.3989258,9.598938,15.998291
		c3.199646,7.1992188,12.798584,3.199585,16.7981567,8.7990723c10.3989258,13.5985107,38.395874,11.1987305,54.394165-11.1987305
		c-1.5998535,1.5998535-7.9991455,1.5998535-10.3989258,0c9.598938-1.5997314,11.1987915-1.5997314,11.9987183-14.3984375
		c-2.3997803,3.199585-2.3997803,4.7995605-4.7994995,3.9995117c-3.199646-7.9991455-5.5993652-4.7994385-2.3997192-12.798584
		c1.5997925-4.7995605-5.5994263-11.9987793-7.9991455-15.1983643c-2.3997803-3.199585,3.199646-8.7990723-10.3989258-9.598877
		c-2.3997803-6.3994141,14.3984985-13.5985107,21.5976563-13.5985107c8.7990112-0.8000488,19.197876-0.8000488,22.397583-9.598999
		c2.3996582-6.399292,0.7999268-15.1982422,3.199585-20.7977295c7.1990967-15.1983643,19.9978027-15.1983643,22.397583-27.9970703
		c1.5997314-6.399292,3.9995117-5.5993652,13.5985107-10.3988037c18.3980713-3.9996338,37.5959473-6.3994141,56.7939453-7.1992188
		c-1.5998535-3.199585,14.3984375,0,19.197876,1.5998535c3.9995117,1.5997314,13.5983887,6.399292,15.1982422,5.5993652
		c4.7995605-2.3997803,11.1987305-3.199707,16.7982178-7.9991455c0.7999268-0.8000488,2.3997803-2.3997803,3.199585-3.199585
		c8.7991943-5.5993652,5.5993652-7.9991455-1.5997314-4.7995605c-1.5998535,0.7999268-0.8000488-3.199585-0.8000488-4.7995605
		c-0.7999268-2.3997803-1.5997314-1.5997314-3.199585,0c0-0.7999268-2.3997803-2.3997803-3.199585,0
		c-0.7999268,1.5998535,0,5.5993652-0.7999268,6.399292c-1.5998535,1.5998535-7.9991455,4.7995605-11.9987793,3.199707
		c-6.399292-2.3997803,5.5994873-4.7995605,6.3994141-5.5993652c1.5997314-1.5998535-1.5998535-3.199707-2.3997803-2.3997803
		c-6.399292,2.3997803-9.598999,1.5997314-12.7987061,3.9995117c-3.9995117,2.3997803-15.1982422-4.7995605-26.3970947-5.5993652
		c0.7999268-3.199585-1.5998535-4.7995605,1.5997314-8.7990723c-16.7982178,1.5997314-43.9952393,3.199585-60.793457,5.5993652
		c-5.5993652-0.7999268-8.7990723,2.3997803-11.1987305,1.5998535c-8.7990723,3.199585-5.5993652,1.5997314-11.1987305,7.1990967
		c-2.3997803,0.7999268-4.7995605,0.7999268-7.1992188,2.3997803c-3.199585,2.3997803-7.1990967,6.399292-9.598877,9.598877
		c-3.9996338-11.9986572,15.1982422-28.796875,22.397583-38.395752c-6.399292,0-3.9995117-5.5994873-9.598877-5.5994873
		c31.1965332-29.5966797,24.7973633-63.1931152,25.597168-101.5888672c-3.199585-0.8000488-5.5993652-0.8000488-8.7990723-1.5998535
		c-0.8000488-11.1987305-6.3994141-39.9957275-5.5993652-47.994873
		c0.7999268-11.9986572,20.7977295-19.197876,27.1968994-32.7963867
		c12.7987061-24.7973633,13.5985107-50.3946533,21.5976563-75.9918213
		c2.3997803-7.9991455,9.598999-12.798645,12.7987061-19.9978638c4.7995605-10.3988647,12.7987061-23.9973755,4.7995605-34.3963013
		c-2.3997803-3.199646-14.3984375-7.9991455-18.3980713-7.1992188c-10.3989258,0-7.9991455,17.5980835-11.1987305,23.1975098
		c-3.199585,5.5993652-3.199585,11.9987183-3.199585,17.5980835c0,2.3997192-3.9996338,6.399292-4.7995605,8.7990112
		c-0.7999268,3.199646,0,6.399353-0.7999268,9.598938c-13.5985107,41.59552-45.5950928,67.9927368-70.3924561,103.1889038
		c-3.9995728,5.5993652,0,42.3953857-0.7998657,51.1943359c-6.399353,0-12.798645-0.7999268-19.197937-0.7999268
		c-3.9995728-15.998291-7.9991455-31.996582-11.1987915-48.7947998
		c-3.199707-15.1982422-11.1988525-30.3967285-14.3984985-39.9956055
		c-3.199646-8.7991943,1.5997925-16.7983398-0.7998657-26.3972168
		c-5.5994263-19.9978638-15.1984253-41.595459-11.9987183-62.3932495c1.5997925-3.9995728,5.5993652-8.7990723-1.5997925-19.9978638
		c-2.3997803-2.3997803-7.1992798-0.7999268-9.598938-3.199646c-3.9995728-2.3997803-7.1992798-6.399353-10.3989258-9.598938
		c-5.5993652-5.5993652-31.996521-15.1983643-35.9960938-4.7994995
		c-2.3997803,6.399353,10.3988647,11.9987183,14.3984375,15.1983643c7.1992798,5.5993652,17.5980835,12.798645,19.9978638,22.397644
		c7.9991455,35.9960938-4.7994995,73.592041,7.9991455,110.3879395c3.199646,9.598999,2.3997192,19.197876,2.3997192,28.7969971
		c0.7999268,13.5985107,2.3997803,26.3972168,3.9995728,39.9956055c-1.5997925,0.8000488-3.199646,0.8000488-4.7994385,1.5998535
		c7.9991455,29.5968018,12.798584,54.394165,10.3988647,83.9909668c-0.7998657,9.598877-0.7998657,17.5980225,0,27.1970215
		C941.6715698,1258.3504639,933.6724243,1259.1502686,932.0725708,1259.9501953L932.0725708,1259.9501953z"/>
	<g class="st2">
		<path d="M1599.2004395,1300.7458496c-3.199585-3.9995117-8.7990723-3.9995117-11.9987793-6.399292
			c-4.7994385-3.9996338-8.7990723-3.199585-14.3984375-2.3997803c-3.9995117,0.7999268-9.598877,1.5998535-11.9986572,5.5993652
			c-3.199585,0-4.7995605,1.5998535-7.9991455,1.5998535c-3.9996338,0-7.9991455,0-11.9987793,0
			c-6.399292,0-12.798584,0-17.5980225,3.9995117c-5.5993652,5.5993652-10.3989258,9.598999-17.5980225,13.5985107
			c-5.5993652,3.199585-11.1987305,7.1992188-15.998291,10.3989258c-0.7999268,0.7999268-2.3997803,1.5997314-3.199585,2.3997803
			c0-0.8000488-0.8000488-0.8000488-1.5998535-1.5998535c-0.7999268,0.7999268,0,1.5998535,0.7999268,1.5998535
			c-1.5997314,0.7999268-3.199585,1.5997314-4.7994385,3.199585c-2.3997803,1.5997314-3.9996338-0.7999268-4.7995605,0
			c-0.7999268-11.9986572-1.5998535-23.1975098-1.5998535-35.196167c0-5.5993652,0-11.9986572,0-17.5980225
			c0.8000488-1.5998535-1.5997314-0.8000488-1.5997314-1.5998535c0-3.9995117-0.8000488-7.9991455-0.8000488-11.9986572
			c0-1.5998535-1.5997314-15.998291,0.8000488-15.998291c3.9995117,0,3.199585-6.399292,2.3997803-9.598999
			c0-7.9991455-3.199707-20.7977295,3.199585-27.1968994c0.7999268-3.199707-2.3997803-0.8000488,0.7999268-3.9996338
			c1.5998535-1.5998535,3.199585-3.9995117,5.5993652-6.399292c3.199585-3.9996338,6.399292-7.9991455,9.598999-12.7987061
			c7.1990967-9.598877,13.5985107-19.197876,19.197876-29.5968018c5.5993652-9.598877,10.3988037-19.9978027,14.3984375-30.3967285
			c3.9995117-9.598877,15.1982422-19.197876,15.998291-29.5968018c0.7999268-11.1987305-5.5993652-19.197876-13.5985107-26.3970947
			c-9.598999-7.9991455-18.3980713-16.7982178-27.1970215-25.597168
			c-17.5981445-16.7983398-36.7961426-32.7965088-50.3946533-52.7943115c0-0.7999268-3.9995117-11.1988525-1.5997314-9.598938
			c3.9995117,2.3997192,3.199585-0.7999268,3.9995117-5.5993652c0.8000488-3.199707,5.5993652-3.9995728,6.3994141-7.9991455
			c0.7999268-3.9995728,6.399292-6.399353,11.1987305-6.399353s11.1987305,0.7999268,11.9986572-4.7994385
			c0.7999268-4.7994995-1.5998535-7.9991455-4.7995605-11.1988525c-7.1990967-8.7990112-18.3979492-5.5993652-27.1970215-0.7998657
			c-9.598877,4.7994385-17.5980225,10.3988647-28.796875,11.9987183c1.5998535-5.5993652,3.9995117-10.3989258,6.399292-15.1983643
			c1.5998535-2.3997803,2.3997803-4.7994995,3.9996338-7.1992798c1.5997314-0.7998657,3.9995117-1.5997925,4.7994385-3.199646
			c2.3997803-3.9995728,3.199707-9.598938-2.3996582-10.3989258c-6.3994141,0-12.7987061-2.3997192-19.197876-2.3997192
			c-10.3989258-0.7999268-15.1983643,10.3988647-19.197876,17.5980225
			c-3.199707,7.1992798-13.5985107,19.197937-10.3989258,27.1970825c1.5997314,4.7994995,2.3997803,8.7990723,6.399292,11.9987183
			c3.199585,3.199646,7.1992188,4.7994385,10.3989258,7.9991455c7.9991455,7.9991455,11.1987305,19.9978027,14.3984375,29.5967407
			c7.1992188,22.397583,13.5985107,43.9952393,28.7969971,62.3933105c3.199585,3.9995117,6.399292,9.598877,11.1987305,11.1987305
			c6.399292,2.3997803,1.5997314,8.7990723-0.8000488,12.7987061c-4.7994385,10.3988037-11.9986572,19.197876-19.9978027,27.9969482
			c-7.1990967,8.7990723-14.3984375,17.5980225-21.5976563,27.1970215
			c-3.9995117,4.7994385-7.1990967,9.598877-10.3988037,15.1982422c-1.5998535,2.3997803-3.199707,4.7995605-4.7995605,7.9991455
			c-2.3997803,3.199585-3.199585,2.3997803-7.1992188,2.3997803c-4.7995605,3.199585-7.1990967,5.5993652-9.598877,10.3989258
			s-5.5993652,9.598877-7.1992188,14.3984375c-1.5998535,9.598999,0,19.197876,5.5993652,27.1970215
			c3.9996338,6.399292,9.598999,11.9986572,13.5985107,18.3980713c8.7990723,5.5993652,10.3989258,16.7982178,15.998291,24.7973633
			c0.7999268,10.3988037-6.399292,17.5980225-11.9986572,26.3970947
			c-4.7995605,7.9991455-8.7991943,23.1975098-17.5981445,27.1970215c-3.199585,1.5998535-8.7990723-3.199585-12.7987061-3.199585
			c-3.199585-0.7999268-4.7994385,0-7.9990234-0.7999268c-2.3997803-1.5998535-4.7995605-2.3997803-7.9991455-3.199585
			c-5.5993652-2.3997803-7.1992188-4.7995605-11.1987305-8.7991943c-4.7995605-3.199585-9.598999-4.7994385-15.1983643-5.5993652
			c-11.1987305-1.5997314-22.397583-1.5997314-33.5963135-0.7999268c-11.9987793,0.7999268-25.59729,3.199585-36.7961426,1.5998535
			c-6.399292-0.8000488-9.598877-3.199707-15.9981689-1.5998535c-4.7995605,0.7999268-9.598999,3.199585-14.3985596,3.9995117
			c-3.9995117,0.8000488-7.9991455,3.199707-11.9986572,4.7995605c-3.199585,1.5998535-8.7990723,1.5998535-10.3989258,5.5993652
			c2.3997803,0.8000488,5.5993652,0,8.7990723-1.5997314c-0.7999268,2.3997803-3.199585,3.9995117-3.9995117,6.399292
			c-0.7999268,3.9995117,3.199585,0,4.7995605,0c3.199585-0.7999268,6.399292-4.7995605,9.598877-7.1992188
			c1.5998535,0.8000488,2.3997803,0.8000488,3.9996338,0c2.3997803-1.5997314,4.7994385-0.7999268,7.9991455-1.5997314
			c10.3988037-0.7999268,18.3979492-2.3997803,28.796875,0.7999268c8.7990723,2.3997803,17.5980225,4.7995605,25.597168,7.1992188
			c8.7991943,2.3997803,18.3980713,3.9995117,27.9970703,4.7994385c5.5993652,0,11.1987305-0.7999268,15.1982422,1.5998535
			c3.9996338,3.199585,8.7990723,6.399292,13.5985107,8.7990723c4.7995605,3.199585,7.1992188,4.7995605,9.598877,10.3989258
			c1.5998535,3.199585,3.9996338,6.399292,7.1992188,9.598999c7.1992188,7.1990967,12.7987061,10.3988037,23.1975098,9.598877
			c6.399292,0,15.1982422,1.5998535,19.197876,6.399292c3.199585,3.9996338,3.9995117,7.9991455,3.199585,11.9987793
			c-1.5998535,2.3997803-4.7995605,4.7994385-7.1992188,5.5993652c-1.5997314,2.3997803-3.199585,4.7995605-6.399292,6.399292
			c-0.8000488-0.7999268,0.7999268-3.199585,0-3.9995117l-2.3997803-1.5998535l0,0
			c1.5997314,0.7999268,2.3997803,3.199585,1.5997314,4.7995605c-2.3996582,3.199585-7.9990234,6.399292-4.7994385,10.3989258
			c2.3997803,0.7999268,3.9995117,3.199585,4.7994385,4.7994385c-1.5997314,0.8000488-0.7999268,2.3997803-1.5997314,3.9996338
			c0,1.5997314,1.5997314,3.199585,0.7999268,4.7995605c0.7999268,0.7999268,0.7999268,2.3996582,0,3.199585
			c-1.5997314,2.3997803-7.9991455,0.7999268-5.5993652,4.7994385c5.5993652,1.5998535,0,8.7991943,6.399292,9.598999
			c1.5998535,1.5998535,4.7995605,2.3997803,4.7995605,4.7995605c0.8000488,3.199585,6.3994141,3.199585,3.9996338,7.1990967
			c0,0.8000488,0.7999268,2.3997803,1.5997314,2.3997803c2.3997803,0,3.9996338-0.7999268,5.5993652,0
			c0,1.5998535,1.5998535,3.9996338,3.9996338,3.9996338c4.7994385,3.199585,8.7990723-3.199707,13.5985107,0
			c3.199585,0.7999268,7.1990967,0.7999268,11.1987305,0.7999268c2.3997803-1.5998535,5.5993652-4.7995605,7.9991455-3.199585
			c0,0.7999268,0.7999268,0.7999268,0.7999268,1.5997314c2.3997803-0.7999268,0-2.3997803,0-3.9995117
			c2.3997803-0.7999268,3.9995117-2.3997803,5.5993652-4.7995605c2.3997803-0.7999268,6.399292-1.5997314,6.399292-4.7995605
			c3.9996338,0,7.9991455-1.5997314,10.3989258-4.7994385c0-2.3997803-1.5997314-3.9996338-3.199585-4.7995605
			c0.7999268-1.5998535,3.199585-1.5998535,3.199585-3.199585c0-1.5998535,0.7999268-3.9996338-0.7999268-4.7995605
			c-0.7999268-1.5998535,1.5997314-0.7999268,0.7999268-2.3997803c-1.5997314-0.7999268-1.5997314-3.199585-1.5997314-4.7995605
			c-0.8000488-2.3997803,1.5997314-3.9995117,0.7999268-7.1990967c-3.9996338-1.5998535-0.7999268-5.5993652-3.199585-8.7990723
			c-1.5998535-3.199707-6.3994141-4.7995605-6.3994141-8.7991943c-0.7999268-0.7999268-3.199585,0.8000488-2.3997803-1.5997314
			c0.8000488-0.8000488,2.3997803-0.8000488,2.3997803-1.5998535c3.199707,2.3997803,6.3994141,0,9.598999-1.5997314
			c2.3997803-1.5998535,0.7999268-6.3994141,4.7995605-5.5993652c2.3996582,0,4.7994385-0.8000488,6.399292-3.199707
			c1.5997314-2.3996582,0-6.399292,3.9995117-7.9991455c1.5998535-0.7999268,3.199707,0.8000488,3.9996338,1.5998535v3.9996338
			c1.5997314-0.8000488,0.7999268-3.199707,0.7999268-4.7995605c-0.7999268-1.5998535-2.3997803-3.199585-3.9995117-3.199585
			c-1.5998535,0.7999268-3.9996338,1.5997314-4.7995605,2.3996582c0-0.7999268-0.7999268-3.9995117,2.3997803-4.7994385
			c1.5997314,0,3.199585-0.8000488,3.9995117,0c0.8000488,0,0.8000488,2.3997803,2.3997803,1.5997314
			c0-1.5997314-0.7999268-3.199585-2.3997803-3.9995117h-2.3997803c3.199707-3.199585-3.9995117-8.7990723,3.199707-7.9991455
			c0-1.5998535-1.5998535-2.3997803-2.3997803-3.9996338c0-0.7999268,0.7999268-1.5997314,0.7999268-2.3996582
			c0-0.8000488,0.7999268-0.8000488,0.7999268-1.5998535c7.1992188-7.1992188,15.1983643-13.5985107,23.1975098-19.9978027
			c3.9995117-3.9996338,7.9991455-7.1992188,12.798584-11.1987305c2.3997803-1.5998535,4.7995605-3.199585,7.1992188-4.7995605
			c2.3997803,0,4.7995605,0,7.9991455-0.7999268c8.7990723-2.3997803,12.7987061-9.598999,20.7977295-11.9987793
			c6.3994141-1.5997314,7.9991455-3.9995117,12.7987061,0c3.199585,2.3997803,6.399292,5.5993652,11.1987305,5.5993652
			c-1.5997314-4.7994385-7.1990967-7.1990967-11.1987305-10.3988037c7.1992188,0.7999268,11.9986572,6.399292,18.3980713,8.7990723
			c8.7990723,3.199585-3.9996338-11.1987305-4.7995605-12.7987061
			C1591.2012939,1299.9459229,1595.2008057,1302.3457031,1599.2004395,1300.7458496L1599.2004395,1300.7458496z
			 M1469.614502,1435.1312256v2.3997803c0,0.7999268-0.8000488,1.5998535-1.5998535,1.5998535
			C1468.0146484,1437.5310059,1468.0146484,1435.9311523,1469.614502,1435.1312256L1469.614502,1435.1312256z
			 M1460.0155029,1449.5296631l6.399292-7.1990967l2.3997803,1.5997314c0.8000488,0.8000488,0,2.3997803-0.7999268,3.199707
			C1465.6148682,1449.5296631,1463.2150879,1450.3297119,1460.0155029,1449.5296631L1460.0155029,1449.5296631
			L1460.0155029,1449.5296631z M1392.8227539,1435.1312256c-1.5998535,0.7999268-1.5998535,3.199585-1.5998535,3.9996338v0.7999268
			v-0.7999268c-0.7999268-1.5998535-3.9995117-1.5998535-3.199585-3.199707
			C1389.6230469,1435.1312256,1392.0228271,1435.1312256,1392.8227539,1435.1312256L1392.8227539,1435.1312256z
			 M1393.6226807,1446.3300781c-1.5998535-0.7999268-1.5998535-2.3997803-1.5998535-3.9995117
			C1393.6226807,1443.1303711,1393.6226807,1444.7303467,1393.6226807,1446.3300781L1393.6226807,1446.3300781z
			 M1391.2229004,1416.7332764l-1.5998535-0.7999268c-0.7999268-0.7999268,0-2.3997803,0-3.199585
			c0.8000488-1.5998535,2.3997803-2.3997803,3.9996338-3.199585
			C1395.2224121,1411.9338379,1391.2229004,1413.5335693,1391.2229004,1416.7332764L1391.2229004,1416.7332764z
			 M1486.4125977,1080.7696533C1486.4125977,1079.9697266,1485.6126709,1080.7696533,1486.4125977,1080.7696533z
			 M1477.6135254,1136.7636719c2.3997803-6.3994141,2.3997803-12.7987061,5.5993652-18.3980713
			c3.199707-5.5993652,6.3994141-11.1987305,7.1992188-17.5981445c0-3.9995117-0.7999268-17.5980225-3.199585-19.9978027
			c4.7995605,3.199585,7.9991455,7.1992188,12.7987061,10.3989258c4.7994385,3.199585,15.9981689,4.7995605,10.3988037,11.1987305
			C1501.6109619,1115.1658936,1489.6123047,1127.1645508,1477.6135254,1136.7636719L1477.6135254,1136.7636719z
			 M1476.0137939,1387.9364014c1.5997314,0,3.199585-2.3997803,3.199585-3.199585h0.7999268
			c0,0.7999268-0.7999268,1.5997314-1.5997314,3.199585
			C1477.6135254,1387.9364014,1476.8135986,1387.9364014,1476.0137939,1387.9364014L1476.0137939,1387.9364014z
			 M1472.8140869,1386.3365479c0-0.7999268,0-1.5997314,0.7999268-1.5997314c0,0.7999268,1.5998535,1.5997314,2.3997803,1.5997314
			C1475.2138672,1386.3365479,1473.6140137,1387.1364746,1472.8140869,1386.3365479L1472.8140869,1386.3365479z
			 M1428.8188477,1464.7281494h0.7999268c1.5998535,0,3.199585-0.7999268,4.7995605-0.7999268
			c1.5997314-0.8000488,4.7994385-1.5998535,6.399292,0c-0.7999268,0.7999268-1.5998535,1.5997314-2.3997803,1.5997314
			c-3.199585,0.8000488-6.399292,0-8.7990723-0.7999268
			C1428.8188477,1464.7281494,1428.8188477,1464.7281494,1428.8188477,1464.7281494L1428.8188477,1464.7281494z
			 M1465.6148682,1051.1727295c-12.7987061-19.197876-31.1965332-35.9960327-40.7956543-57.593689
			c3.199585,4.7994385,7.9991455,7.1992188,11.1987305,11.9987183c3.9996338,3.9995728,7.1992188,8.7990112,10.3989258,13.5985107
			C1454.4160156,1029.5751953,1460.8153076,1039.973999,1465.6148682,1051.1727295L1465.6148682,1051.1727295z
			 M1465.6148682,1051.9727783C1465.6148682,1051.1727295,1465.6148682,1051.9727783,1465.6148682,1051.9727783z
			 M1580.0025635,1299.9459229L1580.0025635,1299.9459229z M1580.8023682,1299.9459229
			C1580.8023682,1300.7458496,1580.8023682,1299.9459229,1580.8023682,1299.9459229z M1581.6022949,1300.7458496
			L1581.6022949,1300.7458496z M1584.0020752,1301.5457764c-0.7999268,0-1.5997314-0.8000488-0.7999268-0.8000488
			C1582.4022217,1301.5457764,1584.0020752,1301.5457764,1584.0020752,1301.5457764L1584.0020752,1301.5457764z"/>
	</g>
</g>
</svg>
