<?xml version="1.0" encoding="utf-8"?>
<!-- Generator: Adobe Illustrator 24.2.3, SVG Export Plug-In . SVG Version: 6.00 Build 0)  -->
<!DOCTYPE svg PUBLIC "-//W3C//DTD SVG 1.1//EN" "http://www.w3.org/Graphics/SVG/1.1/DTD/svg11.dtd" [
	<!ENTITY ns_extend "http://ns.adobe.com/Extensibility/1.0/">
	<!ENTITY ns_ai "http://ns.adobe.com/AdobeIllustrator/10.0/">
	<!ENTITY ns_graphs "http://ns.adobe.com/Graphs/1.0/">
	<!ENTITY ns_vars "http://ns.adobe.com/Variables/1.0/">
	<!ENTITY ns_imrep "http://ns.adobe.com/ImageReplacement/1.0/">
	<!ENTITY ns_sfw "http://ns.adobe.com/SaveForWeb/1.0/">
	<!ENTITY ns_custom "http://ns.adobe.com/GenericCustomNamespace/1.0/">
	<!ENTITY ns_adobe_xpath "http://ns.adobe.com/XPath/1.0/">
]>
<svg version="1.1" id="Слой_1" xmlns:x="&ns_extend;" xmlns:i="&ns_ai;" xmlns:graph="&ns_graphs;"
	 xmlns="http://www.w3.org/2000/svg" xmlns:xlink="http://www.w3.org/1999/xlink" x="0px" y="0px" viewBox="0 0 1600 1600"
	 style="enable-background:new 0 0 1600 1600;" xml:space="preserve">
<style type="text/css">
	.st0{fill:#FFFFFF;}
</style>
<metadata>
	<sfw  xmlns="&ns_sfw;">
		<slices></slices>
		<sliceSourceBounds  bottomLeftOrigin="true" height="1580" width="1129.5844727" x="235.2077637" y="-1590"></sliceSourceBounds>
	</sfw>
</metadata>
<g transform="translate(0.000000,500.000000) scale(0.100000,-0.100000)">
	<path class="st0" d="M9587.7421875,4895.1040039c-26.1123047-6.5283203-159.9404297-29.3769531-293.7675781-48.9614258
		c-577.7441406-94.6586914-1168.5444336-391.690918-1700.5908203-855.1914063l-186.0532227-163.2043457l313.3525391-156.6765137
		c1129.3754883-571.2155762,1991.0942383-1739.7593994,2271.8061523-3084.564209
		c313.3525391-1504.7451172-84.8662109-3215.1276855-1037.9804688-4448.9536133l-179.5244141-231.7504883l189.3164063-114.2431641
		c104.4511719-65.2817383,310.0888672-176.2607422,453.7089844-248.0708008l264.390625-133.8276367l-52.2246094-120.7709961
		c-26.1132813-65.2817383-78.3388672-176.2612305-110.9794922-241.5429688
		c-35.9052734-68.5458984-62.0175781-127.2993164-62.0175781-137.0917969c0-9.7919922,75.0742188-19.5844727,169.7324219-26.1123047
		c153.4121094-9.7924805,179.5253906-22.8486328,244.8066406-120.7714844
		c42.4335938-62.0175781,91.3945313-166.46875,114.2431641-235.0146484
		c52.2255859-182.7885742-3.2636719-283.9755859-238.2783203-430.859375
		c-235.0146484-146.8842773-323.1445313-277.4477539-323.1445313-479.8212891
		c0-186.0532227,71.8095703-293.7680664,329.6728516-505.9335938
		c336.2011719-270.9194336,339.4648438-450.4443359,26.1123047-776.8535156
		c-310.0878906-316.6166992-362.3134766-450.4443359-359.0498047-920.4726563
		c3.2646484-362.3144531,65.2822266-587.5361328,277.4482422-975.9628906l153.4121094-280.7119141l127.2988281,65.2822266
		l124.0361328,62.0175781l-172.9970703,313.3525391c-199.109375,362.3134766-264.3916016,623.4404297-235.0146484,962.90625
		c22.8486328,270.9194336,65.2822266,352.5214844,290.5039063,590.7998047
		c218.6943359,225.222168,287.2402344,365.578125,287.2402344,590.800293s-91.3945313,385.1625977-326.4091797,574.4794922
		c-316.6162109,257.8632813-326.4091797,368.8422852-55.4892578,545.1030273
		c287.2392578,182.7890625,359.0498047,280.7119141,375.3701172,502.6699219
		c13.0566406,159.9404297,0,228.4863281-71.8095703,378.6342773l-84.8671875,186.0532227l97.9228516-13.0566406
		c114.2431641-16.3203125,117.5078125-13.0561523,39.1689453,97.9228516
		c-32.640625,48.9614258-84.8662109,153.4121094-117.5068359,231.7504883
		c-45.6972656,117.5068359-48.9609375,150.1479492-13.0566406,169.7324219
		c22.8486328,16.3203125,55.4902344,29.3769531,68.5458984,29.3769531
		c45.6972656,0,711.5712891,391.6904297,936.7939453,548.3666992
		c1364.3896484,959.642334,2219.5800781,2252.2216797,2467.6513672,3743.9104004
		c75.0742188,450.4443054,78.3378906,1305.6356201,6.5283203,1697.3262939
		c-91.3945313,486.3493652-212.1660156,858.4554443-414.5390625,1272.994751
		c-656.0820313,1335.0124512-1818.0976563,2141.2426758-3153.1103516,2186.9399414
		C9812.9648438,4901.6318359,9613.8554688,4901.6318359,9587.7421875,4895.1040039z M11262.2197266,4092.1379395
		c809.4941406-270.9194336,1459.0478516-1162.0158691,1605.9326172-2203.2602539
		c22.8486328-146.8840332,6.5273438-127.2995605-208.9023438,297.0321045
		c-421.0673828,832.3427734-956.3779297,1472.104248-1602.6679688,1916.0202637
		C10945.6035156,4177.0043945,11017.4130859,4173.7402344,11262.2197266,4092.1379395z"/>
	<path class="st0" d="M5687.1557617,3798.369873c-509.1977539-68.5458984-1083.6777344-290.5039063-1521.0654297-587.5361328
		c-274.1835938-186.0529785-708.307373-607.1203613-913.9450684-884.5681152
		c-672.4023438-904.1525879-982.4909668-2053.1120605-881.3041992-3247.7685547
		c114.2431641-1328.484375,584.2719727-2389.3134766,1459.0478516-3303.2583008
		c538.5749512-564.6875,1067.3571777-959.6420898,1726.7033691-1299.1074219
		c163.2041016-81.6025391,297.0322266-153.4121094,303.5600586-156.6762695
		c3.2641602-3.2641602-42.4331055-117.5073242-104.4506836-254.5991211l-110.9790039-248.0708008l166.4682617-9.7919922
		c150.1484375-9.7924805,176.2612305-22.8486328,241.5429688-120.7714844
		c107.7148438-159.9404297,156.6762695-345.9936523,120.7709961-453.7084961
		c-16.3203125-48.9614258-107.7148438-137.0917969-208.9013672-205.6376953
		c-257.8632813-172.996582-329.6733398-261.1269531-349.2578125-430.859375
		c-26.112793-208.9018555,58.7539063-355.7861328,319.8808594-564.6875
		c176.2607422-140.355957,225.222168-199.109375,244.8066406-290.5043945
		c32.6411133-176.2607422-6.5283203-264.390625-215.4296875-489.6132813
		c-280.7119141-303.5605469-336.2011719-427.5957031-352.5219727-802.9658203
		c-16.3203125-401.4824219,26.112793-594.0644531,208.9018555-959.6425781
		c215.4296875-427.5947266,208.9018555-421.0673828,349.2573242-355.7851563l114.2431641,55.4892578l-176.2607422,345.9931641
		c-202.3735352,388.4267578-257.862793,629.9697266-228.4863281,943.3222656
		c29.3769531,280.7119141,55.4897461,336.2011719,280.7119141,581.0078125
		c231.7504883,244.8066406,297.0322266,378.6347656,300.2958984,603.8564453
		c0,218.6938477-88.1303711,372.1064453-319.8803711,561.4233398
		c-248.0708008,199.109375-297.0322266,290.5039063-225.222168,401.4829102
		c29.3764648,45.6972656,133.8276367,133.8276367,231.75,195.8457031
		c251.3349609,163.2041016,313.3525391,270.9189453,300.2963867,535.3105469
		c-6.5283203,117.5068359-35.9047852,261.1269531-68.5458984,323.1445313
		c-68.5458984,140.355957-71.8100586,133.8276367,26.112793,133.8276367s97.9228516,0,19.5844727,137.0917969
		c-35.9047852,58.7539063-88.1303711,163.2045898-117.5073242,228.4863281l-48.9609375,124.0356445l235.0141602,117.5068359
		c1018.3959961,512.4619141,1919.2841797,1302.371582,2480.7080078,2167.3554688
		c385.1621094,590.8000488,620.1767578,1158.7514648,767.0605469,1857.2666016
		c78.3378906,365.5780029,88.1308594,486.3492432,88.1308594,1064.0930176
		c3.2636719,718.0996094-45.6972656,1034.7163086-244.8066406,1615.7241211
		C9114.4492188,2482.9418945,8007.9233398,3514.394043,6764.3051758,3752.6726074
		C6444.4243164,3814.6904297,5954.8110352,3834.2749023,5687.1557617,3798.369873z M6940.565918,2985.6118164
		c600.5922852-143.6201172,1044.5087891-388.4267578,1410.0864258-770.3251953
		c489.6132813-515.7260742,744.2128906-1210.9770508,825.8144531-2265.277832l19.5849609-244.8067017L9117.7138672-1.0298761
		C8794.5683594,1223.00354,7958.9619141,2260.9838867,6747.9848633,2933.3862305
		C6503.1782227,3067.2138672,6545.6113281,3080.2702637,6940.565918,2985.6118164z"/>
</g>
</svg>
