<?xml version="1.0" encoding="utf-8"?>
<!-- Generator: Adobe Illustrator 24.2.3, SVG Export Plug-In . SVG Version: 6.00 Build 0)  -->
<!DOCTYPE svg PUBLIC "-//W3C//DTD SVG 1.1//EN" "http://www.w3.org/Graphics/SVG/1.1/DTD/svg11.dtd" [
	<!ENTITY ns_extend "http://ns.adobe.com/Extensibility/1.0/">
	<!ENTITY ns_ai "http://ns.adobe.com/AdobeIllustrator/10.0/">
	<!ENTITY ns_graphs "http://ns.adobe.com/Graphs/1.0/">
	<!ENTITY ns_vars "http://ns.adobe.com/Variables/1.0/">
	<!ENTITY ns_imrep "http://ns.adobe.com/ImageReplacement/1.0/">
	<!ENTITY ns_sfw "http://ns.adobe.com/SaveForWeb/1.0/">
	<!ENTITY ns_custom "http://ns.adobe.com/GenericCustomNamespace/1.0/">
	<!ENTITY ns_adobe_xpath "http://ns.adobe.com/XPath/1.0/">
]>
<svg version="1.1" id="Слой_1" xmlns:x="&ns_extend;" xmlns:i="&ns_ai;" xmlns:graph="&ns_graphs;"
	 xmlns="http://www.w3.org/2000/svg" xmlns:xlink="http://www.w3.org/1999/xlink" x="0px" y="0px" viewBox="0 0 1600 1600"
	 style="enable-background:new 0 0 1600 1600;" xml:space="preserve">
<style type="text/css">
	.st0{fill:#FFFFFF;}
</style>
<metadata>
	<sfw  xmlns="&ns_sfw;">
		<slices></slices>
		<sliceSourceBounds  bottomLeftOrigin="true" height="1434.7680664" width="1599.8912354" x="0.0544052" y="-1517.3840332">
			</sliceSourceBounds>
	</sfw>
</metadata>
<g transform="translate(0.000000,820.000000) scale(0.100000,-0.100000)">
	<path class="st0" d="M11716.0927734,7347.9970703c0-36.6831055,345.5927734-1305.1445313,359.1074219-1320.5898438
		c5.7919922-3.8613281,229.7519531,212.3754883,500.0478516,482.671875
		c270.296875,270.2958984,484.6025391,498.1171875,476.8798828,503.9091797
		c-13.5146484,13.5146484-164.1083984,54.059082-969.2050781,262.5732422
		c-185.3457031,48.2670898-343.6621094,90.7421875-351.3847656,96.534668
		C11721.8847656,7376.9575195,11716.0927734,7365.3730469,11716.0927734,7347.9970703z"/>
	<path class="st0" d="M11044.2138672,6832.503418c-268.3662109-268.3652344-486.5332031-492.3251953-486.5332031-500.0478516
		c0-17.3759766,46.3359375-30.8911133,770.34375-218.1674805
		c310.8408203-81.0888672,569.5527344-142.8710938,575.3447266-137.0791016
		c5.7919922,3.8618164-3.8613281,50.1982422-21.2373047,102.3266602
		c-15.4453125,50.1977539-73.3662109,258.7119141-129.3564453,459.503418
		c-167.9697266,623.6118164-208.5136719,766.4829102-214.3056641,774.2055664
		C11534.6083984,7317.105957,11312.5791016,7100.8691406,11044.2138672,6832.503418z"/>
	<path class="st0" d="M13384.2060547,6844.0878906c102.3271484-380.3457031,345.59375-1253.0161133,351.3857422-1258.8081055
		c3.8613281-3.8613281,227.8203125,218.1674805,496.1865234,492.3251953
		c270.2958984,276.0883789,490.3945313,501.9785156,486.5332031,505.8398438
		c-1.9306641,3.8613281-117.7724609,34.7524414-252.9199219,71.4355469
		c-137.0791016,34.7524414-413.1679688,108.1186523-615.8896484,160.2470703
		c-200.7910156,52.128418-393.8603516,102.3261719-428.6123047,108.1186523l-61.7822266,13.5146484L13384.2060547,6844.0878906z"/>
	<path class="st0" d="M12693.0205078,6394.237793c-295.3955078-299.2568359-486.5332031-505.840332-471.0878906-511.6323242
		c13.5146484-3.8613281,247.1279297-65.6430664,517.4238281-137.0786133
		c270.296875-69.5048828,567.6220703-146.7324219,662.2265625-171.8310547
		c92.6728516-25.0991211,167.9697266-42.4750977,167.9697266-36.6831055s-42.4755859,162.1777344-94.6044922,351.3847656
		c-52.1279297,187.2768555-137.078125,490.3945313-185.3457031,669.9487305
		c-50.1972656,181.484375-92.6728516,330.1474609-94.6035156,334.0087891
		C13191.1376953,6894.2856445,12967.1777344,6670.3256836,12693.0205078,6394.237793z"/>
	<path class="st0" d="M14770.4394531,6388.4458008c-34.7519531-32.8217773-90.7421875-90.7426758-125.4941406-125.4951172
		c-34.7529297-34.7519531-108.1191406-108.1181641-164.1083984-164.1083984
		c-285.7421875-278.0185547-503.9091797-507.7705078-563.7607422-590.7900391
		c-25.0986328-36.6831055-36.6835938-61.7822266-25.0986328-54.059082c11.5839844,7.7226563,30.890625,0,44.4052734-15.4458008
		c13.5146484-15.4453125,54.0595703-28.9599609,88.8115234-28.9599609c36.6835938,0,81.0888672-7.7231445,100.3955078-19.3071289
		c40.5449219-23.1679688,1086.9775391-293.4643555,1096.6308594-283.8110352
		c3.8613281,3.8613281-245.1972656,930.5913086-334.0087891,1235.6396484
		c-17.3759766,59.8515625-36.6835938,110.0493164-42.4755859,110.0493164S14805.1923828,6423.1977539,14770.4394531,6388.4458008z"
		/>
	<path class="st0" d="M10663.8681641,5888.3974609c324.3554688-660.2949219,1326.3818359-2670.1401367,1334.1044922-2677.862793
		c3.8613281-3.8615723,11.5849609-3.8615723,15.4462891,0c11.5839844,11.5839844-59.8515625,2548.5068359-73.3662109,2560.0908203
		c-9.6533203,11.5844727-276.0888672,83.0195313-919.0078125,249.059082
		c-227.8203125,57.9204102-430.5429688,110.0488281-449.8496094,115.8408203
		C10546.0966797,6143.2485352,10567.3339844,6083.3969727,10663.8681641,5888.3974609z"/>
	<path class="st0" d="M12148.5664063,5627.7548828c5.7919922-52.128418,28.9609375-270.2963867,50.1982422-488.4638672
		c102.3261719-1094.699707,142.8710938-1486.6291504,152.5244141-1486.6291504
		c7.7226563,0,23.1679688,19.3068848,38.6132813,44.4057617c15.4453125,23.1682129,113.9111328,167.9699707,222.0292969,320.4941406
		s204.6523438,291.5339355,214.3056641,308.9099121c11.5849609,17.3759766,38.6142578,55.9897461,63.7128906,84.9501953
		c23.1689453,30.8911133,42.4755859,67.5742188,42.4755859,81.0888672c0,15.4458008,21.2373047,52.128418,48.2666016,81.0888672
		c81.0888672,86.8808594,260.6435547,322.4248047,260.6435547,339.8007813
		c0,9.6538086,61.78125,102.3266602,135.1474609,206.5834961c75.296875,106.1879883,140.9404297,202.722168,146.7324219,218.1679688
		c7.7226563,19.3066406-154.4550781,67.5737305-671.8789063,202.722168
		c-374.5537109,98.4648438-689.2558594,177.6230469-696.9785156,177.6230469
		C12144.7050781,5718.4970703,12142.7744141,5677.9526367,12148.5664063,5627.7548828z"/>
	<path class="st0" d="M13710.4921875,5274.4389648c-23.1679688-19.3066406-48.2666016-55.9897461-55.9892578-81.0888672
		c-7.7226563-23.1679688-40.5449219-86.8808594-75.296875-140.9399414
		c-34.7529297-52.128418-218.1679688-357.1772461-407.375-675.7407227
		c-189.2080078-318.5632324-436.3359375-735.5915527-550.2460938-926.7297363
		c-113.9101563-191.1379395-204.6533203-349.4543457-200.7910156-353.3156738
		c5.7919922-7.7226563,1108.2138672,737.5224609,2177.8144531,1469.2529297
		c181.484375,125.4946289,378.4150391,258.7119141,436.3359375,295.3950195
		c55.9892578,36.6831055,98.4648438,71.4355469,92.6728516,77.2275391
		c-9.6533203,11.5839844-81.0888672,30.8911133-776.1367188,210.4448242
		c-233.6132813,61.7822266-447.9189453,123.5639648-476.8798828,137.0791016
		C13803.1650391,5322.7060547,13758.7597656,5320.7753906,13710.4921875,5274.4389648z"/>
	<path class="st0" d="M5248.2910156,4365.0854492c-787.7207031-67.5742188-1455.7382813-258.7119141-2148.8549805-610.097168
		c-596.5822754-305.048584-1214.4022217-772.2749023-1612.1237793-1222.125
		c-391.9294434-442.1271973-637.12677-801.2351074-884.2546997-1293.5603027
		C-151.8411102-270.4943542-200.1082916-2035.142334,473.7015076-3568.1079102
		c668.0177002-1515.5893555,1919.1029053-2645.0415039,3481.0290527-3143.1586914
		c357.1772461-113.9106445,637.1264648-173.7617188,1110.1450195-239.4052734
		c229.7519531-30.8911133,990.4423828-30.8911133,1245.293457,0
		c1029.0561523,125.4946289,1990.5380859,513.5629883,2813.0107422,1133.3134766
		c183.4150391,139.0092773,604.3056641,507.7705078,604.3056641,530.9389648c0,7.7226563-88.8125,48.2670898-196.9306641,86.8808594
		c-206.5830078,75.296875-571.4833984,247.1279297-787.7197266,368.7612305l-125.4951172,71.4355469l-214.3066406-162.1777344
		c-1063.8081055-801.2353516-2419.1503906-1090.8383789-3730.0874023-797.3740234
		c-1048.362793,233.6132813-2005.9836426,864.9477539-2652.763916,1745.3413086
		c-455.6420898,619.7504883-766.4827881,1426.777832-847.5716553,2195.1914063
		c-32.8216553,324.3553467-13.5147705,940.2445679,40.5444336,1241.4317627
		c343.6623535,1930.6871338,1818.7073975,3386.425293,3764.8398438,3716.5727539
		c252.9199219,42.4750977,901.6308594,59.8513184,1158.4121094,30.8911133
		c594.6518555-69.5048828,1104.3530273-222.0290527,1617.9160156-484.6025391
		c1364.9956055-696.9781494,2295.5874023-2071.6274414,2438.4575195-3600.7314453
		c27.0302734-283.8110352,11.5839844-855.2944336-30.890625-1119.7984619
		c-81.0888672-519.3549805-328.2167969-1210.5407715-571.4833984-1604.401123l-36.6835938-61.7819824l61.7822266-36.6831055
		c111.9804688-63.7126465,424.7509766-194.9992676,594.6513672-245.1972656
		c214.3066406-63.7126465,430.5439453-110.0490723,447.9199219-92.6728516
		c30.890625,30.8908691,229.7519531,453.7114258,310.8408203,660.2949219
		c166.0390625,420.8898926,308.9101563,1002.0266113,362.96875,1467.3222656
		c34.7529297,297.3258057,28.9609375,1000.0959473-9.6533203,1293.5603027
		c-125.4941406,938.3139648-449.8496094,1787.8164063-974.9970703,2552.3684082
		c-48.2666016,73.3662109-100.3955078,131.2868652-113.9101563,131.2868652s-19.3066406,9.6533203-13.5146484,19.3068848
		c7.7226563,11.5839844-19.3076172,48.2670898-55.9902344,81.0888672
		c-38.6142578,32.8215332-69.5048828,69.5046387-69.5048828,81.0888672
		c0,36.6828613-129.3564453,187.2766113-353.3154297,415.0976563
		C8839.3691406,3587.0185547,7671.3032227,4168.1552734,6385.465332,4336.125
		C6103.5849609,4372.8081055,5508.9335938,4388.2539063,5248.2910156,4365.0854492z"/>
	<path class="st0" d="M10681.2441406,4200.9770508c-527.0771484-63.7128906-1065.7392578-227.8210449-1554.203125-471.0876465
		l-194.9990234-98.4650879l133.2167969-92.6728516c171.8320313-121.6333008,436.3359375-330.1477051,546.3847656-432.4741211
		c156.3857422-144.8015137,127.4257813-140.9399414,370.6923828-55.9897461
		c434.4042969,152.5241699,789.6503906,216.2368164,1218.2636719,216.2368164h264.5039063l-241.3359375,482.671875
		c-210.4453125,420.8896484-247.1279297,482.671875-285.7421875,480.7412109
		C10914.8574219,4228.0068359,10799.0166016,4216.4223633,10681.2441406,4200.9770508z"/>
	<path class="st0" d="M13617.8193359,3357.2668457c-548.3154297-378.4147949-666.0869141-461.4343262-666.0869141-465.2956543
		s92.6728516-61.7819824,208.5146484-129.355957c1050.2929688-621.6813965,1714.4501953-1629.5,1868.9042969-2841.9716797
		c38.6142578-299.2565002,28.9609375-758.7600708-21.2373047-1056.0858154
		c-50.1972656-299.2565918-164.1083984-689.2553711-231.6826172-801.2352295
		c-13.5146484-21.2375488-46.3359375-98.4649658-75.296875-173.7618408
		c-27.0292969-73.3659668-81.0888672-183.4152832-117.7714844-241.3359375s-81.0888672-135.1479492-98.4648438-171.8310547
		c-113.9111328-247.1279297-675.7402344-851.4331055-1007.8193359-1083.1154785
		c-640.9873047-449.8500977-1322.5205078-681.5327148-2083.2109375-708.5620117
		c-658.3642578-23.168457-1256.8769531,106.1875-1843.8066406,399.6520996
		C8449.3701172-3363.4550781,7680.956543-2295.7851563,7497.5415039-1065.9375
		c-40.5444336,272.2269287-40.5444336,801.2352295,0,1071.5313721
		c104.2568359,700.8394165,384.206543,1339.8968506,816.6801758,1868.9051514l117.7724609,142.8708496l-71.4355469,57.9206543
		c-258.7124023,204.652832-695.0473633,471.0876465-747.1762695,449.8500977
		c-15.4453125-5.7919922-88.8115234-92.6730957-164.1083984-194.9995117
		c-492.3251953-662.2255859-808.9575195-1446.0844727-915.1455078-2268.557373
		c-36.6831055-270.2962036-40.5444336-826.3341064-11.5839844-1090.8382568
		c189.2070313-1687.4206543,1268.4614258-3170.1884766,2795.6352539-3843.9980469
		c1644.9453125-722.0771484,3502.265625-480.7412109,4917.4599609,637.1269531
		c389.9990234,308.909668,795.4423828,764.5517578,1069.6005859,1202.8178711
		c339.8007813,546.3845215,573.4140625,1197.026001,668.0175781,1863.1130371
		c42.4755859,293.4644775,30.890625,1187.3725586-17.3759766,1444.1540527
		c-92.6728516,484.602478-216.2373047,857.2251587-424.7509766,1283.9069824
		c-268.3662109,542.5230713-569.5527344,959.5516357-988.5126953,1359.2037354
		c-258.7119141,247.1279297-669.9482422,563.7607422-729.7988281,559.8994141
		C13801.234375,3476.9694824,13714.3535156,3422.9101563,13617.8193359,3357.2668457z"/>
</g>
</svg>
