<?xml version="1.0" encoding="utf-8"?>
<!-- Generator: Adobe Illustrator 24.2.3, SVG Export Plug-In . SVG Version: 6.00 Build 0)  -->
<!DOCTYPE svg PUBLIC "-//W3C//DTD SVG 1.1//EN" "http://www.w3.org/Graphics/SVG/1.1/DTD/svg11.dtd" [
	<!ENTITY ns_extend "http://ns.adobe.com/Extensibility/1.0/">
	<!ENTITY ns_ai "http://ns.adobe.com/AdobeIllustrator/10.0/">
	<!ENTITY ns_graphs "http://ns.adobe.com/Graphs/1.0/">
	<!ENTITY ns_vars "http://ns.adobe.com/Variables/1.0/">
	<!ENTITY ns_imrep "http://ns.adobe.com/ImageReplacement/1.0/">
	<!ENTITY ns_sfw "http://ns.adobe.com/SaveForWeb/1.0/">
	<!ENTITY ns_custom "http://ns.adobe.com/GenericCustomNamespace/1.0/">
	<!ENTITY ns_adobe_xpath "http://ns.adobe.com/XPath/1.0/">
]>
<svg version="1.1" id="Слой_1" xmlns:x="&ns_extend;" xmlns:i="&ns_ai;" xmlns:graph="&ns_graphs;"
	 xmlns="http://www.w3.org/2000/svg" xmlns:xlink="http://www.w3.org/1999/xlink" x="0px" y="0px" viewBox="0 0 1600 1600"
	 style="enable-background:new 0 0 1600 1600;" xml:space="preserve">
<style type="text/css">
	.st0{fill:#FFFFFF;}
</style>
<metadata>
	<sfw  xmlns="&ns_sfw;">
		<slices></slices>
		<sliceSourceBounds  bottomLeftOrigin="true" height="1345.6431885" width="1600" x="0" y="-1472.8216553"></sliceSourceBounds>
	</sfw>
</metadata>
<g transform="translate(0.000000,900.000000) scale(0.100000,-0.100000)">
	<path class="st0" d="M4641.1269531,6610.159668c-1217.1940918-1208.0146484-1275.942627-1274.1069336-1472.3828125-1655.9716797
		c-464.4797363-908.7651367-383.7006836-1991.9394531,214.7990723-2838.2841797
		c130.3481445-183.5889893,414.9108887-477.3311768,569.1254883-583.8127441
		c56.9125977-40.3895264,104.645752-82.6149902,104.645752-95.4661865c0-11.0153809-36.7177734-102.8098145-80.7790527-201.947876
		c-44.0612793-99.1379395-156.0505371-348.8188477-246.0092773-556.274292
		c-91.7944336-207.4554138-346.9829102-789.4321899-569.1254883-1294.3016357s-521.392334-1185.9842529-664.5917969-1514.6083984
		c-143.1992188-328.6240234-262.5319824-598.4997559-264.3679199-600.3356934s-97.3022461,42.2255859-212.9631348,99.1381836
		C883.062561-2086.4460449,0-1757.8217773,0-1880.826416c0-170.7375488,1870.770752-1198.8354492,3221.9851074-1771.6328125
		c692.130127-295.578125,1073.994873-409.4030762,1073.994873-324.9523926
		c0,89.9587402-537.9155273,442.4494629-1268.5991211,829.8217773
		c-185.4248047,97.3022461-392.8803711,207.4555664-460.8081055,244.1733398l-123.0046387,67.9279785l403.8955078,732.5195313
		c222.1425781,403.8956299,545.2590332,991.3800049,717.8325195,1303.4812012
		c682.9509277,1241.0609131,993.2160645,1802.8428955,1035.4416504,1874.442627l42.2250977,75.2714844l124.840332-42.2254639
		c273.5478516-91.7944336,488.3466797-123.0045776,831.6577148-123.0045776
		c345.1474609,0,530.5722656,27.5383301,850.0166016,126.6763306
		c738.0273438,231.3220215,1393.4399414,839.0012207,1683.5102539,1562.3414307
		c113.824707,286.3986816,161.5581055,495.6899414,229.4858398,1024.4260254
		c124.8408203,974.8569336,194.6044922,1531.1313477,257.0244141,2028.6572266
		c34.8818359,277.2192383,66.0927734,521.3925781,67.9277344,539.7514648
		c5.5078125,29.3740234-223.9775391,148.7070313-1435.6645508,747.206543
		c-793.1040039,392.8803711-1450.3525391,714.1611328-1461.3676758,714.1611328S5261.6577148,7225.1826172,4641.1269531,6610.159668
		z M6877.2397461,6459.6166992c635.2177734-313.9370117,1156.6098633-572.7973633,1156.6098633-574.6333008
		c11.015625-9.1791992-196.4399414-1560.5053711-207.4550781-1571.5205078
		c-9.1796875-7.34375-332.2958984-22.0307617-721.5043945-34.8818359
		c-389.2084961-11.015625-1083.1748047-33.0463867-1542.1469727-49.5693359
		c-1955.2214355-66.0917969-2175.5280762-73.4355469-2181.0358887-69.7636719
		c-27.5383301,18.3588867,110.1533203,457.1362305,194.604248,622.3662109
		c148.7070313,297.4140625,214.7990723,370.8496094,1176.8046875,1325.5117188
		c510.3774414,508.5415039,938.1391602,923.4521484,949.1547852,923.4521484
		C5713.2861328,7030.578125,6242.0224609,6773.5537109,6877.2397461,6459.6166992z"/>
	<path class="st0" d="M9041.7529297,7693.3339844c-286.3984375-69.7636719-471.8232422-218.4707031-556.2744141-442.4492188
		l-18.359375-47.7329102h132.1845703c152.3789063,1.8359375,356.1621094-55.0766602,453.4648438-124.840332
		c214.7988281-156.0507813,334.1318359-189.0966797,481.0029297-132.184082
		c167.0654297,62.4204102,258.8603516,198.2758789,260.6953125,380.0288086
		c0,163.394043-67.9277344,277.2192383-209.2910156,350.6547852
		c-86.2871094,45.8974609-117.4970703,51.4052734-257.0244141,49.5693359
		C9241.8642578,7726.3803711,9113.3525391,7711.6928711,9041.7529297,7693.3339844z"/>
	<path class="st0" d="M11033.6923828,6013.4956055c-308.4296875-113.824707-993.2158203-361.6699219-1521.9521484-552.6025391
		l-962.0058594-348.8188477l12.8515625-486.5102539c5.5078125-268.0400391,16.5224609-833.4936523,22.0302734-1257.5839844
		c14.6875-1147.4306641,31.2099609-1443.008667,89.9589844-1707.376709
		c84.4511719-387.3725586,102.8095703-447.9569092,211.1269531-666.4276733
		c378.1933594-763.7297363,1035.4414063-1277.7786865,1890.9658203-1474.21875
		c233.1582031-53.2407837,725.1757813-67.9279175,963.8417969-29.3742371
		c91.7939453,14.6871033,167.0654297,25.7024536,168.9013672,23.8665466
		c3.671875-3.6717529,664.5917969-1597.2233887,1321.8398438-3187.1032715
		c106.4814453-257.0244141,246.0097656-594.8278809,310.265625-749.0427246
		c78.9433594-190.9321289,108.3173828-282.7265625,93.6298828-288.234375
		c-363.5058594-126.6762695-1119.8916016-431.434082-1479.7265625-594.828125
		c-436.9414063-200.1118164-699.4736328-359.8339844-670.0986328-409.4033203
		c22.0302734-34.8818359,297.4140625-1.8354492,561.78125,66.0922852
		c881.2265625,223.9785156,2322.3994141,736.1914063,3236.6728516,1149.2666016
		c457.1357422,205.6191406,743.5341797,376.3569336,714.1601563,425.9260254
		c-16.5224609,25.7023926-187.2607422,16.5229492-380.0283203-23.8664551
		c-247.8457031-49.5693359-908.765625-242.3374023-1365.9013672-396.5522461l-372.6855469-126.6762695l-27.5390625,84.4511719
		c-119.3320313,369.0131836-1331.0185547,4264.7695313-1327.3476563,4268.4414063
		c3.671875,3.6717834,51.4052734,27.5383301,106.4824219,55.0766602
		c403.8955078,203.7836761,807.7910156,591.15625,1057.4716797,1013.4106445
		c257.0244141,433.2697144,381.8652344,892.2420044,380.0292969,1400.7832031
		c0,548.9309082-156.0507813,1061.1437988-458.9726563,1518.2802734
		c-84.4511719,124.840332-1947.8779297,2445.4038086-1993.7753906,2480.2856445
		C11600.9814453,6211.7719727,11399.0341797,6145.6796875,11033.6923828,6013.4956055z M12394.0859375,4566.8154297
		c407.5673828-515.8847656,769.2373047-974.8569336,800.4472656-1020.7541504
		c152.3789063-211.1274414,312.1015625-587.4846191,354.3271484-833.4936523
		c11.0146484-64.2561035,23.8662109-137.6916504,29.3740234-165.2299805l11.015625-51.4050293h-2204.9033203H9179.4443359
		v1081.338623v1081.338623l189.0966797,64.2558594c176.2451172,60.5844727,453.4648438,157.8867188,1701.8691406,596.6640625
		c288.234375,102.8100586,536.0791016,185.4248047,552.6025391,185.4248047
		C11641.3710938,5506.7905273,11946.1289063,5135.940918,12394.0859375,4566.8154297z"/>
	<path class="st0" d="M8219.2744141,397.5117188c-77.1074219-117.4968872-75.2714844-295.5780945,3.671875-447.9568787
		c45.8974609-93.6303406,93.6308594-134.0198975,170.7373047-145.0352325
		c196.4404297-33.04599,312.1015625,220.3066711,159.7226563,348.8189087
		c-31.2099609,25.7024536-67.9277344,47.7331085-80.7792969,47.7331085
		c-31.2099609,0-192.7675781,178.0812225-192.7675781,212.9631195
		C8279.859375,452.5883789,8250.484375,445.2448425,8219.2744141,397.5117188z"/>
	<path class="st0" d="M6879.0756836,254.3123932c-117.4970703-27.5383301-341.4750977-139.5275574-471.8232422-236.8296661
		c-137.6918945-102.8097763-293.7426758-262.5321045-414.9111328-425.926239
		c-246.0092773-334.1317444-137.6914063-789.432251,227.6503906-956.4981689
		c124.840332-58.7484131,381.8647461-56.9124756,501.1977539,1.8359375
		c137.6914063,67.9278564,229.4858398,159.72229,295.578125,293.7421875
		c56.9121094,115.6610107,60.5839844,134.0198975,62.4199219,324.9523315
		c0,152.3787842,11.015625,238.6655884,42.2255859,348.8189087
		c55.0766602,190.9324493,172.5732422,418.5826721,271.7114258,521.3924561
		c44.0615234,44.0613403,75.2714844,84.450882,71.5996094,88.1226654
		c-3.671875,5.5076752-51.4047852,20.1947784-104.6455078,34.881897
		C7251.7612305,276.3430481,6989.2290039,280.0148315,6879.0756836,254.3123932z"/>
	<path class="st0" d="M7850.2607422-1223.578125c-179.9169922-218.4708252-190.9321289-572.7973633-27.5380859-925.2880859
		c97.3022461-209.2912598,212.9628906-291.90625,407.5673828-293.7421875
		c273.546875,0,455.3007813,246.0090332,378.1933594,519.5565186
		c-27.5390625,99.1380615-117.4970703,192.7684326-249.6816406,255.1885986
		c-156.0498047,75.2714844-324.9521484,242.3372803-394.7158203,392.880249
		c-29.3740234,64.2561035-56.9125977,117.4968262-56.9125977,115.6610107
		C7905.3374023-1159.3220215,7879.6352539-1188.6962891,7850.2607422-1223.578125z"/>
</g>
</svg>
