<?xml version="1.0" encoding="utf-8"?>
<!-- Generator: Adobe Illustrator 24.2.3, SVG Export Plug-In . SVG Version: 6.00 Build 0)  -->
<!DOCTYPE svg PUBLIC "-//W3C//DTD SVG 1.1//EN" "http://www.w3.org/Graphics/SVG/1.1/DTD/svg11.dtd" [
	<!ENTITY ns_extend "http://ns.adobe.com/Extensibility/1.0/">
	<!ENTITY ns_ai "http://ns.adobe.com/AdobeIllustrator/10.0/">
	<!ENTITY ns_graphs "http://ns.adobe.com/Graphs/1.0/">
	<!ENTITY ns_vars "http://ns.adobe.com/Variables/1.0/">
	<!ENTITY ns_imrep "http://ns.adobe.com/ImageReplacement/1.0/">
	<!ENTITY ns_sfw "http://ns.adobe.com/SaveForWeb/1.0/">
	<!ENTITY ns_custom "http://ns.adobe.com/GenericCustomNamespace/1.0/">
	<!ENTITY ns_adobe_xpath "http://ns.adobe.com/XPath/1.0/">
]>
<svg version="1.1" id="Слой_1" xmlns:x="&ns_extend;" xmlns:i="&ns_ai;" xmlns:graph="&ns_graphs;"
	 xmlns="http://www.w3.org/2000/svg" xmlns:xlink="http://www.w3.org/1999/xlink" x="0px" y="0px" viewBox="0 0 512 512"
	 style="enable-background:new 0 0 512 512;" xml:space="preserve">
<style type="text/css">
	.st0{fill:#F2F2F2;}
	.st1{fill-opacity:5.000000e-02;}
	.st2{fill:#D54C3F;}
	.st3{fill-opacity:8.000000e-02;}
	.st4{fill:#B63524;}
	.st5{fill:none;stroke:#DE5145;stroke-width:44;stroke-linecap:round;}
</style>
<metadata>
	<sfw  xmlns="&ns_sfw;">
		<slices></slices>
		<sliceSourceBounds  bottomLeftOrigin="true" height="392" width="437" x="0" y="120"></sliceSourceBounds>
	</sfw>
</metadata>
<polygon points="0,0 0,0 0,0 0,0 0,0 0,0 0,0 0,0 "/>
<path class="st0" d="M120,392V151.1h272V392"/>
<path class="st1" d="M256,285L120,392l-4-212"/>
<path class="st2" d="M120,392H97c-12,0-22-10-22-23V143h45V392z"/>
<path class="st3" d="M317,392h77V159H82"/>
<path class="st0" d="M97,121h318L256,234"/>
<path class="st4" d="M392,392h23c12,0,22-10,22-23V143h-45V392z"/>
<path class="st5" d="M97,143l159,115l159-115"/>
</svg>
